<?xml version="1.0" standalone="no"?> <!DOCTYPE svg PUBLIC "-//W3C//DTD SVG 1.0//EN" "http://www.w3.org/TR/2001/REC-SVG-20010904/DTD/svg10.dtd" > <svg xmlns="http://www.w3.org/2000/svg" width="100%" height="100%">
<defs >
<font id="RenoMono-Regular" horiz-adv-x="646" ><font-face
    font-family="RenoMono-Regular"
    units-per-em="1000"
    panose-1="0 0 0 0 0 0 0 0 0 0"
    ascent="709"
    descent="-231"
    alphabetic="0" />
<missing-glyph horiz-adv-x="650" />
<glyph unicode=" " glyph-name="space" horiz-adv-x="650" />
<glyph unicode="!" glyph-name="exclam" horiz-adv-x="650" d="M359 177H294V700H359V177ZM328 100Q353 100 368 85T384 47Q384 23 369 8T328 -7Q302 -7 286 8T269 47Q269 70 285 85T328 100Z" />
<glyph unicode="&quot;" glyph-name="quotedbl" horiz-adv-x="650" d="M364 504V534Q388 541 407 560T430 604Q426 603 417 603Q391 603 375 618T358 657Q358 680 374 695T417 710Q442 710 457 695T473 657Q473 593 443 553T364 504ZM215 710Q240 710 255 695T271
657Q271 593 241 553T162 504V534Q187 541 205 560T228 604Q224 603 215 603Q189 603 173 618T157 657Q157 680 173 695T215 710Z" />
<glyph unicode="#" glyph-name="numbersign" horiz-adv-x="650" d="M440 201L380 0H320L380 201H187L127 0H67L127 201H26V261H145L197 433H26V493H215L277 700H337L275 493H468L530 700H590L528 493H631V433H510L458 261H631V201H440ZM398 261L450 433H257L205 261H398Z" />
<glyph unicode="$" glyph-name="dollar" horiz-adv-x="650" d="M575 209Q575 108 506 49T328 -10Q265 -10 215 10T135 64T90 137T74 216H139Q139 163 177 114T288 53V333Q187 340 135 386T82 511Q82 602 148 654T319 707Q381 707 428 688T503 636T543 566T557
488H492Q492 543 458 589T353 645V394Q575 387 575 209ZM353 330V51Q422 59 466 100T510 209Q510 267 473 297T353 330ZM147 512Q147 411 288 396V645Q225 637 186 602T147 512Z" />
<glyph unicode="%" glyph-name="percent" horiz-adv-x="650" d="M593 147Q593 73 556 33T449 -7Q382 -7 346 31T310 142Q310 216 348 258T454 301Q520 301 556 261T593 147ZM-3 541Q-3 615 35 657T141 700Q207 700 243 660T280 546T243 433T136 393Q69 393 33
431T-3 541ZM450 700H515L145 0H80L450 700ZM137 453Q215 453 215 547Q215 591 196 615T140 640Q103 640 83 614T62 542Q62 453 137 453ZM528 148Q528 192 509 216T453 241Q416 241 396 215T375 142Q375 54 449 54Q528 54 528 148Z" />
<glyph unicode="&amp;" glyph-name="ampersand" horiz-adv-x="650" d="M294 706Q380 706 425 652T470 521H404Q404 524 404 530T405 538Q405 588 376 617T294 646Q240 646 214 611T188 499Q188 379 247 275T406 113Q447 169 447 308L512 311Q512 166 460 87Q527
61 602 61V0Q509 0 419 41Q360 -7 266 -7Q165 -7 109 44T52 182Q52 287 149 342Q123 417 123 494Q123 599 169 652T294 706ZM267 53Q323 53 360 73Q239 150 175 279Q117 240 117 174Q117 117 155 85T267 53Z" />
<glyph unicode="&apos;" glyph-name="quotesingle" horiz-adv-x="650" d="M312 710Q337 710 352 695T368 657Q368 593 338 553T259 504V534Q283 541 302 560T325 604Q321 603 312 603Q286 603 270 618T253 657Q253 680 269 695T312 710Z" />
<glyph unicode="(" glyph-name="parenleft" horiz-adv-x="650" d="M215 349Q215 506 276 603T435 700V640Q362 640 321 563T280 350Q280 211 321 132T435 53V-7Q337 -7 276 93T215 349Z" />
<glyph unicode=")" glyph-name="parenright" horiz-adv-x="650" d="M215 640V700Q313 700 374 603T435 350Q435 193 374 93T215 -7V53Q287 53 328 132T370 350Q370 487 330 563T215 640Z" />
<glyph unicode="*" glyph-name="asterisk" horiz-adv-x="650" d="M293 581V723H358V581L481 652L514 595L392 525L514 454L481 397L358 468V326H293V468L170 397L137 453L261 525L137 596L170 652L293 581Z" />
<glyph unicode="+" glyph-name="plus" horiz-adv-x="650" d="M359 343V177H294V343H128V408H294V574H359V408H525V343H359Z" />
<glyph unicode="," glyph-name="comma" horiz-adv-x="650" d="M284 100Q309 100 324 85T340 47Q340 -17 310 -57T231 -106V-76Q255 -69 274 -50T297 -6Q293 -7 284 -7Q258 -7 242 8T226 47Q226 70 242 85T284 100Z" />
<glyph unicode="-" glyph-name="hyphen" horiz-adv-x="650" d="M525 343H128V408H525V343Z" />
<glyph unicode="." glyph-name="period" horiz-adv-x="650" d="M330 100Q355 100 370 85T386 47Q386 23 371 8T330 -7Q304 -7 288 8T271 47Q271 70 287 85T330 100Z" />
<glyph unicode="/" glyph-name="slash" horiz-adv-x="650" d="M194 0L404 700H464L254 0H194Z" />
<glyph unicode="0" glyph-name="zero" horiz-adv-x="650" d="M333 700Q446 700 508 607T571 346Q571 176 507 83T326 -10Q212 -10 150 78T88 334Q88 505 152 602T333 700ZM327 50Q414 50 460 127T506 346Q506 487 461 563T333 640Q247 640 200 559T153 335Q153
195 198 123T327 50Z" />
<glyph unicode="1" glyph-name="one" horiz-adv-x="650" d="M515 60V0H139V60H294V640H139V700H359V60H515Z" />
<glyph unicode="2" glyph-name="two" horiz-adv-x="650" d="M553 512Q553 457 533 417T480 353T408 310T328 271T256 227T203 160T182 60H553V0H117V60Q117 127 137 177T190 257T262 310T342 351T414 390T467 441T488 515Q488 576 448 608T339 640Q265 640 229
606T193 518H128Q128 599 181 649T341 700Q439 700 496 654T553 512Z" />
<glyph unicode="3" glyph-name="three" horiz-adv-x="650" d="M338 337V400Q414 400 451 431T488 518Q488 578 448 612T338 647Q266 647 230 610T193 518H128Q128 600 181 653T338 707Q436 707 494 657T553 516Q553 417 482 371Q571 323 571 206Q571 106 507 48T335
-10Q225 -10 163 47T100 186H165Q165 130 210 90T334 50T459 91T506 205Q506 337 338 337Z" />
<glyph unicode="4" glyph-name="four" horiz-adv-x="650" d="M469 700V241H592V181H469V0H404V181H53V241L378 700H469ZM128 241H404V631L128 241Z" />
<glyph unicode="5" glyph-name="five" horiz-adv-x="650" d="M506 205Q506 337 345 337H139V700H515V640H204V400H347L345 337H349V400Q456 399 513 350T571 206Q571 106 507 48T335 -10Q225 -10 163 47T100 186H165Q165 130 210 90T334 50T459 91T506 205Z" />
<glyph unicode="6" glyph-name="six" horiz-adv-x="650" d="M328 707Q429 707 485 652T542 499H477Q477 569 438 608T328 647Q256 647 216 603T175 467V363Q234 413 335 413Q442 413 501 360T560 209Q560 107 498 49T336 -10T174 48T111 209H110V468Q110 586 167
646T328 707ZM266 50T335 50T449 93T495 207Q495 273 454 311T336 350Q258 350 217 312T176 207Q176 136 221 93Z" />
<glyph unicode="7" glyph-name="seven" horiz-adv-x="650" d="M67 640V700H589L219 0H154L492 640H67Z" />
<glyph unicode="8" glyph-name="eight" horiz-adv-x="650" d="M443 -10T336 -10T168 47T107 202Q107 321 202 365Q121 411 121 516Q121 607 179 657T336 707T492 657T551 516Q551 410 470 366Q566 322 566 202Q566 104 505 47ZM336 337Q172 337 172 202Q172 132
216 91T337 50Q413 50 457 91T501 202Q501 337 336 337ZM486 518Q486 578 446 612T336 647T227 613T186 518Q186 462 223 426T336 390T448 426T486 518Z" />
<glyph unicode="9" glyph-name="nine" horiz-adv-x="650" d="M324 287Q218 287 159 340T100 491Q100 593 163 651T325 710Q423 710 486 652T549 491H550V233Q550 115 493 54T332 -7Q231 -7 174 48T117 202H182Q182 132 222 93T332 53Q404 53 444 97T485 233V337Q426
287 324 287ZM165 493Q165 427 206 389T324 350Q402 350 443 388T484 493Q484 564 439 607T324 650T210 607T165 493Z" />
<glyph unicode=":" glyph-name="colon" horiz-adv-x="650" d="M254 473T254 497T270 536T313 551Q338 551 353 536T369 497T354 458T313 443Q287 443 271 458ZM313 100Q338 100 353 85T369 47Q369 23 354 8T313 -7Q287 -7 271 8T254 47Q254 70 270 85T313 100Z" />
<glyph unicode=";" glyph-name="semicolon" horiz-adv-x="650" d="M376 47Q376 -17 346 -57T267 -106V-76Q291 -69 310 -50T333 -6Q329 -7 320 -7Q294 -7 278 8T261 47Q261 70 277 85T320 100Q345 100 360 85T376 47ZM376 521T376 497T361 458T320 443Q294 443
278 458T261 497T277 536T320 551Q345 551 360 536Z" />
<glyph unicode="&lt;" glyph-name="less" horiz-adv-x="650" d="M490 147L146 345V411L490 610L523 554L219 378L523 203L490 147Z" />
<glyph unicode="=" glyph-name="equal" horiz-adv-x="650" d="M126 224V289H523V224H126ZM126 375V440H523V375H126Z" />
<glyph unicode="&gt;" glyph-name="greater" horiz-adv-x="650" d="M179 147L146 203L450 378L146 554L179 610L523 411V345L179 147Z" />
<glyph unicode="?" glyph-name="question" horiz-adv-x="650" d="M530 512Q530 474 519 442T494 390T452 350T406 320T351 293V182H286V335Q293 339 316 350T351 367Q406 396 435 429T465 515Q465 576 425 608T316 640Q242 640 206 606T170 518H105Q105 599 158
649T318 700Q416 700 473 654T530 512ZM319 -7Q293 -7 277 8T261 47Q261 70 277 85T319 100Q344 100 359 85T375 47Q375 23 360 8T319 -7Z" />
<glyph unicode="@" glyph-name="at" horiz-adv-x="650" d="M574 282Q574 397 508 462T328 528Q213 528 147 463T81 282Q81 168 147 102T328 36Q424 36 487 84L518 50Q441 -11 328 -11Q196 -11 115 69T34 282T115 494T328 575Q459 575 540 495T621 282Q621 193
580 122H515Q445 122 420 172Q380 118 304 118Q237 118 195 164T153 283Q153 358 196 404T309 450Q374 450 411 408V440H466V220Q466 199 481 186T523 173H554Q574 222 574 282ZM211 284Q211 233 238 203T311 172Q356 172 383 202T411 284Q411 335 384 364T310
394T238 364T211 284Z" />
<glyph unicode="A" glyph-name="A" horiz-adv-x="650" d="M533 0L448 270H202L117 0H52L272 700H378L598 0H533ZM325 662L221 330H429L325 662Z" />
<glyph unicode="B" glyph-name="B" horiz-adv-x="650" d="M580 202Q580 104 526 52T368 0H94V700H358Q448 700 496 656T545 528Q545 432 483 386Q580 335 580 202ZM362 351H159V60H369Q444 60 479 94T515 204T478 315T362 351ZM159 411H372Q423 411 451 440T480
522Q480 578 448 608T358 639H159V411Z" />
<glyph unicode="C" glyph-name="C" horiz-adv-x="650" d="M528 206H593Q593 121 518 56T335 -10Q209 -10 132 87T55 351T132 612T339 706Q453 706 523 635T593 456H528Q528 532 479 588T341 644Q239 644 180 566T120 344Q120 202 178 126T339 50Q426 50 477 99T528 206Z" />
<glyph unicode="D" glyph-name="D" horiz-adv-x="650" d="M330 0H95V700H330Q459 700 529 610T600 351Q600 182 529 91T330 0ZM535 344Q535 489 483 564T329 640H160V60H330Q535 60 535 344Z" />
<glyph unicode="E" glyph-name="E" horiz-adv-x="650" d="M402 410V350H166V59H547V-1H101V700H547V640H166V410H402Z" />
<glyph unicode="F" glyph-name="F" horiz-adv-x="650" d="M600 700V640H219V390H515V330H219V0H154V700H600Z" />
<glyph unicode="G" glyph-name="G" horiz-adv-x="650" d="M588 456H523Q523 532 474 588T336 644Q234 644 175 566T115 344Q115 202 173 126T334 50Q421 50 472 99T523 206V320H263V380H588V206Q588 121 513 56T330 -10Q204 -10 127 87T50 351T127 612T334 706Q448
706 518 635T588 456Z" />
<glyph unicode="H" glyph-name="H" horiz-adv-x="650" d="M507 700H572V0H507V320H146V0H81V700H146V380H507V700Z" />
<glyph unicode="I" glyph-name="I" horiz-adv-x="650" d="M359 640V60H545V0H109V60H294V640H109V700H545V640H359Z" />
<glyph unicode="J" glyph-name="J" horiz-adv-x="650" d="M588 640H439V180Q439 89 400 40T288 -9H74V52H282Q322 52 348 85T374 175V640H152V700H588V640Z" />
<glyph unicode="K" glyph-name="K" horiz-adv-x="650" d="M287 413L585 0H506L243 362L153 256V0H88V700H153V348L451 700H530L287 413Z" />
<glyph unicode="L" glyph-name="L" horiz-adv-x="650" d="M554 0H108V700H173V60H554V0Z" />
<glyph unicode="M" glyph-name="M" horiz-adv-x="650" d="M465 700H581V0H516V643L367 200H284L136 640V0H71V700H186L326 269L465 700Z" />
<glyph unicode="N" glyph-name="N" horiz-adv-x="650" d="M494 60V700H559V0H494V1H454L189 641V0H124V700H164V701H234L494 60Z" />
<glyph unicode="O" glyph-name="O" horiz-adv-x="650" d="M192 707T330 707T539 616T611 351Q611 177 539 84T330 -10T121 83T48 351Q48 524 120 615ZM225 50T330 50T490 128T546 351Q546 495 491 571T330 647Q224 647 169 571T113 351Q113 206 169 128Z" />
<glyph unicode="P" glyph-name="P" horiz-adv-x="650" d="M383 289H194V0H129V700H377Q482 700 538 646T595 491Q595 393 541 341T383 289ZM377 640H194V349H384Q459 349 494 383T530 493T493 604T377 640Z" />
<glyph unicode="Q" glyph-name="Q" horiz-adv-x="650" d="M365 -8V-136H305V-9Q180 -1 114 92T48 351Q48 524 120 615T330 707T539 616T611 351Q611 189 548 97T365 -8ZM330 647Q224 647 169 571T113 351Q113 216 162 139T305 51V290H365V52Q453 65 499 142T546
351Q546 495 491 571T330 647Z" />
<glyph unicode="R" glyph-name="R" horiz-adv-x="650" d="M570 491Q570 402 525 351T393 291L603 0H524L314 289H169V0H104V700H352Q457 700 513 646T570 491ZM352 640H169V349H359Q434 349 469 383T505 493T468 604T352 640Z" />
<glyph unicode="S" glyph-name="S" horiz-adv-x="650" d="M326 50Q405 50 457 92T510 209Q510 271 467 301T329 331Q208 331 145 378T82 511Q82 602 148 654T319 707Q381 707 428 688T503 636T543 566T557 488H492Q492 549 451 598T320 647Q245 647 196 611T147
512Q147 394 336 394Q575 394 575 209Q575 108 506 49T328 -10Q265 -10 215 10T135 64T90 137T74 216H139Q139 155 188 103T326 50Z" />
<glyph unicode="T" glyph-name="T" horiz-adv-x="650" d="M69 640V700H581V640H357V0H292V640H69Z" />
<glyph unicode="U" glyph-name="U" horiz-adv-x="650" d="M567 700V242Q567 121 504 57T326 -7Q212 -7 151 56T89 242V700H154V242Q154 148 198 101T327 53T457 101T503 242V700H567Z" />
<glyph unicode="V" glyph-name="V" horiz-adv-x="650" d="M64 700H134L320 71L506 700H576L363 0H277L64 700Z" />
<glyph unicode="W" glyph-name="W" horiz-adv-x="650" d="M536 700H606L521 0H457V1H401L323 647L244 1H189V0H125L40 700H110L184 40L259 700H386L461 36L536 700Z" />
<glyph unicode="X" glyph-name="X" horiz-adv-x="650" d="M582 700L380 350L582 0H502L327 308L151 0H71L273 350L71 700H151L327 392L502 700H582Z" />
<glyph unicode="Y" glyph-name="Y" horiz-adv-x="650" d="M502 700H582L357 311V0H292V313L68 700H148L325 391L502 700Z" />
<glyph unicode="Z" glyph-name="Z" horiz-adv-x="650" d="M550 700V640L178 59H550V-1H104V59L479 640H104V700H550Z" />
<glyph unicode="[" glyph-name="bracketleft" horiz-adv-x="650" d="M215 0V700H435V640H280V60H435V0H215Z" />
<glyph unicode="\" glyph-name="backslash" horiz-adv-x="650" d="M409 0L199 700H259L469 0H409Z" />
<glyph unicode="]" glyph-name="bracketright" horiz-adv-x="650" d="M435 0H215V60H370V640H215V700H435V0Z" />
<glyph unicode="^" glyph-name="asciicircum" horiz-adv-x="650" />
<glyph unicode="_" glyph-name="underscore" horiz-adv-x="650" d="M126 -78H523V-143H126V-78Z" />
<glyph unicode="`" glyph-name="grave" horiz-adv-x="650" d="M362 504Q314 512 284 552T253 657Q253 680 268 695T309 710Q335 710 351 695T368 657Q368 633 352 618T309 603Q300 603 296 604Q300 579 319 560T362 534V504Z" />
<glyph unicode="a" glyph-name="a" horiz-adv-x="650" d="M302 511Q397 511 447 470T497 349V112Q497 89 509 75T542 61H561V0H542Q498 0 470 22T434 84Q382 -10 257 -10Q175 -10 131 29T87 139Q87 293 284 293H432V349Q432 451 304 451Q173 451 173 344H108Q108
511 302 511ZM152 139Q152 96 181 73T265 50Q409 50 432 208V233H282Q219 233 186 209T152 139Z" />
<glyph unicode="b" glyph-name="b" horiz-adv-x="650" d="M564 248Q564 124 505 57T333 -10Q235 -10 189 42V0H124V700H189V455Q233 511 333 511Q444 511 504 442T564 248ZM334 50Q419 50 459 97T499 243Q499 451 331 451Q269 451 232 425T189 351V137Q195 96
233 73T334 50Z" />
<glyph unicode="c" glyph-name="c" horiz-adv-x="650" d="M465 158H530Q530 84 471 37T321 -10Q214 -10 152 60T89 254Q89 376 150 443T319 511Q412 511 471 464T530 342H465Q465 390 424 419T318 449Q238 449 196 400T154 251Q154 151 196 101T320 50Q384 50
424 79T465 158Z" />
<glyph unicode="d" glyph-name="d" horiz-adv-x="650" d="M471 453V641H286V701H536V0H471V43Q426 -10 326 -10Q214 -10 155 57T95 248Q95 373 155 442T326 511Q427 511 471 453ZM328 451Q160 451 160 243Q160 144 200 97T325 50Q392 50 431 77T471 151V335Q471
389 433 420T328 451Z" />
<glyph unicode="e" glyph-name="e" horiz-adv-x="650" d="M329 50Q400 50 438 78T477 158H542Q542 83 483 37T328 -10Q215 -10 153 58T91 250T152 442T325 510Q427 510 484 453T542 295V229H156Q161 137 202 94T329 50ZM158 289H477Q477 450 324 450Q173 450 158 289Z" />
<glyph unicode="f" glyph-name="f" horiz-adv-x="650" d="M295 440H114V500H295V520Q295 709 476 709H630V648H482Q360 648 360 525V500H540V440H360V60H545V0H109V60H295V440Z" />
<glyph unicode="g" glyph-name="g" horiz-adv-x="650" d="M324 517H528V457H481Q533 405 533 322Q533 233 474 181T314 128Q203 128 203 85Q203 45 324 45Q556 45 556 -85Q556 -153 493 -192T321 -231Q211 -231 148 -191T85 -80H150Q150 -123 195 -147T322 -171Q400
-171 445 -149T490 -86Q490 -15 325 -15Q138 -15 138 80Q138 132 189 156Q92 207 92 322Q92 420 157 468T324 517ZM157 323Q157 262 200 225T313 188T425 225T468 323Q468 383 426 420T313 457T200 420T157 323Z" />
<glyph unicode="h" glyph-name="h" horiz-adv-x="650" d="M470 0V313Q470 378 432 414T324 451Q259 451 223 420T187 333V0H122V700H187V452Q232 511 332 511Q428 511 481 459T535 313V0H470Z" />
<glyph unicode="i" glyph-name="i" horiz-adv-x="650" d="M357 60H543V0H107V60H292V440H107V500H357V60ZM382 671T382 647T367 608T326 593Q300 593 284 608T268 647T284 686T326 701Q351 701 366 686Z" />
<glyph unicode="j" glyph-name="j" horiz-adv-x="650" d="M316 -57V440H86V500H381V-52Q381 -241 200 -241H46V-180H194Q316 -180 316 -57ZM350 593Q324 593 308 608T292 647T308 686T350 701Q375 701 390 686T406 647T391 608T350 593Z" />
<glyph unicode="k" glyph-name="k" horiz-adv-x="650" d="M314 294L528 0H449L271 243L198 156V0H133V700H198V248L411 501H490L314 294Z" />
<glyph unicode="l" glyph-name="l" horiz-adv-x="650" d="M360 700V60H545V0H109V60H295V641H109V701H359V700H360Z" />
<glyph unicode="m" glyph-name="m" horiz-adv-x="650" d="M215 451Q129 451 129 342V0H64V500H129V475Q165 511 220 511Q295 511 329 448Q369 511 442 511Q503 511 538 468T573 344V1H508V344Q508 402 493 426T437 451Q351 451 351 342V1H286V344Q286 402 271
426T215 451Z" />
<glyph unicode="n" glyph-name="n" horiz-adv-x="650" d="M466 0V313Q466 378 428 414T321 451Q261 451 225 424T184 350V0H119V500H184V454Q229 511 328 511Q424 511 477 459T531 313V0H466Z" />
<glyph unicode="o" glyph-name="o" horiz-adv-x="650" d="M330 511Q437 511 500 443T563 252Q563 131 500 61T330 -10T160 59T96 251Q96 372 159 441T330 511ZM253 50T330 50T452 104T498 252Q498 345 453 398T330 451T207 398T161 252Q161 158 207 104Z" />
<glyph unicode="p" glyph-name="p" horiz-adv-x="650" d="M342 -10Q244 -10 198 42V-230H133V501H198V455Q242 511 342 511Q453 511 513 442T573 248Q573 124 514 57T342 -10ZM508 243Q508 451 340 451Q278 451 241 425T198 351V137Q204 96 242 73T343 50Q428
50 468 97T508 243Z" />
<glyph unicode="q" glyph-name="q" horiz-adv-x="650" d="M460 453V501H525V-230H460V43Q415 -10 315 -10Q203 -10 144 57T84 248Q84 373 144 442T315 511Q416 511 460 453ZM460 151V335Q460 389 422 420T317 451Q149 451 149 243Q149 144 189 97T314 50Q381 50
420 77T460 151Z" />
<glyph unicode="r" glyph-name="r" horiz-adv-x="650" d="M286 500V459Q327 511 410 511Q497 511 545 456T593 304H528Q528 373 496 412T405 451Q354 451 323 424T286 349V60H453V0H27V60H221V440H89V500H286Z" />
<glyph unicode="s" glyph-name="s" horiz-adv-x="650" d="M316 50Q393 50 432 76T472 146Q472 228 319 228Q109 228 109 365Q109 435 161 473T308 511Q410 511 465 467T521 343H456Q456 451 314 451Q248 451 211 429T174 367Q174 291 327 291Q537 291 537 153Q537
78 480 34T319 -10Q213 -10 154 35T95 159H160Q160 50 316 50Z" />
<glyph unicode="t" glyph-name="t" horiz-adv-x="650" d="M300 708V500H464V440H300V184Q300 61 422 61H570V0H416Q235 0 235 189V440H74V500H235V708H300Z" />
<glyph unicode="u" glyph-name="u" horiz-adv-x="650" d="M469 167V500H534V0H469V48Q424 -11 324 -11Q228 -11 175 41T121 187V500H186V187Q186 122 224 86T332 49Q397 49 433 80T469 167Z" />
<glyph unicode="v" glyph-name="v" horiz-adv-x="650" d="M109 500H179L325 49L471 500H541L373 0H277L109 500Z" />
<glyph unicode="w" glyph-name="w" horiz-adv-x="650" d="M523 0H415L325 469L235 0H127L31 500H99L181 29L263 500H387L469 29L551 500H619L523 0Z" />
<glyph unicode="x" glyph-name="x" horiz-adv-x="650" d="M556 500L374 251L556 0H476L324 215L171 0H91L273 251L91 500H171L324 285L476 500H556Z" />
<glyph unicode="y" glyph-name="y" horiz-adv-x="650" d="M332 49Q391 49 427 76T469 150V500H534V-19Q534 -208 353 -208H199V-147H347Q406 -147 437 -116T469 -24V47Q425 -11 324 -11Q228 -11 175 41T122 187V500H187V187Q187 122 225 86T332 49Z" />
<glyph unicode="z" glyph-name="z" horiz-adv-x="650" d="M525 61V1H129V61L449 440H129V500H525V440L209 61H525Z" />
</font>
</defs>
</svg>
