<svg width="2778" height="1537" viewBox="0 0 2778 1537" fill="none" xmlns="http://www.w3.org/2000/svg">
<path d="M2167.72 397.674C2168.76 397.674 2170.86 398.722 2170.86 398.198C2175.05 394.009 2178.71 389.819 2182.9 385.106L2182.38 385.63C2192.33 376.204 2202.28 366.254 2211.7 356.828C2227.41 340.595 2242.59 324.361 2258.3 308.651C2269.3 297.654 2280.3 287.181 2292.34 277.755C2303.33 268.852 2315.9 262.045 2327.94 254.19C2332.13 251.571 2336.32 248.429 2341.03 245.287C2342.61 244.24 2345.22 243.193 2346.79 243.716C2354.65 247.906 2359.36 242.145 2364.6 238.48C2374.55 231.148 2384.5 223.293 2393.92 214.915C2400.2 209.154 2408.06 208.107 2415.39 208.107C2424.81 208.631 2433.72 211.773 2442.09 213.867C2443.14 217.009 2443.66 218.58 2443.66 220.151C2443.66 227.483 2447.85 230.101 2454.14 229.054C2464.09 227.483 2470.37 234.29 2477.18 239.003C2479.27 240.051 2479.27 243.716 2480.32 246.335C2482.94 251.048 2486.08 255.761 2488.17 260.997C2489.22 263.092 2489.22 266.234 2489.22 268.329C2489.22 273.042 2489.22 278.278 2489.22 282.991C2492.88 285.086 2496.03 286.657 2499.17 288.752C2499.17 289.275 2498.64 290.323 2498.64 290.846C2496.55 290.846 2494.46 290.323 2490.27 290.323C2493.93 294.512 2496.55 297.13 2499.69 300.272C2498.64 300.796 2496.55 301.843 2492.88 303.938C2503.36 307.08 2510.69 312.317 2512.26 323.314C2510.16 324.361 2508.59 324.885 2505.97 326.456C2508.59 328.55 2510.69 330.645 2513.31 333.263C2511.73 334.311 2510.16 335.358 2508.07 336.929C2513.83 340.071 2519.07 343.213 2524.83 346.879C2522.73 348.45 2521.16 349.497 2519.59 351.068C2520.11 352.115 2520.64 353.163 2521.16 353.163C2529.01 354.21 2535.3 355.781 2534.77 366.778C2534.77 372.015 2540.53 376.728 2548.39 375.68C2547.34 385.63 2552.05 391.39 2559.38 396.627C2563.57 399.245 2565.14 406.053 2568.29 411.813C2571.43 411.813 2576.14 411.813 2583.47 411.813C2578.76 414.955 2575.62 416.526 2570.38 420.192C2580.33 418.621 2586.09 420.192 2589.75 427.523C2591.32 430.142 2596.56 431.189 2601.27 431.189C2600.75 429.618 2599.7 428.571 2598.66 426.476C2600.75 425.952 2602.84 424.905 2607.03 423.334C2601.8 421.239 2598.13 420.192 2594.47 418.621C2601.8 412.337 2607.03 419.668 2614.36 421.239C2612.79 423.858 2612.27 426.476 2610.18 427.523C2604.42 431.713 2605.46 436.949 2609.65 440.091C2614.36 443.757 2620.12 446.899 2625.88 449.517C2636.88 455.801 2648.4 450.041 2659.4 454.23C2662.54 455.801 2662.54 458.943 2664.63 458.943C2667.77 458.943 2670.91 457.372 2673.53 457.372C2677.2 457.372 2680.86 459.991 2684.53 459.467C2698.67 457.372 2711.76 462.085 2725.37 464.704C2729.04 465.227 2732.7 466.798 2735.84 468.369C2745.27 474.13 2745.27 474.13 2742.65 485.127C2750.51 493.505 2750.51 493.505 2760.45 487.221C2763.07 490.363 2766.21 493.505 2770.4 497.695C2767.26 498.742 2764.64 499.266 2762.02 500.313C2764.12 505.026 2764.12 509.739 2770.4 513.405C2776.69 517.07 2778.78 525.973 2776.69 534.351C2770.4 534.875 2764.12 534.875 2756.26 535.399C2760.45 544.301 2764.12 551.109 2767.78 558.964C2764.12 561.058 2761.5 562.629 2759.41 557.393C2756.79 552.156 2752.08 550.585 2746.84 550.585C2743.7 550.585 2738.99 552.156 2737.94 554.251C2734.27 563.153 2726.42 562.629 2719.09 565.248C2704.95 570.484 2692.38 564.2 2679.29 562.106C2666.2 560.011 2653.11 557.917 2644.73 545.872C2643.69 544.825 2640.55 545.348 2638.97 544.825C2635.83 543.777 2633.21 542.206 2630.07 542.206C2616.46 540.635 2607.56 529.638 2594.47 526.496C2588.18 524.925 2582.95 525.973 2579.28 531.209C2570.9 532.257 2570.9 521.26 2566.19 520.736C2559.91 520.736 2556.77 510.263 2551.01 517.07C2544.2 511.31 2538.44 505.026 2532.16 500.313C2520.11 491.411 2508.07 483.032 2495.5 474.653C2494.46 474.13 2492.88 473.082 2492.88 472.035C2490.79 463.133 2482.41 459.467 2477.7 452.659C2472.99 445.852 2470.37 437.473 2465.66 430.665C2459.37 421.239 2452.57 412.337 2446.28 403.435C2438.95 418.097 2433.19 433.284 2421.67 445.328C2417.48 449.517 2420.62 454.754 2420.62 461.038C2416.96 458.943 2414.34 457.896 2410.68 455.801C2410.15 468.369 2402.82 472.035 2392.87 473.082C2390.78 473.082 2388.68 475.701 2382.4 483.032C2389.73 489.84 2388.16 479.89 2391.3 477.795C2392.87 480.414 2394.44 483.032 2396.01 485.127C2392.87 488.792 2390.26 491.411 2387.11 494.553C2375.59 490.363 2372.45 499.266 2367.22 506.073C2369.83 507.121 2371.93 508.692 2374.02 509.739C2373.5 510.786 2373.5 511.834 2372.98 511.834C2360.93 514.976 2348.89 517.594 2341.03 528.067C2339.99 529.638 2334.23 529.638 2332.13 528.591C2326.9 524.925 2320.61 529.115 2320.09 531.209C2318.52 538.017 2313.28 537.493 2308.57 539.064C2303.86 540.112 2299.15 543.777 2295.48 536.97C2287.1 539.588 2281.34 535.922 2275.58 530.686C2272.44 527.544 2265.63 525.973 2270.35 519.165C2270.87 518.641 2269.3 516.023 2268.25 514.976C2260.92 510.263 2254.64 504.502 2254.11 496.124C2253.07 489.316 2252.54 481.985 2253.07 474.653C2253.07 470.464 2253.59 466.275 2253.59 463.133C2249.4 458.943 2245.74 455.278 2241.55 451.088C2238.93 452.659 2235.79 455.278 2232.12 456.325C2228.98 457.372 2224.79 457.896 2221.13 458.42C2223.22 472.035 2211.7 469.94 2203.85 473.082C2201.75 479.89 2199.66 486.698 2191.28 490.887C2187.61 492.458 2185.52 497.695 2181.33 502.408C2177.67 502.931 2172.95 502.931 2166.67 503.455C2167.72 507.121 2168.24 510.263 2169.29 514.976C2164.58 516.023 2159.86 517.594 2154.63 519.165C2156.72 513.928 2158.29 508.168 2160.39 501.884C2150.96 500.837 2149.39 509.215 2142.58 512.881C2147.3 515.499 2150.96 517.07 2154.63 518.641C2154.1 520.212 2153.58 523.354 2152.53 523.354C2146.25 523.878 2139.97 524.402 2133.68 524.925C2131.59 524.925 2130.02 525.449 2125.3 525.449C2129.49 527.544 2131.06 528.591 2133.68 529.638C2125.83 536.97 2125.3 536.97 2119.54 531.733C2116.4 528.591 2116.4 528.591 2112.74 532.257C2110.64 534.351 2106.98 535.399 2103.84 536.97C2103.84 539.064 2103.31 541.683 2103.31 543.777C2102.26 544.301 2101.74 544.301 2100.69 544.825C2097.55 545.348 2094.41 540.112 2091.79 546.396C2090.74 548.49 2085.51 549.014 2081.32 550.061C2080.27 546.919 2079.75 544.301 2078.7 540.635C2077.13 542.73 2076.08 544.301 2074.51 546.919C2071.37 546.396 2067.71 545.348 2062.99 544.825C2063.52 539.064 2064.56 534.875 2060.38 530.162C2052.52 521.783 2051.47 510.263 2050.43 499.266C2049.9 492.982 2050.95 486.174 2045.19 480.937C2043.62 479.366 2044.67 475.701 2044.67 472.559C2044.14 460.514 2044.14 447.946 2043.62 433.807C2032.1 441.139 2023.72 446.375 2021.1 458.943C2017.44 476.224 2004.87 488.792 1993.88 501.36C1992.3 502.931 1990.73 503.979 1989.16 505.55C1979.21 515.499 1969.79 525.973 1959.32 535.399C1948.32 544.825 1936.8 553.727 1925.28 562.629C1911.67 573.103 1904.86 571.008 1891.25 559.487C1886.01 554.774 1880.25 547.443 1870.3 547.967C1868.21 547.967 1864.02 544.825 1863.49 542.206C1860.88 535.399 1858.78 528.067 1857.73 520.212C1855.64 503.455 1854.59 486.174 1852.5 469.417C1851.97 466.275 1848.31 463.133 1844.64 457.896C1844.12 459.467 1844.64 457.896 1844.64 456.325C1844.64 455.278 1844.12 453.707 1844.12 452.659C1843.07 452.659 1842.55 452.659 1842.03 453.183C1836.27 457.896 1830.51 462.609 1824.75 467.322C1824.22 467.322 1824.75 468.369 1824.22 468.369C1815.84 475.701 1813.75 479.89 1812.18 492.458C1810.09 489.316 1809.04 487.221 1807.99 485.127C1798.57 486.698 1807.47 492.458 1805.37 495.6C1803.28 499.266 1801.71 503.455 1799.61 507.644C1796.99 509.739 1793.33 512.357 1790.19 515.499C1784.43 522.307 1784.43 522.831 1774.48 522.831C1774.48 524.402 1774.48 525.973 1774.48 527.544C1774.48 529.115 1775.53 530.686 1775 530.162C1768.2 539.588 1762.44 547.967 1756.68 556.869C1751.44 565.248 1743.59 570.484 1735.21 574.674C1731.54 576.245 1727.88 578.339 1725.78 581.481C1721.07 588.813 1714.79 592.478 1705.36 594.049C1701.7 589.336 1697.51 584.623 1693.32 579.387C1677.09 583.576 1672.9 581.481 1664 567.866C1662.95 566.295 1660.85 565.248 1658.76 564.201C1657.71 563.677 1656.14 563.153 1655.62 562.629C1655.09 552.156 1647.76 544.301 1645.67 534.875C1643.05 524.925 1643.57 514.452 1643.05 503.979C1642.53 499.789 1642 495.076 1641.48 487.745C1631.53 499.789 1623.68 508.692 1616.35 518.118C1613.2 522.307 1611.11 527.544 1608.49 531.209C1606.4 533.828 1603.26 535.399 1601.16 537.493C1599.59 538.541 1596.97 539.588 1596.97 541.159C1594.35 553.203 1584.41 557.917 1576.03 564.201C1571.31 567.866 1566.6 571.008 1564.51 577.816C1562.41 575.197 1560.84 572.055 1558.75 569.437C1558.22 569.437 1557.7 569.961 1557.18 569.961C1558.22 574.15 1559.27 578.339 1560.32 582.529C1552.46 586.195 1545.13 590.384 1538.33 594.049C1536.23 597.715 1533.61 600.857 1527.85 603.476C1519.48 607.141 1512.67 611.33 1503.24 607.665C1502.2 607.141 1500.63 607.141 1499.58 606.617C1494.87 603.999 1491.72 599.81 1484.39 600.333C1480.21 600.857 1476.02 593.526 1470.26 594.573C1469.73 594.573 1468.69 593.002 1467.64 592.478C1457.69 577.292 1445.65 563.153 1439.36 545.348C1435.7 533.828 1434.65 521.783 1438.32 510.263C1441.46 501.36 1443.55 491.934 1447.22 483.032C1450.36 474.653 1448.26 467.846 1444.6 457.896C1441.98 463.133 1439.89 466.275 1437.79 470.464C1434.65 470.988 1430.46 472.035 1426.8 472.559C1430.98 467.322 1434.65 462.085 1429.94 454.23C1423.65 459.991 1422.08 466.275 1424.7 473.082C1421.04 472.035 1416.85 471.511 1412.13 470.464C1416.32 475.701 1419.47 480.414 1423.13 485.127C1417.37 491.411 1412.13 496.647 1406.9 501.884C1406.37 501.36 1405.33 500.837 1404.8 500.313C1405.85 497.171 1407.42 493.505 1408.47 489.84C1400.62 486.698 1401.14 496.124 1395.38 497.171C1397.47 499.789 1399.04 500.837 1400.62 502.931C1397.47 505.026 1394.33 506.597 1391.19 508.692C1391.71 510.263 1392.24 511.31 1393.28 512.881C1385.43 519.689 1377.05 525.973 1369.2 532.78C1364.49 536.446 1364.49 536.97 1356.63 536.446C1351.92 548.49 1344.06 557.393 1334.12 565.771C1321.55 575.721 1310.03 586.718 1298.51 597.715C1291.7 604.523 1285.42 612.378 1280.18 620.233C1277.56 624.422 1274.42 626.517 1269.19 628.088C1271.28 630.182 1272.33 631.753 1274.42 633.848C1268.14 638.561 1261.86 643.274 1254.53 648.511C1256.62 655.318 1249.29 656.889 1244.58 660.031C1248.24 667.886 1244.05 683.596 1237.25 686.738C1232.53 688.833 1229.39 689.357 1233.06 695.117C1233.58 695.641 1233.58 696.688 1233.58 696.688C1222.06 704.019 1229.92 719.206 1219.97 726.537C1223.11 728.108 1224.68 729.155 1226.25 730.203C1218.92 732.821 1213.16 739.629 1212.11 748.007C1211.07 754.291 1214.73 757.957 1221.54 759.528C1208.97 768.43 1211.07 785.188 1199.02 793.566C1200.59 788.33 1201.64 783.093 1203.73 776.286C1193.26 779.951 1198.5 790.948 1190.64 794.09C1193.26 797.756 1195.36 799.85 1197.97 802.992C1197.45 804.04 1196.4 804.563 1195.88 805.611C1193.26 811.895 1190.12 817.655 1188.03 823.939C1182.79 839.649 1174.94 853.264 1161.32 863.214C1157.13 876.829 1143.52 883.114 1138.81 896.729C1135.66 905.108 1130.43 912.962 1126.24 920.817C1125.71 921.865 1123.62 921.865 1122.05 922.388C1118.91 915.057 1127.29 910.868 1125.72 901.966C1121.53 911.392 1117.86 918.199 1114.72 925.531C1112.62 930.244 1110.01 933.909 1104.77 936.004C1097.96 938.099 1094.82 942.811 1093.25 950.666C1092.73 952.237 1092.73 954.856 1091.68 955.379C1082.25 960.092 1075.45 968.995 1063.93 971.613C1046.65 975.802 1030.42 971.613 1012.09 969.518C1013.66 966.377 1014.71 964.282 1015.76 961.14C1014.71 956.427 1010.52 954.856 1005.81 954.332C991.145 952.761 978.054 949.095 968.106 937.051C965.488 933.909 961.299 932.862 957.633 930.767C953.968 928.673 950.303 926.578 946.637 924.483C946.114 925.53 945.066 927.102 944.543 928.149C943.496 927.625 941.925 927.625 940.877 927.101C930.405 920.817 919.409 914.533 908.937 908.773C904.224 906.155 901.082 903.013 904.224 896.729C907.889 888.874 909.984 880.495 914.173 873.164C916.267 869.498 920.456 866.88 924.122 864.261C926.74 862.167 929.358 860.596 932.5 857.977C929.881 855.883 928.834 854.835 926.74 853.264C931.976 840.696 936.165 827.081 946.637 816.608C949.255 813.989 948.732 808.753 950.826 805.611C959.728 792.519 968.629 779.427 977.531 766.859C979.102 764.765 983.291 763.717 986.432 762.146C986.432 760.575 985.385 757.957 985.909 756.386C996.381 741.723 1008.42 727.584 1023.61 717.111C1025.7 715.54 1028.85 716.064 1031.46 715.016C1034.61 713.969 1037.22 712.398 1041.41 710.303C1037.75 708.732 1036.18 708.209 1034.08 707.161C1039.32 702.448 1043.51 698.259 1048.22 694.594C1052.93 691.451 1058.69 688.833 1066.02 685.167C1067.07 683.073 1070.21 677.836 1072.83 672.599C1077.54 675.741 1080.68 678.36 1085.92 682.026C1084.87 676.265 1084.35 673.123 1083.83 668.41C1089.06 657.937 1101.63 660.031 1112.1 655.842C1111.58 656.366 1112.1 655.842 1112.1 655.842C1108.96 647.464 1115.24 644.845 1120.48 642.227C1134.62 633.848 1142.47 622.328 1143.52 606.094C1143.52 603.999 1144.04 601.381 1145.09 599.286C1148.75 588.289 1152.42 577.292 1156.08 566.295C1157.66 561.058 1159.75 556.346 1161.32 551.109C1162.37 547.443 1162.89 543.254 1163.94 539.588C1163.94 539.064 1163.42 537.493 1163.42 537.493C1169.7 533.304 1167.6 524.402 1172.32 519.165C1172.84 521.26 1173.89 523.354 1174.41 525.449C1174.94 525.449 1175.46 525.449 1176.51 525.449C1177.03 523.354 1177.55 520.736 1178.08 518.118C1175.46 518.641 1173.89 519.165 1172.32 519.165C1168.65 511.834 1176.51 507.121 1177.03 498.742C1182.27 500.837 1185.93 502.931 1191.17 505.026C1190.12 498.218 1187.5 493.505 1178.6 494.553C1182.79 489.316 1185.93 485.65 1189.07 481.461C1180.69 483.556 1176.51 490.363 1172.32 496.647C1170.22 499.789 1167.6 502.931 1164.46 505.55C1160.8 509.215 1156.61 513.405 1152.94 517.07C1149.28 520.212 1145.61 523.354 1142.47 527.02C1139.33 530.162 1137.23 534.351 1134.62 538.017C1130.95 543.777 1129.38 551.109 1122.57 554.774C1120.48 555.822 1120.48 560.011 1118.91 564.201C1115.24 564.201 1111.05 564.724 1105.29 564.724C1106.34 576.768 1098.49 580.434 1088.01 583.052C1081.21 585.147 1074.4 588.289 1068.12 591.431C1069.16 595.097 1069.69 597.191 1071.26 601.904C1066.02 598.239 1063.4 596.668 1059.74 594.049C1057.64 595.097 1054.5 597.191 1050.84 597.191C1048.22 597.715 1044.03 596.668 1042.46 595.097C1036.18 588.289 1030.94 580.434 1024.66 572.055C1028.32 568.914 1031.46 566.295 1034.08 563.677C1034.61 569.437 1037.75 569.961 1042.46 565.771C1039.84 565.248 1036.7 564.724 1034.08 563.677C1034.61 562.629 1036.18 561.058 1036.18 561.058C1031.99 556.345 1033.56 550.585 1033.03 545.348C1032.51 536.97 1025.7 532.78 1019.94 527.02C1023.09 523.354 1026.75 519.165 1022.56 513.405C1018.9 508.168 1016.28 502.931 1013.66 497.171C1011.57 491.934 1010 486.174 1009.47 480.414C1007.9 455.801 1007.38 431.189 1005.28 406.577C1004.24 392.438 1002.66 378.299 1000.05 364.683C995.334 336.405 994.287 308.127 996.381 279.849C996.905 273.565 997.428 266.758 997.952 259.426C1000.57 257.332 1004.24 255.761 1007.38 252.619C1010.52 248.953 1013.14 244.764 1018.37 246.335C1024.66 247.906 1031.99 249.477 1036.18 253.666C1040.89 258.379 1043.51 262.045 1051.36 260.474C1058.17 259.426 1061.31 265.187 1058.69 271.994C1054.5 282.468 1058.69 291.894 1062.88 300.272C1065.5 305.509 1069.69 309.698 1073.35 313.888C1077.54 318.601 1079.64 323.314 1074.92 329.074C1073.35 330.645 1072.83 333.787 1073.35 335.882C1077.54 352.639 1073.88 369.92 1077.54 386.154C1077.54 387.201 1078.07 387.725 1077.54 388.772C1071.78 399.769 1078.59 411.29 1077.54 422.287C1076.49 433.284 1081.73 441.139 1091.68 447.946C1095.87 442.186 1100.58 436.949 1104.25 431.189C1108.44 424.905 1110.53 418.097 1118.91 413.908C1123.1 411.813 1124.67 404.482 1127.29 399.245C1127.81 398.198 1127.29 397.151 1127.29 396.103C1135.66 396.627 1131.47 389.819 1133.57 386.154C1137.23 380.393 1140.38 375.157 1144.04 369.396C1159.23 347.402 1174.41 324.885 1189.07 302.891C1196.4 291.894 1202.69 279.849 1209.49 268.329C1215.78 257.855 1222.06 246.858 1228.87 236.385C1233.58 229.577 1247.19 225.912 1254.53 229.577C1261.33 233.243 1268.14 233.767 1275.47 231.672C1282.28 230.101 1288.56 231.148 1294.84 234.29C1300.08 236.909 1306.36 238.48 1312.12 240.574C1317.36 247.906 1318.41 259.95 1331.5 262.045C1328.88 265.71 1326.26 268.329 1324.69 270.947C1325.74 275.66 1326.26 280.373 1327.31 286.133C1329.93 287.704 1333.59 289.799 1337.26 291.894C1337.26 292.941 1337.26 293.988 1337.26 294.512C1332.54 295.559 1327.31 296.607 1322.6 297.654C1322.6 306.556 1322.6 314.935 1322.6 324.361C1320.5 324.361 1317.36 324.361 1313.17 324.361C1316.31 332.74 1319.45 340.595 1322.6 348.973C1318.41 349.497 1313.69 349.497 1307.41 350.021C1314.22 359.97 1302.7 370.967 1312.12 379.346C1311.6 380.917 1311.6 381.964 1310.55 381.964C1297.46 388.772 1301.65 402.387 1297.46 412.861C1295.37 418.097 1296.41 423.858 1292.23 429.094C1290.65 430.665 1293.8 436.949 1292.23 437.473C1284.9 442.186 1288.04 450.565 1284.9 456.849C1284.37 457.372 1285.42 458.42 1285.42 460.514C1288.56 458.943 1291.18 457.372 1293.8 455.801C1294.32 456.325 1294.84 456.849 1295.37 457.372C1291.18 463.133 1286.99 468.893 1281.75 475.177C1282.8 477.272 1285.42 480.937 1288.04 485.127C1290.13 483.556 1292.23 483.032 1293.8 481.461C1312.65 462.085 1332.02 443.233 1350.35 422.81C1376 393.485 1401.66 364.16 1430.98 338.5C1446.17 325.408 1463.45 314.935 1479.68 303.938C1489.63 297.13 1500.63 292.417 1510.58 285.61C1514.76 282.991 1517.91 277.755 1521.57 274.089C1524.19 271.471 1527.33 267.281 1531 266.758C1539.9 264.663 1549.32 263.616 1560.32 262.045C1561.37 269.9 1561.89 278.278 1563.46 288.752C1568.17 291.894 1578.12 293.465 1579.17 304.462C1579.69 312.317 1581.26 320.172 1582.83 328.55C1583.36 328.55 1585.45 328.55 1588.07 328.55C1588.59 336.405 1581.26 331.692 1578.12 336.405C1578.12 355.257 1566.08 370.444 1556.65 387.201C1552.46 395.056 1551.94 395.056 1541.99 397.674C1543.56 399.769 1545.13 401.34 1545.13 401.34C1541.47 406.577 1538.33 411.29 1534.66 416.526C1535.71 419.145 1537.28 422.81 1539.37 428.047C1534.66 427.523 1532.57 427 1528.9 427C1526.28 434.855 1523.67 442.186 1521.05 451.088C1522.09 452.659 1524.19 454.754 1526.28 456.849C1522.62 459.467 1518.95 461.562 1515.81 463.656C1516.86 474.13 1515.29 484.079 1506.91 494.553C1505.86 490.363 1504.82 487.745 1503.77 484.603C1498.01 488.792 1500.63 493.505 1500.63 497.695C1492.77 495.6 1495.91 502.931 1493.3 505.026C1494.34 505.55 1494.87 506.073 1495.91 506.597C1497.48 503.455 1499.06 500.313 1500.63 497.695C1506.39 496.124 1509 499.789 1510.05 505.026C1521.57 498.742 1527.85 488.269 1534.14 479.366C1548.28 458.943 1561.89 437.473 1576.03 417.05C1592.26 394.009 1609.54 371.491 1625.25 347.926C1638.86 327.503 1651.43 306.556 1665.04 285.61C1673.42 272.518 1682.32 259.95 1690.7 247.382C1693.32 243.193 1694.89 238.48 1697.51 234.29C1703.27 224.864 1716.36 222.77 1725.26 229.054C1727.35 230.625 1729.45 232.719 1734.16 236.909C1737.3 232.196 1739.92 228.006 1742.01 224.341C1749.35 224.864 1755.63 225.388 1761.91 225.912C1771.86 226.959 1776.05 235.338 1778.67 242.669C1780.24 247.906 1782.86 251.571 1787.05 254.713C1797.52 263.092 1795.95 268.329 1795.42 281.42C1794.9 292.941 1789.66 302.367 1789.66 313.364C1789.66 317.03 1788.09 320.695 1786.52 323.837C1784.43 329.598 1782.86 336.929 1778.67 339.547C1772.91 343.213 1772.38 348.973 1769.77 353.686C1769.24 354.734 1768.72 356.305 1767.67 356.828C1758.25 359.97 1757.72 369.396 1755.11 376.728C1752.49 383.535 1750.92 390.867 1745.68 396.627C1743.06 399.769 1740.97 403.958 1740.97 408.148C1740.44 414.432 1736.78 417.05 1731.02 419.668C1723.69 422.81 1723.16 424.905 1725.26 432.76C1723.16 434.855 1721.59 436.949 1719.5 438.52C1720.55 439.044 1721.07 439.568 1722.12 440.615C1723.69 438.52 1725.26 435.902 1726.83 433.807C1726.31 433.284 1725.26 433.284 1724.74 432.76C1726.31 430.665 1727.88 427.523 1729.97 427.523C1738.35 427.523 1741.49 421.763 1746.73 417.05C1757.72 407.624 1760.86 392.961 1772.91 384.059C1784.43 375.68 1793.85 363.636 1804.85 354.734C1827.89 335.358 1850.93 315.459 1875.01 297.13C1896.48 280.897 1920.05 269.376 1945.18 258.903C1959.84 253.142 1974.5 247.382 1989.16 241.098C1991.78 240.051 1993.88 236.909 1995.97 234.814C2002.78 239.003 2010.63 239.003 2013.77 232.719C2016.39 227.483 2020.58 224.341 2025.29 221.199C2026.34 220.675 2027.91 219.104 2027.91 217.533C2030.53 195.015 2040.48 175.116 2048.86 154.169C2054.09 140.554 2057.76 126.415 2062.47 112.8C2065.09 104.945 2069.28 97.6134 2070.85 89.2347C2074.51 74.5721 2076.61 59.9094 2080.27 45.2468C2083.41 32.6788 2086.56 20.1107 2090.74 8.06639C2092.32 3.87705 2095.46 0.21142 2101.22 0.735087C2108.02 1.25875 2114.83 1.78239 2123.73 2.82972C2124.26 9.63739 2125.3 16.9688 2125.83 24.3001C2126.35 36.3444 2125.83 48.3887 2126.35 60.4331C2126.87 75.0957 2123.21 88.7111 2121.64 102.85C2120.07 117.513 2115.88 133.223 2123.73 148.933C2127.4 155.74 2128.97 164.643 2123.21 172.498C2122.16 173.545 2122.69 175.64 2122.69 177.211C2126.87 196.063 2122.16 214.391 2119.54 232.196C2117.97 241.098 2112.74 250 2110.64 259.95C2109.07 265.71 2106.98 271.471 2104.88 276.707C2108.55 278.278 2110.64 279.326 2113.78 280.373C2109.6 282.468 2106.98 283.515 2103.84 285.086C2103.84 286.133 2103.31 287.181 2103.31 287.704C2110.64 297.13 2106.45 307.604 2106.45 317.03C2105.93 339.547 2101.74 362.065 2098.08 384.583C2097.55 388.248 2097.55 391.914 2097.55 396.103C2094.93 397.674 2092.32 399.245 2088.65 401.34C2091.27 402.387 2093.36 402.911 2096.5 403.958C2095.46 408.148 2094.41 412.337 2092.84 416.526C2090.75 421.763 2085.51 427 2092.32 432.76C2092.84 433.284 2091.27 436.426 2091.27 437.997C2089.7 444.281 2088.65 450.565 2088.13 457.896C2092.84 450.565 2097.55 444.281 2108.02 445.852C2108.55 447.423 2109.6 449.517 2110.64 452.659C2116.4 449.517 2122.69 445.852 2129.49 442.186C2122.69 439.044 2116.93 450.041 2111.17 440.615C2119.54 435.378 2130.54 441.662 2137.87 433.284C2143.63 426.476 2150.44 420.192 2156.72 413.384C2154.1 411.29 2152.01 409.195 2148.34 406.053C2154.63 406.053 2158.82 406.053 2161.96 406.053C2166.67 407.1 2168.76 402.911 2167.72 397.674C2168.24 397.674 2167.72 397.674 2167.72 397.674ZM2348.89 435.378C2352.55 429.618 2357.27 424.905 2359.36 418.621C2363.03 406.577 2365.64 394.009 2368.79 381.964C2355.7 378.822 2355.7 378.822 2350.98 391.39C2350.46 391.914 2349.94 393.485 2349.94 393.485C2342.08 391.914 2345.75 399.769 2342.08 402.911C2341.56 400.293 2340.51 397.674 2339.46 394.009C2334.23 402.911 2339.99 408.671 2340.51 416.003C2338.42 416.526 2336.32 417.574 2334.23 418.097C2334.23 421.239 2333.7 424.381 2333.7 427.523C2330.56 426.476 2328.47 425.952 2325.85 425.429C2321.14 436.426 2332.13 433.807 2335.8 436.949C2335.8 440.091 2335.8 442.71 2335.8 445.852C2329.52 443.233 2323.76 441.139 2317.47 439.044C2314.85 446.375 2314.85 446.375 2316.42 452.659C2307.52 461.038 2306.48 470.988 2312.76 483.556C2325.33 478.319 2345.22 458.42 2348.37 446.899C2348.89 442.71 2348.89 439.044 2348.89 435.378C2349.41 434.855 2348.89 435.378 2348.89 435.378ZM1906.95 410.766C1904.86 419.145 1901.72 425.429 1902.24 430.665C1903.29 439.044 1900.15 446.375 1895.96 452.659C1889.15 463.656 1891.77 473.606 1894.39 486.174C1904.34 479.366 1913.24 474.13 1921.62 467.846C1937.32 456.325 1944.13 438.52 1953.56 422.287C1952.51 410.766 1963.51 400.293 1954.08 389.819C1959.32 382.488 1963.51 376.204 1968.22 369.92C1967.17 368.873 1966.12 368.349 1965.6 367.302C1961.93 375.68 1952.51 377.251 1948.32 386.154C1944.13 394.009 1937.32 402.387 1925.8 400.293C1925.28 400.293 1924.23 400.816 1923.71 400.816C1923.19 402.911 1922.66 404.482 1922.66 405.529C1915.86 408.148 1910.62 409.719 1906.95 410.766ZM999.523 889.921C1002.66 889.397 1006.85 887.826 1011.04 887.826C1018.9 887.826 1023.61 884.161 1026.23 876.829C1027.8 873.164 1029.37 870.022 1030.94 866.88C1036.18 856.406 1040.89 845.933 1046.65 835.984C1056.07 819.226 1065.5 802.992 1074.92 786.759C1075.97 785.188 1075.97 782.569 1076.49 780.475C1073.35 782.569 1072.31 785.711 1069.69 787.282C1056.6 795.137 1044.55 803.516 1035.65 816.608C1028.85 826.557 1019.42 835.46 1013.66 846.457C1008.95 855.359 1003.71 863.214 998.476 871.593C995.857 875.258 990.621 883.113 999.523 889.921ZM1649.86 444.281C1638.34 458.943 1626.82 471.511 1617.39 487.221C1627.87 487.745 1629.44 480.937 1632.58 475.177C1637.81 465.751 1649.33 459.467 1649.86 444.281ZM2368.26 369.396C2363.55 369.396 2359.89 369.396 2354.13 369.396C2360.93 374.633 2366.69 376.728 2371.4 373.062C2373.5 371.491 2374.55 365.731 2372.98 363.112C2369.83 357.876 2365.12 358.923 2359.89 362.065C2362.5 364.683 2365.12 366.778 2368.26 369.396ZM1713.74 465.227C1712.69 459.467 1712.17 454.754 1711.12 450.041C1710.07 457.372 1698.55 461.038 1703.27 470.988C1707.46 468.893 1710.6 467.322 1713.74 465.227ZM2589.23 437.997C2593.42 441.139 2596.56 444.281 2600.75 447.423C2602.32 444.281 2603.37 441.662 2604.42 438.52C2599.18 439.044 2595.51 433.807 2589.23 437.997ZM1330.45 541.159C1335.69 541.683 1331.5 555.822 1341.97 549.538C1337.78 539.064 1337.78 539.064 1330.45 541.159ZM1622.63 498.218C1612.16 496.124 1612.16 496.124 1609.54 503.979C1613.73 502.408 1617.92 500.313 1622.63 498.218ZM1171.27 549.538C1174.94 545.872 1178.6 542.73 1181.74 539.064C1180.69 538.017 1179.65 536.97 1178.6 535.922C1172.84 537.493 1175.46 547.443 1171.27 549.538ZM1376.53 508.692C1376 505.026 1375.48 501.884 1374.96 498.742C1373.91 498.742 1373.39 498.742 1372.34 498.742C1371.82 501.884 1371.29 505.55 1370.25 509.215C1373.39 508.692 1374.96 508.692 1376.53 508.692ZM1348.25 524.925C1347.21 524.402 1346.16 524.402 1345.11 523.878C1344.06 527.02 1343.54 530.686 1342.49 533.828C1343.54 533.828 1344.06 534.351 1345.11 534.351C1346.16 531.733 1347.21 528.591 1348.25 524.925ZM2416.44 436.949C2414.87 434.855 2413.82 432.76 2411.72 430.142C2408.06 435.902 2410.15 437.997 2416.44 436.949ZM1170.22 838.078C1171.27 838.602 1171.79 839.125 1172.84 839.649C1174.94 836.507 1179.12 833.889 1175.46 826.557C1173.36 831.27 1171.79 834.412 1170.22 838.078ZM2167.19 492.458C2169.81 494.029 2171.91 494.553 2174.52 496.124C2174.52 492.982 2174 490.887 2174 487.745C2170.86 489.316 2169.29 490.363 2167.19 492.458ZM1190.12 526.496C1190.64 520.736 1188.55 518.641 1182.79 521.783C1185.93 523.878 1188.03 524.925 1190.12 526.496ZM2091.27 389.819C2089.7 388.772 2088.65 387.725 2088.13 387.725C2087.08 387.725 2086.03 388.772 2085.51 389.819C2086.56 390.867 2087.6 391.914 2089.17 391.914C2089.17 391.914 2090.22 390.867 2091.27 389.819ZM1389.1 487.221C1388.57 488.269 1387.52 488.792 1387 489.84C1388.57 490.887 1390.67 491.934 1392.24 492.982C1392.24 492.982 1393.28 491.934 1393.81 491.411C1392.24 489.84 1390.67 488.792 1389.1 487.221ZM1184.36 527.544C1183.31 527.02 1182.27 527.02 1181.22 526.496C1180.69 528.591 1180.7 530.686 1180.17 532.78C1180.7 532.78 1181.74 533.304 1182.27 533.304C1182.79 531.209 1183.84 529.115 1184.36 527.544ZM1356.11 522.307C1356.11 522.831 1355.58 523.878 1355.58 524.402C1357.15 524.925 1359.25 524.925 1360.82 525.449C1360.82 524.925 1361.34 524.402 1361.34 523.878C1359.77 523.354 1357.68 522.831 1356.11 522.307Z" fill="black"/>
<path d="M1724.73 1235.54C1724.21 1238.16 1723.69 1240.78 1723.16 1243.39C1725.78 1243.39 1730.49 1244.44 1731.02 1243.39C1734.68 1237.11 1739.4 1243.39 1743.06 1241.3C1750.91 1230.3 1762.43 1222.97 1773.43 1215.64C1777.62 1213.02 1780.76 1210.4 1784.43 1206.74C1794.38 1196.79 1805.37 1187.89 1815.84 1178.98C1821.6 1174.27 1827.36 1170.08 1832.6 1164.84C1865.59 1132.9 1899.62 1102 1934.18 1071.63C1945.7 1061.16 1956.7 1050.69 1970.31 1043.35C1976.07 1040.21 1980.26 1034.98 1984.97 1029.74C1997.02 1016.12 2008.01 1001.98 2020.05 988.892C2028.96 978.943 2037.33 977.372 2050.95 982.608C2053.57 983.656 2056.71 982.608 2059.33 983.132C2068.75 985.75 2078.18 979.466 2087.6 983.656C2089.7 984.703 2093.36 981.037 2096.5 979.466C2098.07 982.608 2099.12 984.703 2100.69 987.321C2098.07 990.463 2095.46 993.605 2092.84 996.747C2093.36 997.271 2093.89 997.795 2094.41 998.318C2097.55 996.224 2100.17 994.653 2102.79 992.558C2105.4 990.463 2107.5 988.369 2111.69 985.227C2111.69 988.369 2112.21 990.463 2111.69 991.511C2103.31 1003.55 2102.79 1009.84 2111.16 1022.41C2112.74 1025.03 2114.31 1027.12 2116.4 1029.74C2120.07 1028.17 2123.21 1027.12 2128.97 1025.03C2122.16 1037.59 2129.49 1047.54 2130.54 1058.54C2131.59 1070.06 2136.3 1080.01 2142.06 1089.44C2146.25 1096.24 2150.96 1102.53 2152.01 1111.43C2152.53 1116.67 2156.2 1121.38 2164.57 1119.29C2161.96 1124.52 2160.39 1127.66 2158.29 1131.85C2159.86 1133.95 2161.96 1136.04 2163.53 1138.14C2166.67 1137.09 2169.81 1136.57 2173.48 1135.52C2174 1136.57 2175.05 1137.61 2175.57 1138.66C2178.71 1144.42 2178.71 1151.23 2186.04 1154.37C2187.09 1154.89 2188.14 1160.13 2187.09 1160.66C2184.47 1162.23 2181.33 1162.23 2179.24 1162.75C2179.76 1166.42 2180.28 1170.6 2181.33 1175.84C2184.47 1174.27 2188.14 1172.18 2192.33 1170.08C2194.94 1174.79 2201.23 1177.41 2197.04 1184.74C2196.51 1185.79 2198.09 1189.46 2199.66 1189.98C2207.51 1194.17 2206.99 1200.98 2205.94 1206.21C2209.08 1212.5 2211.18 1217.73 2214.32 1222.45C2217.46 1227.16 2221.12 1231.87 2224.27 1236.06C2222.7 1240.25 2221.12 1244.44 2219.03 1250.2C2232.12 1248.63 2238.93 1255.96 2246.78 1262.25C2250.45 1264.86 2254.11 1268.01 2258.3 1269.05C2279.25 1275.34 2300.19 1281.62 2321.66 1286.34C2346.27 1291.57 2370.88 1294.71 2396.01 1297.86C2404.39 1298.9 2413.29 1299.95 2422.19 1299.95C2426.38 1299.95 2431.1 1301.52 2435.28 1297.86C2436.86 1296.28 2442.62 1297.33 2444.71 1298.9C2449.42 1304.14 2455.18 1302.57 2460.94 1302.57C2488.17 1302.57 2515.4 1302.04 2542.1 1303.09C2563.05 1304.14 2581.37 1312.52 2599.18 1322.99C2607.03 1327.7 2613.84 1334.51 2624.31 1335.56C2629.55 1336.08 2632.17 1341.32 2630.07 1347.08C2623.79 1368.55 2618.03 1390.02 2610.17 1410.44C2607.56 1417.78 2599.18 1423.54 2593.94 1429.82C2589.75 1434.53 2586.09 1440.82 2578.23 1442.39C2577.19 1440.29 2576.14 1438.2 2575.09 1436.63C2563.05 1437.67 2553.1 1440.82 2547.86 1454.43C2534.77 1451.81 2522.21 1449.2 2509.64 1446.05C2507.54 1445.53 2505.97 1441.34 2503.88 1438.72C2498.64 1438.72 2492.88 1438.72 2487.12 1438.72C2486.08 1435.58 2486.08 1430.87 2483.98 1430.34C2478.75 1428.25 2471.94 1425.63 2467.23 1427.2C2459.37 1430.34 2452.04 1428.25 2444.71 1428.77C2430.05 1429.3 2414.86 1431.39 2400.2 1427.73C2395.49 1426.68 2389.73 1429.3 2383.45 1429.82C2380.31 1420.92 2371.4 1422.49 2364.6 1422.49C2344.7 1422.49 2325.33 1418.3 2307.52 1410.97C2297.05 1406.78 2287.62 1404.16 2277.15 1409.4C2268.77 1394.73 2254.11 1392.64 2239.45 1389.5C2235.79 1382.69 2228.46 1379.55 2220.6 1376.41C2208.56 1371.17 2197.04 1364.36 2185.52 1358.08C2181.33 1355.98 2177.14 1354.41 2172.95 1352.32C2168.76 1350.22 2165.1 1347.6 2159.34 1344.46C2155.15 1343.94 2149.39 1342.89 2142.06 1342.37C2143.11 1339.23 2143.63 1337.65 2144.15 1336.08C2143.63 1335.56 2143.63 1335.04 2143.11 1335.04C2133.16 1335.56 2130.54 1324.04 2121.64 1322.47C2116.92 1321.42 2114.31 1317.76 2112.21 1311.99C2111.69 1310.42 2098.6 1305.71 2096.5 1306.76C2091.79 1308.33 2087.6 1309.9 2081.84 1311.47C2082.89 1302.04 2092.31 1306.76 2093.89 1301C2088.65 1294.19 2088.65 1294.19 2078.18 1301C2081.32 1293.67 2082.89 1288.43 2085.51 1282.67C2082.37 1283.19 2079.75 1283.72 2076.08 1284.76C2072.94 1280.57 2069.8 1275.86 2066.13 1271.15C2063.52 1271.67 2059.33 1273.24 2054.61 1274.29C2052.52 1276.39 2055.14 1283.72 2046.76 1282.15C2046.76 1280.57 2045.71 1277.43 2046.24 1276.39C2055.14 1268.53 2050.42 1257.53 2054.09 1247.58C2051.47 1248.63 2049.9 1248.63 2048.33 1250.2C2039.95 1258.58 2032.1 1267.48 2022.67 1275.34C2018.48 1279 2014.82 1282.67 2008.54 1284.24C2005.92 1280.05 2002.78 1281.1 2000.16 1283.72C1997.54 1286.86 1995.44 1290.52 1993.35 1294.19C1993.87 1294.71 1994.4 1294.71 1994.92 1295.24C1999.63 1291.57 2004.35 1287.38 2008.54 1283.72C2004.87 1290.52 2001.2 1297.33 1998.59 1302.05C1989.69 1306.23 1982.88 1308.33 1976.07 1311.99C1970.31 1315.14 1965.07 1318.8 1969.79 1327.18C1965.07 1328.23 1961.93 1329.8 1958.27 1329.8C1950.41 1329.8 1943.08 1331.89 1939.94 1339.75C1936.8 1347.08 1930.52 1347.08 1924.23 1347.6C1918.47 1348.13 1912.71 1347.08 1907.48 1348.65C1897.53 1351.27 1889.15 1344.99 1880.77 1345.51C1875.01 1335.04 1869.78 1325.61 1864.54 1315.14C1867.16 1313.57 1869.25 1312.52 1871.35 1311.47C1870.82 1310.42 1870.3 1309.38 1869.78 1308.33C1858.26 1300.47 1853.02 1288.95 1849.88 1276.39C1849.36 1273.77 1850.4 1270.63 1850.93 1268.53C1851.97 1265.91 1853.54 1263.29 1854.07 1259.63C1851.97 1260.68 1848.83 1261.2 1848.31 1263.29C1845.17 1270.63 1840.98 1276.39 1832.08 1279C1829.46 1279.53 1827.36 1283.72 1826.32 1286.86C1823.17 1293.67 1815.32 1293.67 1811.13 1298.9C1812.7 1300.47 1813.75 1301.52 1814.8 1302.57C1814.27 1303.09 1814.27 1304.14 1813.75 1304.66C1809.56 1307.28 1805.37 1309.9 1801.71 1313.04C1794.38 1318.8 1787.04 1324.56 1776.57 1324.56C1771.86 1324.56 1766.1 1327.7 1761.91 1330.85C1751.44 1339.75 1739.4 1343.41 1726.3 1345.51C1719.5 1346.56 1708.5 1341.32 1705.36 1334.51C1700.12 1323.52 1695.93 1312.52 1690.7 1301.52C1689.65 1298.9 1687.56 1296.81 1685.46 1294.71C1676.04 1286.86 1671.32 1276.39 1669.75 1264.34C1669.23 1260.68 1668.18 1257.01 1666.61 1251.77C1658.23 1256.49 1657.71 1262.77 1659.28 1270.1C1645.67 1269.05 1642 1278.48 1635.72 1288.95C1646.19 1287.91 1643.57 1276.39 1651.95 1275.34C1651.95 1277.43 1652.47 1280.05 1651.95 1281.62C1649.86 1286.34 1647.24 1291.05 1644.62 1295.24C1643.05 1297.86 1640.95 1299.95 1638.86 1302.57C1637.29 1299.95 1635.19 1297.86 1633.1 1294.71C1632.05 1297.86 1631.01 1301 1629.43 1304.66C1632.58 1305.19 1635.19 1305.71 1637.29 1305.71C1633.62 1318.28 1633.62 1318.28 1622.63 1319.85C1623.15 1321.42 1623.15 1323.52 1624.2 1324.04C1625.25 1325.09 1627.34 1325.09 1628.39 1326.13C1623.68 1329.8 1619.49 1328.75 1617.39 1333.47C1611.11 1349.7 1596.45 1359.12 1585.97 1372.22C1584.93 1373.79 1582.31 1374.83 1580.74 1374.31C1572.88 1371.69 1569.74 1376.93 1566.6 1382.17C1559.79 1393.16 1550.37 1399.97 1538.33 1403.64C1532.57 1405.21 1532.04 1409.92 1532.57 1414.63C1533.09 1419.35 1530.99 1420.39 1526.81 1419.87C1526.28 1418.3 1525.76 1417.25 1524.71 1414.11C1521.05 1419.35 1514.24 1420.92 1515.29 1428.25C1519.48 1425.11 1523.14 1422.49 1526.81 1419.35C1526.81 1420.92 1527.85 1423.54 1526.81 1424.58C1523.66 1428.77 1520 1432.96 1516.33 1436.1C1515.29 1436.63 1510.57 1434.53 1509.53 1432.96C1506.38 1426.15 1505.34 1418.82 1497.48 1415.16C1496.44 1414.63 1495.39 1411.49 1495.91 1409.4C1497.48 1402.07 1488.58 1402.59 1487.53 1396.83C1487.01 1392.12 1485.44 1386.36 1482.3 1383.21C1478.11 1379.02 1472.35 1376.41 1466.59 1372.74C1462.92 1337.13 1458.74 1301.52 1455.07 1263.29C1451.93 1264.86 1448.79 1265.39 1447.74 1266.96C1446.17 1269.05 1446.17 1272.72 1445.12 1275.34C1443.03 1280.57 1438.31 1285.81 1438.31 1291.05C1438.84 1299.95 1430.98 1296.81 1427.84 1300.47C1418.42 1313.57 1408.47 1326.13 1398.52 1339.23C1390.14 1349.7 1378.62 1358.08 1369.2 1367.5C1361.34 1375.36 1352.96 1382.17 1341.44 1384.78C1336.21 1385.83 1332.02 1390.54 1325.74 1394.21C1316.31 1394.21 1308.98 1388.97 1304.79 1379.02C1298.51 1365.41 1288.56 1352.84 1287.51 1337.13C1286.99 1333.46 1285.42 1329.8 1282.8 1327.18C1273.37 1317.76 1271.8 1307.28 1276.52 1295.24C1277.56 1292.62 1277.56 1289.48 1278.09 1285.29C1261.85 1294.71 1261.33 1313.04 1247.72 1323.52C1251.91 1325.09 1254.52 1326.13 1257.14 1327.18C1251.91 1330.32 1247.19 1333.47 1242.48 1336.61C1237.77 1340.27 1233.58 1343.94 1242.48 1351.27C1231.48 1351.27 1227.82 1357.55 1223.63 1363.31C1219.44 1369.07 1215.25 1374.31 1210.54 1379.55C1203.73 1387.4 1198.5 1395.78 1190.12 1402.07C1186.98 1404.68 1183.31 1408.35 1180.17 1408.87C1170.74 1409.92 1164.46 1415.68 1157.13 1420.39C1149.8 1425.11 1141.95 1428.77 1133.57 1431.91C1127.28 1434.53 1121 1431.39 1116.81 1424.58C1110.53 1414.63 1105.29 1404.68 1099.01 1394.73C1095.87 1390.54 1092.2 1385.83 1087.49 1383.74C1079.63 1380.6 1074.4 1376.41 1072.3 1366.98C1069.16 1371.17 1067.07 1373.79 1064.97 1375.88C1063.93 1375.88 1062.88 1376.41 1062.36 1376.41C1056.07 1370.65 1051.88 1374.83 1047.69 1379.02C1038.79 1387.93 1030.41 1396.83 1021.51 1405.21C1019.94 1406.78 1017.85 1407.3 1016.28 1407.83C1003.71 1413.59 990.62 1419.87 978.053 1425.63C974.911 1426.68 971.246 1426.15 967.58 1426.15C967.057 1426.15 966.01 1425.11 965.486 1425.11C956.061 1424.58 949.777 1421.44 948.73 1410.44C948.206 1406.78 942.447 1404.16 939.305 1401.02C931.451 1393.69 924.12 1385.83 915.742 1379.55C908.935 1374.31 905.27 1368.55 906.317 1359.12C910.506 1327.7 914.171 1296.28 917.837 1264.34C918.884 1255.44 919.407 1246.01 920.455 1237.11C924.12 1202.55 927.262 1167.99 930.927 1133.42C931.451 1127.14 931.451 1120.86 931.974 1114.05C938.781 1109.34 946.112 1104.62 953.443 1099.91C958.679 1096.24 962.344 1096.77 964.962 1103.58C966.01 1106.19 968.628 1107.76 970.722 1109.86C972.293 1111.95 974.911 1114.05 974.387 1115.62C972.817 1124.52 978.576 1128.19 984.336 1132.9C985.907 1133.95 986.954 1135 987.478 1135.52C988.001 1143.9 988.525 1151.75 989.572 1159.61C989.572 1161.7 990.62 1164.32 989.572 1165.89C982.242 1180.03 986.431 1195.74 984.336 1210.4C982.765 1222.45 984.86 1235.02 984.86 1247.58C984.86 1255.44 983.813 1263.29 982.765 1271.15C981.718 1282.15 980.147 1293.14 979.1 1304.14C978.576 1311.47 979.1 1319.33 979.1 1327.7C994.809 1303.09 1011.56 1280.05 1023.08 1253.87C1037.22 1221.4 1052.41 1189.46 1068.12 1157.51C1073.88 1145.99 1081.21 1135 1089.06 1124.52C1092.73 1119.29 1095.34 1115.1 1094.82 1108.81C1094.3 1104.1 1095.34 1099.39 1101.63 1098.34C1103.2 1098.34 1105.29 1097.29 1105.82 1096.24C1113.15 1083.68 1126.24 1080.53 1138.8 1076.34C1141.95 1075.3 1145.61 1074.25 1147.71 1072.68C1156.08 1065.87 1165.51 1069.01 1175.46 1069.01C1174.93 1073.73 1174.41 1077.39 1173.36 1081.58C1183.84 1085.77 1181.22 1096.24 1181.74 1104.1C1182.79 1117.71 1180.69 1131.85 1180.17 1145.47C1180.17 1148.09 1180.17 1150.18 1180.17 1152.8C1180.17 1159.08 1179.65 1164.84 1171.27 1165.89C1172.84 1168.51 1173.89 1170.08 1175.46 1172.7C1164.98 1175.32 1162.37 1183.17 1162.89 1193.12C1169.17 1196.26 1167.08 1187.36 1171.79 1186.84C1176.5 1189.46 1173.89 1193.12 1172.32 1196.26C1171.27 1198.88 1168.65 1201.5 1165.51 1205.17C1164.46 1205.17 1161.32 1205.17 1158.18 1205.17C1157.65 1206.74 1157.13 1208.31 1157.65 1209.36C1161.84 1219.83 1160.27 1230.83 1159.75 1241.82C1159.75 1243.92 1158.7 1246.01 1157.65 1247.58C1151.37 1257.01 1154.51 1263.82 1161.84 1270.63C1162.37 1271.15 1162.89 1271.67 1163.41 1272.72C1161.32 1273.24 1159.75 1274.29 1156.08 1275.34C1158.7 1280.05 1161.32 1284.24 1163.94 1289.48C1162.37 1290.52 1160.27 1292.62 1158.18 1294.19C1158.7 1294.71 1159.23 1295.24 1159.75 1295.76C1164.46 1297.86 1168.65 1296.81 1171.27 1292.1C1178.6 1281.1 1186.45 1271.15 1192.74 1259.63C1203.21 1239.73 1214.2 1219.83 1221.01 1198.36C1227.82 1177.41 1238.82 1158.04 1247.72 1137.61C1265.52 1098.34 1283.85 1058.54 1302.17 1019.27C1308.98 1004.08 1317.36 989.416 1324.69 974.753C1325.74 972.659 1326.26 971.088 1326.78 968.469C1318.93 962.709 1311.07 959.567 1301.65 964.804C1294.84 968.469 1287.51 967.946 1279.66 966.375C1276.52 965.851 1272.85 965.851 1270.23 967.422C1254 977.895 1235.15 979.466 1217.35 983.656C1206.35 985.75 1195.35 986.798 1183.31 987.321C1179.65 979.466 1173.36 974.753 1164.98 971.611C1157.65 968.469 1150.32 964.28 1141.95 959.567C1140.37 955.901 1142.47 952.759 1146.66 950.665C1156.61 944.904 1166.56 938.62 1177.03 933.907C1192.74 926.576 1209.49 920.292 1225.72 914.008C1258.71 900.393 1292.22 890.967 1327.83 886.777C1339.87 885.206 1351.92 883.112 1363.96 881.541C1369.2 881.017 1372.34 878.399 1374.43 873.686C1374.96 871.591 1376 869.496 1376.53 867.925C1384.9 843.837 1396.42 821.319 1411.61 800.896C1420.51 789.375 1426.27 775.76 1433.08 762.668C1438.84 751.148 1443.03 738.056 1450.88 728.63C1460.31 717.109 1465.02 703.494 1473.92 691.973C1480.2 683.595 1485.44 683.595 1489.11 693.021C1492.77 702.97 1501.67 706.112 1508.48 711.873C1510.57 713.444 1516.86 710.302 1522.09 709.254C1522.09 711.873 1522.62 715.538 1522.62 720.251C1526.81 720.775 1530.99 720.775 1534.66 721.299C1544.61 721.822 1547.23 726.012 1541.47 734.39C1537.8 739.627 1540.42 744.34 1541.99 748.529C1544.09 756.384 1543.56 763.192 1536.23 768.952C1532.57 765.287 1538.85 756.384 1528.9 756.908C1528.9 759.526 1523.14 762.145 1529.42 765.81C1530.47 766.334 1530.99 769.476 1530.47 769.476C1525.23 773.665 1529.42 779.949 1526.28 785.186C1523.14 789.899 1522.62 796.183 1520.52 801.42C1518.43 807.18 1515.29 812.94 1513.19 818.701C1510.05 826.556 1506.91 834.934 1503.77 844.36C1526.81 837.029 1548.8 830.745 1570.27 823.937C1585.45 819.224 1600.11 811.893 1616.34 809.275C1628.39 807.18 1640.43 802.467 1651.95 799.325C1687.56 789.375 1722.64 779.426 1758.25 770C1779.19 764.239 1800.66 758.479 1822.13 754.813C1836.79 752.719 1851.97 754.813 1866.63 754.813C1872.92 754.813 1879.72 756.384 1886.01 755.861C1893.34 755.861 1897 760.05 1900.15 765.81C1899.1 771.047 1891.77 776.284 1901.19 780.997C1897 785.71 1891.24 789.375 1894.91 796.707C1898.58 796.707 1902.24 796.707 1905.91 796.707C1908.52 799.325 1911.67 802.467 1916.38 807.18C1903.81 808.227 1894.39 815.035 1881.82 812.417C1872.92 810.846 1862.97 810.846 1853.02 814.511C1842.55 818.701 1830.5 817.653 1818.99 818.701C1816.89 818.701 1814.8 818.177 1813.23 818.701C1804.32 822.89 1795.95 827.603 1787.04 831.792C1771.86 821.843 1759.82 832.316 1747.25 838.076C1743.06 840.171 1739.92 841.742 1735.21 841.218C1727.35 840.695 1719.5 842.789 1711.64 844.36C1705.36 845.931 1699.6 848.55 1692.27 851.168C1690.7 860.07 1680.23 861.641 1671.85 864.26C1668.71 865.307 1665.56 865.307 1663.99 868.449C1663.47 869.496 1661.9 871.067 1661.38 870.544C1651.43 866.878 1644.62 878.399 1635.19 875.257C1633.1 874.733 1630.48 875.78 1628.39 876.828C1617.92 883.112 1612.16 884.683 1600.64 885.206C1599.59 888.872 1598.54 893.061 1596.97 899.345C1594.35 894.632 1592.78 892.014 1591.21 888.872C1578.64 893.585 1565.55 897.774 1552.46 902.487C1552.99 903.011 1554.56 904.582 1555.6 906.153C1551.94 915.055 1545.13 908.248 1536.75 907.2C1539.9 911.39 1541.47 913.484 1543.56 916.103C1537.8 917.674 1531.52 919.245 1525.23 921.339C1523.66 919.245 1521.57 916.626 1518.43 912.437C1513.72 917.674 1509.53 922.91 1504.81 927.623C1503.77 928.671 1502.2 929.718 1500.62 930.765C1495.91 933.384 1488.06 928.671 1487.01 938.097C1480.2 937.049 1475.49 942.81 1470.25 944.904C1469.21 945.428 1467.11 943.857 1463.97 942.81C1459.26 953.807 1454.02 965.851 1448.26 978.419C1446.69 978.943 1444.07 979.466 1442.5 979.466C1441.98 983.132 1441.98 986.274 1440.41 987.845C1437.27 990.987 1446.69 993.082 1440.41 995.7C1437.79 996.747 1436.22 999.366 1433.6 1001.46C1439.88 1007.74 1440.41 1014.03 1434.65 1020.31C1437.79 1031.83 1422.61 1024.5 1423.65 1033.4C1418.94 1031.31 1416.32 1030.26 1412.66 1028.69C1411.61 1032.88 1411.09 1036.55 1410.04 1041.26C1415.8 1041.78 1419.99 1041.78 1423.65 1042.31C1421.03 1053.3 1421.03 1053.83 1407.42 1050.69C1405.33 1054.35 1403.23 1058.54 1401.14 1062.21C1404.8 1063.78 1407.94 1064.82 1411.61 1066.4C1414.23 1062.73 1417.37 1058.54 1420.51 1054.35C1421.03 1054.87 1422.08 1055.4 1422.61 1055.92C1421.56 1057.49 1419.99 1059.06 1418.94 1060.63C1417.89 1062.73 1417.89 1065.35 1416.85 1068.49C1411.61 1069.01 1406.37 1069.54 1399.57 1070.06C1398 1072.68 1396.42 1075.82 1394.85 1079.49C1399.04 1080.53 1401.66 1081.06 1405.33 1082.11C1404.8 1083.68 1404.8 1084.72 1404.28 1085.25C1398 1088.91 1392.76 1093.1 1392.24 1101.48C1391.71 1106.72 1388.57 1111.43 1386.48 1116.67C1384.38 1116.67 1381.76 1117.19 1379.67 1117.19C1379.67 1118.76 1379.15 1120.33 1379.15 1121.38C1380.72 1131.33 1383.33 1140.76 1373.39 1148.61C1372.34 1149.13 1374.43 1152.8 1373.91 1154.37C1369.2 1165.89 1364.48 1176.89 1359.77 1187.89C1359.77 1188.41 1358.72 1188.41 1358.72 1188.41C1363.44 1201.5 1349.3 1213.55 1356.63 1226.64C1353.49 1229.26 1350.87 1231.35 1346.68 1234.49C1351.39 1236.59 1354.54 1238.16 1358.72 1240.25C1354.54 1244.44 1346.68 1243.39 1346.68 1253.34C1349.82 1254.91 1353.49 1257.53 1358.2 1260.15C1355.06 1260.68 1352.44 1261.2 1350.35 1262.25C1350.87 1263.29 1351.92 1264.86 1352.96 1266.44C1348.78 1268.01 1344.59 1269.58 1339.87 1271.15C1340.4 1275.34 1340.92 1278.48 1341.44 1282.67C1343.54 1282.15 1345.11 1281.62 1345.11 1281.1C1345.63 1275.86 1347.73 1271.15 1354.01 1270.63C1355.06 1270.63 1355.58 1268.01 1356.63 1266.44C1365.53 1254.91 1375.48 1243.92 1378.62 1228.21C1381.76 1229.26 1384.38 1229.78 1387 1230.3C1387 1229.26 1388.05 1227.68 1387.52 1227.16C1383.33 1222.97 1386.48 1216.69 1388.57 1216.16C1396.42 1214.07 1395.38 1207.26 1398.52 1202.02C1401.66 1197.31 1404.28 1192.08 1407.42 1186.84C1410.04 1182.65 1412.13 1177.94 1415.8 1174.79C1423.13 1168.51 1426.79 1159.08 1435.7 1154.37C1437.79 1153.32 1439.88 1150.18 1439.36 1148.61C1436.74 1137.09 1447.74 1131.85 1451.4 1123.47C1453.5 1119.29 1460.31 1116.67 1460.31 1110.38C1467.64 1108.81 1467.11 1101.48 1470.25 1096.77C1473.92 1092.05 1478.63 1087.34 1481.77 1082.11C1487.53 1072.16 1494.34 1063.78 1502.72 1056.97C1504.81 1055.4 1507.43 1052.78 1506.91 1051.21C1504.81 1036.02 1521.57 1034.97 1526.81 1025.55C1540.42 1022.93 1551.42 1010.89 1566.6 1013.5C1570.79 1014.03 1574.98 1013.5 1580.21 1013.5C1581.79 1015.08 1583.36 1017.69 1585.45 1020.31C1589.12 1019.79 1592.78 1019.27 1598.02 1018.22C1595.4 1025.03 1594.88 1030.79 1605.87 1031.83C1594.88 1038.12 1592.26 1044.92 1596.45 1054.87C1599.59 1062.21 1591.73 1066.39 1590.69 1072.68C1577.6 1073.2 1572.36 1083.15 1566.6 1092.05C1564.51 1095.2 1563.46 1098.86 1561.36 1102C1553.51 1112.48 1553.51 1122.95 1561.89 1133.95C1557.18 1137.09 1552.99 1139.71 1548.27 1142.33C1554.56 1144.42 1560.32 1146.52 1567.65 1149.66C1565.03 1151.75 1563.46 1154.37 1561.89 1154.89C1556.13 1155.94 1552.99 1160.65 1551.94 1164.32C1547.75 1183.7 1539.9 1203.6 1545.13 1224.02C1548.8 1226.11 1551.94 1228.21 1555.6 1230.3C1555.6 1230.83 1555.6 1231.35 1555.08 1231.87C1552.46 1231.87 1549.84 1231.35 1546.7 1231.35C1544.61 1247.06 1542.51 1263.29 1540.42 1279C1555.08 1266.44 1565.03 1251.77 1571.84 1234.49C1576.55 1222.45 1583.36 1211.45 1589.12 1199.93C1592.26 1193.12 1595.4 1186.31 1599.07 1180.03C1611.11 1156.99 1623.15 1133.42 1635.19 1110.38C1645.14 1092.05 1655.09 1073.73 1666.09 1055.4C1669.75 1049.64 1674.99 1044.4 1678.66 1038.64C1683.37 1032.36 1690.17 1027.64 1691.22 1018.74C1691.22 1017.17 1692.79 1015.6 1693.84 1015.08C1705.88 1009.32 1716.36 999.366 1729.97 996.224C1734.16 995.176 1738.35 993.605 1742.54 992.034C1743.58 991.511 1745.68 990.463 1745.68 989.416C1747.25 980.514 1753.53 981.561 1761.91 979.99C1758.77 984.179 1756.67 986.274 1753.01 990.463C1760.86 991.511 1768.19 992.558 1775 993.605C1775 996.224 1769.24 998.842 1775 1003.56C1778.67 1006.17 1776.05 1012.46 1772.38 1016.12C1769.77 1018.22 1766.62 1019.79 1768.72 1023.98C1771.34 1028.69 1775 1026.07 1778.67 1024.5C1779.19 1023.98 1780.24 1024.5 1782.86 1024.5C1778.14 1034.98 1773.95 1044.4 1769.24 1054.35C1771.34 1055.92 1773.95 1057.49 1778.67 1060.63C1772.91 1061.16 1769.76 1061.68 1766.1 1062.21C1766.1 1063.25 1765.58 1064.82 1766.1 1065.35C1774.48 1073.2 1775 1077.39 1768.72 1088.39C1776.57 1098.86 1776.05 1099.39 1759.29 1117.71C1761.91 1119.81 1764.01 1121.38 1767.67 1124C1764.53 1127.14 1760.86 1128.71 1759.29 1131.85C1758.25 1134.47 1759.29 1138.14 1759.82 1142.33C1755.63 1145.47 1751.44 1149.13 1746.73 1152.8C1748.82 1159.61 1747.77 1166.94 1753.53 1172.18C1757.2 1175.32 1754.06 1178.98 1751.44 1182.13C1748.3 1185.27 1745.68 1185.27 1744.11 1181.08C1742.54 1182.13 1740.97 1182.65 1737.3 1184.74C1743.06 1186.84 1746.73 1188.41 1750.39 1189.98C1747.77 1197.84 1747.77 1197.84 1741.49 1193.65C1739.39 1197.31 1737.82 1201.5 1735.73 1205.69C1738.35 1207.79 1740.44 1209.88 1743.58 1211.97C1740.97 1214.07 1738.35 1215.64 1735.21 1218.26C1737.82 1219.31 1739.39 1220.35 1741.49 1220.88C1739.92 1224.02 1732.06 1232.4 1724.73 1235.54C1726.3 1227.16 1726.3 1227.16 1718.97 1228.73C1721.07 1231.35 1723.16 1233.44 1724.73 1235.54ZM1914.81 1272.2C1918.47 1271.67 1922.14 1272.72 1923.71 1271.15C1930.52 1266.44 1937.85 1261.72 1943.08 1255.44C1955.65 1240.78 1967.69 1225.59 1975.55 1206.74C1981.83 1190.5 1986.54 1174.79 1989.16 1158.04C1990.21 1152.8 1987.59 1146.52 1986.54 1138.14C1979.21 1148.09 1969.79 1153.32 1967.17 1163.8C1966.65 1165.37 1965.6 1166.94 1964.55 1167.99C1949.89 1178.98 1944.65 1195.74 1936.28 1210.93C1930.52 1221.92 1927.37 1234.49 1920.57 1244.44C1914.81 1253.34 1915.85 1262.25 1914.81 1272.2ZM2577.71 1429.82C2578.23 1429.82 2579.28 1430.34 2579.8 1430.34C2585.04 1423.01 2589.75 1415.16 2596.04 1406.25C2586.09 1405.73 2580.85 1409.92 2578.23 1415.16C2576.14 1419.35 2577.71 1425.11 2577.71 1429.82ZM1835.74 1261.72C1853.02 1247.06 1854.07 1244.97 1853.54 1235.54C1846.21 1242.87 1837.84 1249.15 1835.74 1261.72ZM1787.57 770C1787.04 775.76 1787.04 779.426 1786.52 784.662C1792.28 784.139 1796.99 783.091 1803.28 782.568C1797.52 777.855 1793.33 774.713 1787.57 770ZM1790.19 1313.57C1794.38 1306.76 1797.52 1302.05 1800.66 1297.33C1800.13 1296.81 1799.61 1296.28 1799.09 1295.76C1794.38 1299.43 1790.19 1303.62 1784.95 1307.81C1787.04 1310.42 1788.09 1311.47 1790.19 1313.57ZM1532.04 1258.58C1536.75 1250.2 1535.18 1243.39 1533.09 1236.59C1532.04 1236.59 1531.52 1236.59 1530.47 1236.59C1530.99 1242.87 1531.52 1249.68 1532.04 1258.58ZM2598.65 1393.69C2610.17 1393.69 2605.98 1384.78 2608.08 1380.6C2605.46 1384.26 2602.32 1387.93 2598.65 1393.69ZM1614.77 874.209C1611.11 875.78 1607.97 877.351 1604.3 878.922C1607.97 878.399 1613.2 882.064 1614.77 874.209ZM1533.09 1224.54C1533.61 1224.54 1534.14 1224.02 1534.66 1224.02C1534.14 1221.4 1534.14 1218.26 1533.09 1213.02C1531.52 1216.69 1530.47 1218.26 1530.47 1219.31C1530.99 1220.88 1532.57 1222.45 1533.09 1224.54ZM1717.93 1222.45C1723.16 1219.31 1726.3 1217.73 1729.45 1216.16C1725.26 1215.64 1721.07 1215.12 1717.93 1222.45ZM1425.22 1023.98C1425.22 1022.93 1425.22 1022.41 1425.75 1021.36C1423.65 1020.84 1421.03 1020.31 1418.94 1020.31C1418.94 1021.36 1418.94 1023.45 1418.94 1023.45C1420.51 1023.98 1423.13 1023.98 1425.22 1023.98ZM1580.74 1030.26C1580.74 1031.31 1581.26 1032.36 1581.26 1033.4C1583.36 1032.88 1585.45 1032.36 1587.55 1031.83V1029.74C1584.93 1029.74 1582.83 1030.26 1580.74 1030.26ZM1327.31 1375.36C1327.31 1374.83 1326.78 1374.83 1326.78 1374.31C1324.69 1375.36 1322.59 1376.93 1319.98 1377.98C1320.5 1378.5 1320.5 1379.02 1321.02 1379.55C1323.12 1378.5 1325.21 1376.93 1327.31 1375.36Z" fill="black"/>
<path d="M435.584 1022.41C438.202 1026.59 440.296 1030.78 432.442 1032.36C431.395 1032.36 429.824 1034.45 429.824 1035.5C427.73 1046.49 426.159 1057.49 424.588 1068.49C426.682 1068.49 427.73 1069.01 428.253 1069.01C435.584 1061.16 445.009 1054.35 449.198 1043.88C461.241 1011.41 480.615 983.131 501.56 956.424C508.891 946.998 518.316 938.095 532.453 937.572C535.595 937.572 538.213 934.953 541.355 932.859C553.398 925.004 565.441 918.196 580.626 920.291C584.292 920.814 587.957 919.243 592.67 918.719C591.099 927.098 599.477 929.717 601.571 936.001C602.618 936.001 603.142 935.477 604.189 935.477C604.713 930.764 604.713 926.051 605.236 921.862C606.284 921.862 606.807 921.861 607.855 921.338C609.425 927.622 610.473 933.906 612.567 942.284C607.854 940.713 605.76 940.19 602.618 939.142C598.429 946.997 594.764 955.376 597.906 965.326C600 966.373 602.095 966.897 604.189 968.468C606.284 970.039 608.902 972.657 608.902 974.752C608.902 976.847 606.284 979.988 603.666 981.036C593.193 986.796 592.146 990.462 597.906 1000.94C600 999.364 602.095 997.27 604.189 996.222C604.713 996.222 606.807 999.364 608.378 1001.46C602.618 1005.65 594.764 1008.27 597.382 1016.65C597.906 1018.74 602.618 1019.79 607.855 1022.41C608.378 1031.83 609.425 1043.88 602.618 1055.4C595.811 1066.39 597.382 1077.39 604.189 1087.86C606.807 1091.53 607.331 1097.29 607.855 1102.53C608.902 1114.05 611.52 1125.04 607.855 1136.56C605.76 1133.42 603.666 1130.28 601.047 1126.62C597.906 1135.52 603.666 1135.52 608.378 1136.56C598.429 1144.42 602.618 1155.42 602.618 1165.37C602.618 1174.79 605.76 1184.22 607.331 1194.69C603.666 1194.17 600.524 1194.17 596.859 1193.64C612.043 1204.12 614.662 1213.02 606.284 1226.64C608.378 1229.78 610.996 1232.92 614.662 1238.16C616.232 1232.4 618.327 1228.21 618.327 1224.02C619.374 1210.4 626.181 1199.4 631.417 1187.36C642.937 1161.18 654.98 1134.47 667.023 1108.81C681.685 1077.39 691.634 1044.92 701.582 1012.46C704.201 1004.08 709.437 995.699 714.149 987.844C727.24 966.373 739.807 944.903 756.562 926.051C761.799 920.29 766.511 916.101 774.365 915.577C780.125 915.054 785.361 913.483 787.98 906.675C789.55 903.01 795.31 899.344 799.499 898.82C806.306 898.297 810.495 895.678 814.161 890.965C817.826 885.729 823.062 883.634 828.822 882.587C834.582 881.016 840.341 878.397 846.101 876.302C851.337 874.208 856.574 872.637 862.857 870.019C861.286 875.255 855.003 876.302 856.574 881.539C856.574 881.539 851.861 884.157 849.243 884.681C844.53 885.728 840.341 886.776 839.818 895.154C844.53 889.394 850.814 893.583 854.479 887.299C856.05 884.157 864.428 888.347 865.999 893.06C868.617 899.868 866.522 917.149 861.81 925.004C871.235 933.382 879.089 941.761 873.329 956.424C871.759 961.137 867.57 961.136 864.951 965.326C868.093 965.849 870.711 966.373 872.806 966.373C871.235 972.134 868.617 977.894 868.617 983.654C868.617 992.033 862.857 998.84 863.381 1007.22C863.381 1009.31 858.668 1011.41 855.526 1014.03C857.621 1020.83 860.239 1027.64 862.857 1035.5C860.763 1035.5 859.192 1035.5 857.097 1036.02C857.097 1036.54 856.574 1037.07 856.574 1037.07C862.333 1049.11 855.003 1061.16 856.05 1073.2C856.05 1074.77 858.144 1076.34 859.192 1077.91C860.239 1079.49 861.81 1081.58 861.81 1082.63C859.192 1091.53 861.286 1102 856.574 1110.38C856.05 1110.91 854.479 1110.91 852.908 1111.43C852.908 1115.09 862.333 1114.05 857.621 1119.81C856.05 1121.38 851.337 1120.85 847.672 1121.38C854.479 1133.95 854.479 1145.47 849.243 1154.89C851.337 1163.27 853.955 1170.08 854.479 1176.89C854.479 1182.65 853.956 1189.98 845.054 1193.12C847.148 1194.69 848.719 1195.74 849.767 1197.31C850.814 1198.36 851.861 1199.4 852.385 1202.02C850.814 1201.5 849.243 1201.5 847.672 1200.98C846.101 1200.45 845.054 1199.93 842.436 1200.45C844.007 1202.55 845.578 1204.12 847.672 1207.26C844.53 1208.31 842.436 1208.83 838.247 1210.4C849.243 1209.88 849.766 1216.69 851.337 1223.49C848.719 1225.06 846.101 1227.16 844.53 1227.68C841.912 1235.54 839.294 1241.82 836.676 1249.15C840.341 1249.68 843.483 1250.2 847.148 1251.25C844.007 1262.77 844.007 1262.77 837.2 1265.39C836.676 1269.05 845.054 1270.62 839.818 1275.34C841.389 1276.38 842.959 1277.43 846.101 1279.53C842.959 1281.1 840.341 1282.14 837.723 1283.19C838.771 1288.95 839.294 1295.76 840.341 1302.04C836.676 1303.61 833.534 1305.19 830.916 1306.23C838.247 1306.23 844.53 1308.85 849.243 1314.61C849.243 1318.28 842.436 1317.23 844.007 1323.51C846.101 1330.32 838.771 1332.42 832.487 1331.37C833.011 1338.18 843.483 1333.46 840.865 1340.27C838.77 1346.03 838.77 1353.89 830.393 1355.98C831.44 1358.08 832.487 1360.17 834.058 1363.31C830.393 1364.36 827.251 1364.88 824.109 1365.93C824.633 1366.98 825.156 1368.03 825.156 1368.03C829.345 1368.55 835.105 1368.55 835.105 1373.26C835.105 1376.93 831.44 1380.59 828.822 1385.31C831.44 1386.35 835.105 1388.45 838.771 1390.02C836.676 1396.83 841.912 1405.21 834.058 1408.87C835.105 1416.2 836.152 1422.49 836.152 1429.29C836.152 1436.1 835.629 1442.39 834.582 1449.19C834.058 1454.95 835.105 1463.33 831.44 1465.43C824.633 1470.14 830.916 1479.04 823.586 1483.23C812.59 1480.61 809.971 1492.66 802.641 1497.37C808.924 1502.08 814.684 1506.27 820.967 1510.99C806.306 1520.94 805.259 1520.94 789.55 1508.37C787.979 1512.56 785.885 1516.22 784.838 1520.41C783.791 1524.6 783.79 1528.79 783.267 1536.12C776.983 1529.31 772.271 1524.6 768.082 1519.89C759.704 1510.46 751.326 1500.51 742.948 1490.56C740.854 1487.95 739.807 1484.28 739.283 1481.14C738.236 1458.1 736.665 1434.53 736.665 1411.49C736.665 1403.11 738.759 1394.21 740.854 1385.83C746.09 1364.36 745.566 1341.84 746.614 1319.85C748.184 1291.05 748.185 1261.72 753.944 1233.44C754.468 1231.35 753.944 1229.25 754.468 1227.68C754.991 1220.88 755.515 1213.54 756.039 1206.74C756.562 1201.5 756.039 1196.26 756.562 1191.03C757.086 1184.22 757.61 1176.89 758.133 1169.03C750.279 1171.65 742.948 1173.75 734.047 1176.89C736.665 1178.98 739.283 1180.55 741.377 1182.65C744.519 1185.27 743.472 1188.93 741.377 1191.55C737.712 1196.79 733 1201.5 729.334 1206.74C727.24 1209.35 726.192 1212.5 724.622 1215.11C723.051 1217.73 720.956 1220.35 719.385 1222.45C717.815 1224.54 714.673 1227.16 714.673 1229.25C715.72 1238.16 708.913 1242.87 705.248 1248.63C704.2 1250.2 702.63 1251.25 702.63 1252.82C703.677 1262.24 695.823 1267.48 693.728 1275.34C692.157 1280.05 689.539 1286.86 691.11 1290C695.823 1297.85 689.539 1302.57 688.492 1308.33C687.445 1313.56 685.35 1318.8 683.779 1325.08C681.161 1326.13 676.972 1327.7 673.307 1329.27C678.019 1336.08 673.307 1341.84 672.26 1347.6C671.212 1353.89 669.642 1360.17 660.74 1359.12C659.169 1366.98 657.598 1374.31 655.504 1381.64C653.933 1386.88 648.697 1391.59 648.697 1396.83C648.697 1399.97 650.268 1403.11 647.65 1405.73C645.031 1408.35 642.413 1410.97 640.843 1414.11C635.083 1424.06 626.181 1427.72 615.185 1429.82C605.236 1431.91 597.906 1437.67 594.24 1448.67C585.339 1446.05 580.626 1452.34 578.008 1459.67C575.39 1467.52 569.63 1471.19 563.347 1475.9C557.063 1472.24 552.351 1467.52 548.162 1461.24C542.402 1453.38 535.072 1446.05 528.264 1438.72C522.505 1432.44 522.505 1432.44 524.076 1423.53C521.981 1423.53 519.886 1423.01 518.316 1423.01C513.603 1412.01 514.127 1401.02 517.268 1389.5C519.363 1382.69 518.316 1374.83 518.839 1367.5C519.363 1357.55 517.792 1347.08 520.41 1337.65C523.552 1326.13 519.886 1315.66 521.981 1304.14C524.075 1293.14 525.123 1281.1 523.552 1270.1C519.886 1241.3 519.363 1211.97 510.461 1184.22C504.702 1166.41 501.56 1147.04 497.371 1128.71C485.851 1133.95 485.328 1135.52 494.753 1144.42C483.757 1145.47 482.71 1155.94 477.997 1162.75C477.997 1163.27 477.473 1163.27 476.95 1163.27C486.899 1176.89 471.714 1176.89 467.525 1184.74C469.619 1193.12 467.525 1196.26 454.434 1200.98C454.434 1202.55 453.91 1204.64 453.91 1206.74C454.434 1208.31 455.481 1209.35 457.052 1211.45C454.434 1211.97 451.816 1213.02 448.151 1213.54C449.722 1216.69 450.769 1219.83 452.34 1222.45C451.816 1222.97 451.816 1224.54 451.292 1224.54C445.009 1226.64 441.344 1230.82 438.726 1237.11C436.631 1241.3 432.966 1244.96 430.871 1249.68C427.73 1256.48 425.635 1264.34 422.493 1271.15C420.399 1275.86 417.257 1280.05 413.592 1285.81C414.115 1286.33 416.21 1289.48 416.21 1292.09C416.21 1294.19 412.545 1295.76 410.45 1297.85C403.643 1303.61 396.836 1309.9 397.883 1320.37C397.883 1324.04 399.454 1329.27 393.171 1329.8C392.123 1329.8 391.076 1331.37 391.076 1332.42C391.076 1338.18 391.076 1342.89 387.935 1348.65C383.222 1357.55 381.651 1362.79 371.702 1364.88C372.75 1367.5 374.844 1370.12 374.844 1372.74C374.32 1375.36 373.273 1379.55 368.561 1379.02C368.037 1379.02 366.466 1379.55 366.466 1380.07C366.99 1392.11 354.946 1392.11 349.187 1396.83C342.903 1401.54 338.191 1406.78 334.002 1413.06C329.289 1420.92 325.1 1429.29 319.864 1436.63C310.963 1449.72 301.537 1461.76 292.112 1474.85C288.447 1480.09 285.305 1485.33 282.163 1490.56C281.64 1491.61 281.116 1493.18 280.069 1493.71C272.738 1497.89 271.691 1506.8 265.408 1511.51C259.648 1507.84 259.648 1507.84 258.601 1498.42C250.223 1504.7 243.939 1512.56 239.75 1525.13C235.038 1515.18 229.802 1508.89 229.278 1501.56C228.231 1492.13 222.471 1486.9 216.711 1481.14C214.093 1479.04 211.475 1477.47 208.333 1475.38C213.569 1463.86 215.664 1452.86 225.613 1446.58C227.707 1445 230.325 1441.86 230.325 1439.24C230.325 1426.15 238.703 1416.2 241.845 1404.16C242.368 1402.06 243.416 1399.97 243.416 1398.4C249.699 1369.07 263.837 1342.37 273.262 1314.09C279.545 1295.76 290.541 1279 292.112 1259.1C292.112 1258.58 292.636 1258.06 292.636 1258.06C292.636 1252.3 301.014 1249.68 298.396 1241.3C296.825 1236.59 299.443 1229.78 301.014 1224.54C302.585 1218.78 304.679 1213.02 306.774 1207.26C316.722 1184.74 316.722 1159.61 324.053 1136.04C326.147 1129.23 328.766 1122.43 330.336 1115.62C334.525 1098.86 337.667 1082.63 341.332 1065.87C341.856 1063.25 340.809 1059.59 340.285 1055.4C331.907 1058.54 323.006 1056.97 317.77 1063.78C317.246 1064.3 316.199 1064.3 315.675 1064.82C299.966 1067.44 295.254 1069.01 284.782 1077.39C282.163 1079.49 280.593 1083.15 277.451 1085.25C273.786 1088.39 269.597 1091.53 264.884 1094.15C262.266 1095.72 259.124 1095.2 255.983 1096.24C252.841 1097.29 249.699 1098.34 246.034 1099.91C246.034 1103.57 246.034 1107.24 246.034 1111.95C242.368 1110.38 239.227 1109.33 236.609 1108.29C236.085 1108.81 235.038 1109.33 235.038 1109.33C234.514 1115.62 230.849 1118.24 225.089 1118.24C218.282 1118.24 213.046 1120.85 207.81 1126.62C203.621 1131.33 196.29 1132.38 190.007 1135.52C182.152 1139.71 174.822 1144.42 167.491 1148.09C161.207 1151.23 154.4 1153.32 147.593 1156.46C144.452 1158.04 142.357 1160.65 138.168 1163.27C132.408 1160.65 126.649 1163.27 123.507 1171.65C112.511 1169.56 104.657 1172.7 95.7551 1178.98C87.3772 1185.27 76.3812 1188.41 66.956 1192.6C64.8615 1193.64 62.2434 1193.12 61.1962 1194.69C51.2474 1205.17 38.6806 1201.5 26.6374 1202.55C21.4012 1203.07 16.165 1200.98 10.9288 1198.88C5.16898 1196.79 5.69262 1191.03 4.64538 1186.31C4.12176 1184.22 2.02722 1182.12 0.97998 1180.03C7.26341 1167.98 12.4997 1155.42 25.5901 1149.13C29.7791 1147.04 32.3971 1142.85 31.3499 1137.61C29.779 1129.76 33.968 1125.57 40.2514 1121.9C58.0545 1112.48 75.8575 1103.57 93.137 1093.1C111.987 1082.1 130.314 1069.54 149.164 1057.49C158.066 1051.73 165.92 1045.45 174.822 1040.21C191.054 1030.26 207.81 1020.83 224.042 1010.88C244.463 997.793 264.36 983.654 284.782 971.086C307.297 956.947 327.718 939.666 351.281 928.146C355.47 926.051 361.23 926.575 365.419 925.004C373.797 921.862 383.222 919.767 390.553 914.53C398.407 909.294 406.785 909.817 412.021 914.007C417.257 918.196 421.446 918.196 428.777 916.101C427.206 920.814 426.159 923.956 425.111 927.098C430.348 939.666 443.962 934.953 454.434 940.19C446.056 951.187 445.009 964.802 443.438 977.894C440.82 976.323 438.726 974.752 435.584 972.657C435.06 975.799 434.013 979.465 435.06 979.989C446.58 986.796 438.726 997.793 440.82 1006.7C440.82 1007.74 436.631 1009.84 433.489 1011.93C432.966 1013.5 434.537 1017.69 435.584 1022.41Z" fill="black"/>
<path d="M578.008 508.69C570.678 510.785 562.3 509.214 558.111 519.687C556.016 516.545 554.445 514.451 551.827 511.309C548.686 514.974 545.544 518.116 542.402 521.782C538.213 525.971 547.115 531.208 540.831 535.397C535.072 533.303 530.359 535.921 525.123 540.11C518.839 545.347 525.646 552.155 521.457 558.439C527.217 556.344 532.453 554.773 537.69 552.678C538.213 553.202 538.737 554.249 538.737 554.773C535.072 557.915 531.406 561.057 527.741 564.199C526.17 565.77 523.552 567.341 523.028 569.436C520.934 577.814 513.08 579.909 507.32 582.004C496.847 585.146 487.946 589.335 481.139 597.714C472.761 607.663 462.288 613.424 452.34 616.042C451.292 619.708 451.816 622.326 450.245 623.897C441.344 634.37 432.442 644.844 423.541 654.793C422.493 656.364 419.875 656.888 418.304 657.412C406.785 659.506 396.312 665.79 384.269 662.648C370.131 668.932 356.517 665.267 342.38 662.125C339.762 661.601 336.62 662.648 332.954 663.172C332.431 659.506 331.384 655.841 331.907 653.222C332.955 649.033 334.525 645.367 336.62 641.702C341.856 631.752 349.71 622.85 351.805 610.805C352.852 606.092 356.517 600.332 360.706 597.714C377.986 585.669 387.411 567.341 400.501 551.631C420.399 527.019 440.82 502.93 461.765 478.841C473.284 465.75 484.804 452.658 497.895 437.995C491.611 440.09 487.422 441.137 482.186 442.708C482.186 440.614 481.662 438.519 481.662 435.901C475.379 435.901 470.143 435.377 464.383 441.137C460.718 444.279 451.816 442.708 445.533 442.708C437.678 442.708 430.348 442.185 421.446 441.661C414.639 430.664 388.458 434.33 379.557 449.516C371.702 449.516 363.848 449.516 355.47 449.516C354.423 451.087 353.376 453.705 351.805 455.276C347.092 460.513 343.95 459.989 337.667 455.8C333.478 452.658 329.289 450.04 325.1 447.945C313.057 443.232 313.057 443.232 315.151 430.664C310.439 428.569 305.726 425.951 301.014 423.333C298.396 421.762 295.778 420.191 294.73 418.096C288.97 408.146 288.97 407.623 278.498 403.957C280.593 401.862 282.163 399.768 284.258 397.673C290.018 392.436 295.777 386.676 302.061 381.963C305.203 379.345 309.392 377.774 312.533 375.679C316.199 373.584 320.388 372.013 322.482 368.871C328.766 361.016 337.143 360.493 346.045 360.493C348.139 360.493 351.805 361.54 352.852 360.493C358.612 353.685 366.466 354.209 373.797 352.114C380.604 350.019 386.887 347.401 393.694 344.783C394.218 344.259 394.742 343.212 395.789 343.212C412.545 343.735 426.682 330.12 443.962 332.738C445.009 332.738 446.58 332.215 447.104 331.691C451.816 323.836 460.194 325.931 467.001 324.36C473.284 322.789 480.092 328.025 486.375 322.265C486.899 321.741 488.993 322.789 490.04 323.312C501.56 328.549 513.603 327.502 525.646 324.883C542.926 321.218 560.205 318.599 578.008 320.694C582.197 321.218 583.768 317.552 589.004 318.599C597.382 320.17 607.331 318.599 615.185 314.934C622.516 311.792 628.276 304.984 633.512 298.176C644.508 284.037 654.457 268.851 665.976 255.236C679.59 239.002 693.728 223.292 707.866 207.058C712.578 201.822 717.291 196.061 722.527 191.348C742.948 172.496 763.893 154.168 783.791 134.792C797.405 121.701 809.448 106.514 823.062 92.8989C833.534 81.9019 844.531 70.9049 855.526 59.9079C860.763 55.1949 864.952 49.4346 869.664 44.1979C880.66 31.6299 895.322 23.7749 912.601 22.7276C913.648 22.7276 914.695 22.2039 915.219 22.7276C928.31 32.6773 938.258 23.2513 949.778 15.9199C950.302 19.5856 951.349 22.7276 951.872 26.3933C951.872 26.3933 952.92 26.917 953.443 26.917C958.156 26.917 960.774 23.7749 963.392 20.6329C964.439 19.5856 967.581 19.5856 971.77 19.062C968.628 24.8223 966.534 27.9643 963.916 31.6299C972.817 35.8193 980.671 34.7719 988.526 30.5826L988.002 30.0589C991.667 31.6299 995.333 32.6773 1000.05 34.2483C1000.05 51.5293 988.526 68.8102 997.427 87.6622C991.144 93.9462 993.238 102.849 993.238 111.227C993.238 130.603 988.002 148.931 985.384 167.783C981.719 196.061 970.199 222.245 964.439 249.999C959.727 273.04 953.967 296.605 960.774 320.694C961.821 324.36 960.774 328.025 960.774 333.262C963.916 334.833 967.581 336.928 971.77 339.022C968.105 340.07 963.916 341.117 959.727 342.164C959.727 342.688 959.727 343.212 959.727 343.735C962.868 344.259 965.486 344.783 969.675 345.83C958.156 348.972 958.156 348.972 956.061 358.398C958.679 360.493 960.774 362.587 962.868 364.158C963.392 372.013 956.061 371.49 952.92 374.108C951.872 378.297 950.825 382.487 949.778 386.676C952.396 388.247 955.538 390.342 960.25 392.96C954.491 394.007 950.302 394.531 946.113 395.055C946.636 414.43 946.636 414.43 959.727 418.096C955.014 420.714 949.778 424.38 944.018 426.475C937.211 429.617 945.065 439.566 937.211 440.614C938.258 446.898 939.829 452.134 939.829 457.895C940.353 470.986 940.353 484.602 939.829 497.693C939.306 507.119 937.735 516.545 936.164 525.448C936.164 526.495 935.117 528.59 935.117 528.59C946.113 534.874 936.164 543.252 937.211 550.06C937.735 554.773 938.258 558.962 940.876 563.152C941.924 564.723 942.971 566.817 942.447 568.388C940.876 572.578 939.305 576.243 943.494 579.909C944.018 580.433 942.447 582.527 942.447 584.098C942.971 589.859 936.687 595.095 940.876 601.379C941.4 602.427 938.258 606.092 937.211 608.711C939.306 611.329 941.924 613.424 942.971 616.566C943.494 617.613 940.353 620.231 938.782 622.85C942.971 629.657 950.302 635.941 950.302 645.367C950.302 652.175 949.778 658.983 949.254 667.885C941.924 664.743 936.688 662.125 931.975 660.554C932.499 669.456 933.022 679.929 933.546 689.879C933.546 697.734 933.022 697.734 924.121 700.876C930.928 706.636 925.691 712.92 925.168 719.204C924.644 725.488 922.55 731.772 920.979 738.58C895.845 729.154 891.656 729.678 884.849 740.675C880.66 738.58 876.471 737.009 871.759 734.914C849.243 726.536 838.247 708.207 831.44 687.261C828.822 678.882 828.298 669.456 827.251 660.03C824.633 631.752 822.015 603.474 819.92 575.196C818.873 559.486 819.397 543.252 819.397 527.542C819.397 510.785 819.397 494.028 819.397 477.27C819.397 466.797 820.444 456.324 820.444 445.85C820.444 440.614 820.444 434.853 820.444 428.046C807.877 425.427 796.357 417.049 781.696 424.38C776.46 426.998 769.653 425.427 763.369 425.427C756.562 425.427 749.232 424.38 745.043 432.759C744.519 433.282 743.472 433.806 742.425 434.33C740.33 434.33 738.236 433.806 736.141 434.33C734.047 434.853 732.476 436.424 729.858 437.995C727.24 431.188 721.48 430.14 714.673 432.235C717.815 433.282 720.433 434.33 723.051 435.377C723.051 436.424 723.051 436.948 723.051 437.995C716.244 439.043 709.96 440.09 703.153 440.614C697.393 441.137 691.11 434.853 686.397 443.756C685.35 445.85 679.59 445.327 675.925 445.85C665.976 447.421 656.028 447.421 651.839 459.989C650.791 463.655 645.555 462.084 643.461 457.895C642.413 455.8 640.319 453.705 638.225 452.658C635.606 451.087 632.988 450.563 629.323 448.992C626.705 452.134 623.04 455.276 619.898 458.942C628.276 456.324 632.465 464.179 639.272 466.797C637.177 467.844 634.559 470.986 632.988 470.463C625.658 467.844 620.945 471.51 616.756 477.27C612.567 474.652 608.378 467.844 602.618 473.081C598.953 476.747 593.193 479.365 593.717 485.649C594.241 492.457 600.524 491.409 604.189 494.551C604.713 494.028 605.236 493.504 605.76 492.457C604.189 490.886 603.142 488.791 601.571 486.696C606.807 480.936 610.473 484.078 614.138 490.886C606.284 497.17 598.429 503.454 590.575 509.738C593.193 507.119 593.717 504.501 590.575 501.359C588.481 499.264 586.91 496.646 584.815 494.028C588.481 495.599 592.146 497.17 598.429 499.788C594.24 491.933 589.528 494.028 584.815 494.028C572.248 498.217 571.725 499.788 578.008 508.69ZM832.487 296.082C836.676 278.801 839.818 263.614 844.007 246.333C838.247 244.762 833.011 243.191 827.775 241.62C827.251 242.668 826.727 243.191 826.204 244.239C827.775 246.333 829.869 248.428 831.964 250.523C830.916 252.617 829.345 254.188 828.298 256.283C817.302 254.188 815.208 255.759 813.113 265.709C812.59 267.804 811.019 270.946 809.448 271.469C799.499 274.611 798.452 284.561 792.692 289.798C798.452 296.605 810.495 281.943 812.59 298.176C818.873 297.653 825.68 297.129 832.487 296.082ZM893.227 673.122C894.798 679.406 895.322 683.071 897.416 686.737C898.463 688.832 901.081 690.403 903.176 691.974C905.27 689.355 908.412 687.261 908.412 684.642C908.412 681.5 907.365 677.311 904.747 674.693C903.176 673.122 898.987 673.645 893.227 673.122ZM903.699 718.681C909.459 703.494 909.459 701.4 902.129 697.734C902.129 704.542 902.129 710.826 902.129 717.11C902.129 717.633 903.176 718.157 903.699 718.681ZM378.509 442.708C378.509 441.661 378.509 440.614 377.986 439.566C371.179 442.708 363.848 436.424 357.565 443.756C364.895 443.232 371.702 443.232 378.509 442.708ZM500.513 431.188C496.324 431.711 492.135 431.711 486.375 432.235C492.658 436.948 496.324 433.282 500.513 431.188ZM515.698 568.912C516.221 567.865 516.221 566.817 516.745 565.246C514.127 564.723 511.509 564.199 509.414 563.675C509.414 564.723 508.891 565.246 508.891 566.294C510.461 566.817 513.079 567.865 515.698 568.912ZM646.079 448.992C646.079 448.469 646.079 447.421 646.079 446.898C643.984 446.898 641.89 446.374 639.795 446.374C639.795 446.898 639.795 447.945 639.795 448.469C641.89 448.469 643.984 448.469 646.079 448.992Z" fill="black"/>
<path d="M238.181 1525.65C242.893 1526.17 247.606 1522.51 249.7 1528.79C250.224 1530.36 248.129 1534.03 246.559 1534.03C240.799 1535.6 239.228 1531.93 238.181 1525.65Z" fill="black"/>
<path d="M1792.81 526.495C1788.09 531.732 1784.95 535.921 1780.24 541.158C1780.24 532.255 1781.81 527.019 1792.81 526.495Z" fill="black"/>
<path d="M1758.25 1147.04C1758.77 1150.71 1759.82 1153.85 1760.34 1157.51C1757.2 1158.04 1754.58 1158.56 1751.96 1159.08C1749.87 1152.28 1752.49 1149.66 1758.25 1147.04Z" fill="black"/>
<path d="M1576.03 1106.19C1566.6 1115.1 1565.55 1104.1 1561.36 1102.53C1565.55 1103.58 1569.74 1104.62 1576.03 1106.19Z" fill="black"/>
<path d="M434.538 923.958C442.392 915.58 445.534 916.103 449.199 923.958C445.01 923.958 440.821 923.958 434.538 923.958Z" fill="black"/>
<path d="M577.485 508.167C581.15 508.69 584.292 509.214 587.957 509.738C585.339 512.88 583.245 516.545 579.056 522.306C578.532 515.498 578.008 511.832 577.485 508.167Z" fill="black"/>
<path d="M358.089 457.373C363.325 454.755 368.038 452.136 372.227 450.042C372.75 450.565 372.75 451.613 373.274 452.136C369.608 455.278 366.467 460.515 358.089 457.373Z" fill="black"/>
<path d="M823.586 1485.33C827.775 1483.24 830.917 1481.14 834.582 1479.05C833.535 1486.38 833.535 1486.38 823.586 1485.33Z" fill="black"/>
<path d="M1269.19 981.56C1273.9 980.513 1278.61 979.466 1283.85 978.418C1278.09 983.655 1278.09 983.655 1269.19 981.56Z" fill="black"/>
<path d="M2182.9 385.628C2179.76 386.152 2177.14 386.675 2171.91 388.246C2175.05 384.057 2177.14 381.962 2179.76 378.82C2180.81 381.962 2181.85 384.057 2182.9 385.628Z" fill="black"/>
<path d="M2168.24 397.671C2166.15 397.671 2164.57 398.195 2159.86 398.719C2164.05 395.577 2165.62 394.006 2169.81 390.864C2168.76 394.529 2168.24 396.1 2168.24 397.671C2167.72 397.671 2168.24 397.671 2168.24 397.671Z" fill="black"/>
<path d="M586.387 1454.96C589.529 1451.82 591.1 1450.24 593.718 1447.63C594.765 1456.53 594.765 1456.53 586.387 1454.96Z" fill="black"/>
<path d="M584.816 1464.91C588.482 1473.81 585.34 1474.33 578.533 1473.28C581.151 1470.67 582.198 1468.57 584.816 1464.91Z" fill="black"/>
<path d="M986.956 30.0581C989.05 28.4872 991.668 26.9162 993.763 25.3452C994.286 32.6765 990.621 31.6291 986.956 30.0581Z" fill="black"/>
<path d="M574.868 522.829C573.297 524.924 572.25 527.542 570.679 529.637C569.631 529.113 569.108 528.59 568.061 528.066C569.631 525.971 571.202 523.877 572.25 521.258C573.297 521.782 574.344 522.306 574.868 522.829Z" fill="black"/>
<path d="M1803.28 504.503C1805.9 502.932 1807.99 501.361 1811.13 499.79C1811.66 506.597 1807.47 505.55 1803.28 504.503Z" fill="black"/>
<path d="M435.584 1022.41C435.061 1019.79 434.537 1017.17 434.014 1013.5C438.726 1017.17 438.726 1018.22 435.584 1022.41Z" fill="black"/>
<path d="M609.425 1016.12C604.189 1015.08 602.095 1014.55 600.524 1014.55C601.571 1012.98 602.095 1011.41 603.142 1009.84C604.713 1011.41 605.76 1012.98 609.425 1016.12Z" fill="black"/>
<path d="M2120.07 436.949C2125.3 435.378 2127.92 434.854 2131.59 433.283C2128.97 439.044 2126.35 439.044 2120.07 436.949Z" fill="black"/>
<path d="M1218.39 743.295C1218.39 745.39 1218.39 747.484 1218.39 749.055C1217.35 749.055 1215.25 749.055 1215.25 749.055C1215.25 746.961 1215.25 744.866 1215.25 743.295C1216.3 743.295 1217.35 743.295 1218.39 743.295Z" fill="black"/>
<path d="M2114.83 543.775C2113.26 544.299 2112.21 544.823 2110.64 545.346C2109.59 545.346 2108.55 544.299 2105.4 542.728C2109.59 541.681 2111.69 541.68 2113.78 541.157C2114.31 541.68 2114.31 542.728 2114.83 543.775Z" fill="black"/>
<path d="M2146.77 535.399C2145.72 535.923 2144.68 536.97 2143.63 536.97C2143.11 536.97 2141.54 535.399 2141.54 534.876C2142.06 533.828 2143.11 532.781 2144.15 531.21C2144.68 532.781 2145.2 533.305 2146.77 535.399Z" fill="black"/>
<path d="M1566.6 903.009C1568.17 902.486 1569.74 901.962 1571.84 901.438C1572.36 902.486 1572.88 904.057 1572.88 904.057C1571.31 904.58 1569.74 905.104 1568.17 905.628C1567.65 905.104 1567.12 904.057 1566.6 903.009Z" fill="black"/>
<path d="M2350.46 416.524C2347.84 415.477 2346.27 414.429 2344.18 413.906C2347.32 410.24 2349.93 407.622 2352.55 405.003C2358.31 417.572 2358.31 418.619 2346.27 422.808C2347.84 420.19 2348.89 418.619 2350.46 416.524Z" fill="black"/>
<path d="M2349.41 434.854C2344.18 434.33 2338.94 433.283 2332.13 432.236C2342.08 430.141 2342.08 430.141 2349.41 434.854C2348.89 435.378 2349.41 434.854 2349.41 434.854Z" fill="black"/>
</svg>
