<svg width="201" height="200" viewBox="0 0 201 200" fill="none" xmlns="http://www.w3.org/2000/svg">
<path d="M100.414 148.973C104.747 149.01 108.557 147.815 112.143 145.835C116.176 143.631 119.575 140.642 122.713 137.355C125.402 134.516 127.755 131.453 129.473 127.942C131.192 124.468 132.163 120.769 132.013 116.885C131.901 113.784 131.117 110.796 129.81 107.994C128.577 105.379 127.046 102.951 125.066 100.859C122.825 98.431 120.509 96.115 118.193 93.7616C117.372 92.9024 116.513 92.0806 115.654 91.2214C110.499 86.1038 105.382 80.9487 100.228 75.8311C99.3311 74.9345 98.248 74.2622 96.9407 74.1874C95.1105 74.0754 93.6911 74.8972 92.7574 76.4288C91.8236 77.9603 91.8609 79.604 92.7947 81.0982C93.355 81.9573 94.102 82.7418 94.8117 83.4889C96.9033 85.6181 99.0697 87.71 101.161 89.8019C102.842 91.4829 104.486 93.1639 106.129 94.8449C106.39 95.1437 106.652 95.5173 106.764 95.8908C106.951 96.5259 106.615 97.2356 106.054 97.6092C105.457 97.9827 104.71 97.9454 104.112 97.4971C103.888 97.3103 103.664 97.0862 103.477 96.8621C100.302 93.6869 97.0901 90.4743 93.9153 87.2991C88.2753 81.6958 82.6726 76.0552 77.0326 70.4893C76.3976 69.8542 75.6506 69.2192 74.8662 68.7709C73.4469 67.9865 71.9529 67.9118 70.5335 68.8456C69.0021 69.8542 68.4419 71.7967 69.1142 73.6271C69.4877 74.6357 70.1227 75.4575 70.8697 76.2046C75.3892 80.7246 79.9086 85.2446 84.4281 89.7646C87.08 92.4168 89.7319 95.1064 92.3839 97.7586C92.608 97.9827 92.8321 98.1695 92.9815 98.431C93.467 99.1034 93.355 99.9626 92.7947 100.56C92.2345 101.121 91.4127 101.233 90.7404 100.784C90.4043 100.56 90.1054 100.261 89.8066 99.9626C79.4604 89.6152 69.0768 79.2678 58.7306 68.9203C58.2077 68.3974 57.6101 67.9118 56.9751 67.5756C54.8461 66.5296 52.5677 67.7623 51.4845 69.4807C50.5134 71.0122 50.6628 72.9174 51.7833 74.3369C52.1195 74.7478 52.4556 75.084 52.8292 75.4575C60.4861 83.1153 68.1431 90.7732 75.7627 98.3936C78.4893 101.121 81.2159 103.848 83.9425 106.574C84.1666 106.799 84.3907 106.985 84.5401 107.247C85.0257 107.957 84.8763 108.89 84.2413 109.451C83.6437 109.974 82.7473 110.011 82.1123 109.488C81.8509 109.301 81.6268 109.04 81.4027 108.816C72.3637 99.8131 63.3621 90.7732 54.3232 81.7706C54.1364 81.5838 53.987 81.4344 53.8003 81.2476C52.7171 80.1269 51.4845 79.9775 50.1025 80.5378C48.4591 81.2102 47.2639 82.4056 46.6289 84.0866C46.106 85.5434 46.2927 86.9256 47.4133 88.0836C47.6374 88.3077 47.8241 88.4945 48.0482 88.7186C55.2943 95.9656 62.5404 103.212 69.7865 110.459C71.6541 112.327 73.4843 114.195 75.3518 116.063C75.5012 116.212 75.6506 116.362 75.7627 116.511C76.3229 117.221 76.2856 118.117 75.688 118.715C75.053 119.35 74.1566 119.425 73.4096 118.864C73.1481 118.678 72.924 118.416 72.6999 118.192C66.0141 111.505 59.3282 104.856 52.6424 98.1695C52.4183 97.9454 52.2315 97.7586 52.0074 97.5345C50.8495 96.4512 49.5423 96.3018 48.1229 97.0115C45.8445 98.1695 44.0143 101.644 46.4421 104.744C46.7036 105.08 47.0397 105.416 47.3386 105.715C58.6933 117.071 70.0853 128.465 81.44 139.821C84.316 142.697 87.4535 145.2 91.1513 146.918C94.2141 148.263 97.3142 149.01 100.414 148.973Z" fill="#AECEE6"/>
<path d="M100.133 148.973C95.8003 149.01 91.9905 147.815 88.4048 145.835C84.3709 143.631 80.972 140.642 77.8345 137.355C75.1452 134.516 72.7921 131.453 71.074 127.942C69.3558 124.468 68.3847 120.769 68.5341 116.885C68.6461 113.784 69.4305 110.796 70.7378 107.994C71.9704 105.379 73.5018 102.951 75.4814 100.859C77.7224 98.431 80.0382 96.115 82.354 93.7616C83.1757 92.9024 84.0348 92.0806 84.8938 91.2214C90.0483 86.1038 95.1654 80.9487 100.32 75.8311C101.216 74.9345 102.299 74.2622 103.607 74.1874C105.437 74.0754 106.856 74.8972 107.79 76.4288C108.724 77.9603 108.686 79.604 107.753 81.0982C107.192 81.9573 106.445 82.7418 105.736 83.4889C103.644 85.6181 101.478 87.71 99.386 89.8019C97.7052 91.4829 96.0618 93.1639 94.4183 94.8449C94.1569 95.1437 93.8954 95.5173 93.7834 95.8908C93.5966 96.5259 93.9328 97.2356 94.493 97.6092C95.0907 97.9827 95.8377 97.9454 96.4353 97.4971C96.6594 97.3103 96.8835 97.0862 97.0703 96.8621C100.245 93.6869 103.457 90.4743 106.632 87.2991C112.272 81.6958 117.875 76.0552 123.515 70.4893C124.15 69.8542 124.897 69.2192 125.681 68.7709C127.1 67.9865 128.595 67.9118 130.014 68.8456C131.545 69.8542 132.105 71.7967 131.433 73.6271C131.06 74.6357 130.425 75.4575 129.678 76.2046C125.158 80.7246 120.639 85.2446 116.119 89.7646C113.467 92.4168 110.815 95.1064 108.164 97.7586C107.939 97.9827 107.715 98.1695 107.566 98.431C107.08 99.1034 107.192 99.9626 107.753 100.56C108.313 101.121 109.135 101.233 109.807 100.784C110.143 100.56 110.442 100.261 110.741 99.9626C121.087 89.6152 131.471 79.2678 141.817 68.9203C142.34 68.3974 142.937 67.9118 143.572 67.5756C145.701 66.5296 147.98 67.7623 149.063 69.4807C150.034 71.0122 149.885 72.9174 148.764 74.3369C148.428 74.7478 148.092 75.084 147.718 75.4575C140.061 83.1153 132.404 90.7732 124.785 98.3936C122.058 101.121 119.331 103.848 116.605 106.574C116.381 106.799 116.157 106.985 116.007 107.247C115.522 107.957 115.671 108.89 116.306 109.451C116.904 109.974 117.8 110.011 118.435 109.488C118.696 109.301 118.921 109.04 119.145 108.816C128.184 99.8131 137.185 90.7732 146.224 81.7706C146.411 81.5838 146.56 81.4344 146.747 81.2476C147.83 80.1269 149.063 79.9775 150.445 80.5378C152.088 81.2102 153.284 82.4056 153.918 84.0866C154.441 85.5434 154.255 86.9256 153.134 88.0836C152.91 88.3077 152.723 88.4945 152.499 88.7186C145.253 95.9656 138.007 103.212 130.761 110.459C128.893 112.327 127.063 114.195 125.196 116.063C125.046 116.212 124.897 116.362 124.785 116.511C124.224 117.221 124.262 118.117 124.859 118.715C125.494 119.35 126.391 119.425 127.138 118.864C127.399 118.678 127.623 118.416 127.847 118.192C134.533 111.505 141.219 104.856 147.905 98.1695C148.129 97.9454 148.316 97.7586 148.54 97.5345C149.698 96.4512 151.005 96.3018 152.424 97.0115C154.703 98.1695 156.533 101.644 154.105 104.744C153.844 105.08 153.508 105.416 153.209 105.715C141.854 117.071 130.462 128.465 119.107 139.821C116.231 142.697 113.094 145.2 109.396 146.918C106.333 148.263 103.233 149.01 100.133 148.973Z" fill="#FF6E2E"/>
<path d="M46.3105 185.095C44.4803 183.9 42.6874 182.742 40.8199 181.547C41.0066 181.248 41.156 180.986 41.3428 180.725C43.5465 177.325 45.7876 173.926 47.9539 170.489C48.4768 169.705 48.925 168.846 49.3359 167.987C49.5974 167.426 49.7468 166.791 49.8588 166.194C50.0829 165.11 49.7468 164.139 48.9624 163.317C47.1695 161.375 44.4056 161.039 42.2019 162.533C41.1187 163.28 40.297 164.251 39.5873 165.334C37.4209 168.696 35.2172 172.058 33.0509 175.42C32.9015 175.682 32.7147 175.906 32.4906 176.205C30.6604 175.009 28.8676 173.851 27 172.656C31.5195 165.708 35.9642 158.835 40.4837 151.886C42.3513 153.082 44.1441 154.24 45.9743 155.473C45.3767 156.406 44.8164 157.266 44.2188 158.2C45.1526 158.013 45.8996 157.751 46.684 157.677C50.195 157.34 52.9589 158.76 55.1253 161.412C56.0964 162.57 56.5073 163.99 56.5073 165.484C56.5073 165.969 56.5073 166.418 56.5073 166.978C56.7314 166.903 56.9555 166.829 57.1423 166.754C59.5701 165.558 61.9979 165.633 64.3884 166.866C65.3968 167.389 66.4053 168.061 67.3017 168.771C69.8416 170.9 70.6633 173.627 69.8789 176.84C69.4307 178.708 68.609 180.463 67.6005 182.07C65.1354 185.917 62.6329 189.765 60.1677 193.575C60.093 193.687 59.9809 193.799 59.8315 193.948C58.0013 192.753 56.2085 191.595 54.3783 190.437C54.6024 190.101 54.7518 189.802 54.9385 189.541C57.1796 186.067 59.458 182.592 61.6991 179.081C62.2967 178.147 62.8196 177.176 63.1931 176.13C63.9775 174.038 63.3799 172.507 61.475 171.311C59.346 169.966 57.3664 170.116 55.4615 171.722C54.453 172.544 53.6686 173.59 52.9963 174.673C50.9046 177.886 48.8503 181.098 46.7587 184.311C46.684 184.535 46.4972 184.796 46.3105 185.095Z" fill="black"/>
<path d="M134.122 36.9817C131.956 36.4961 129.902 36.0478 127.735 35.5622C127.96 34.5536 128.146 33.5824 128.333 32.6111C128.184 32.6485 128.109 32.6485 128.034 32.6858C125.793 34.6283 123.141 35.1139 120.303 34.4789C115.82 33.4703 113.169 30.594 112.197 26.2234C111.189 21.7034 112.16 17.4823 114.737 13.672C116.455 11.1692 118.771 9.52559 121.797 9.03997C124.374 8.62906 126.802 9.11468 129.043 10.4595C130.238 11.2066 131.134 12.2525 131.769 13.4852C131.919 13.7467 132.031 14.0082 132.367 14.2697C133.413 9.56294 134.459 4.81883 135.542 0C137.671 0.485618 139.762 0.933881 141.929 1.4195C139.389 13.2985 136.774 25.1027 134.122 36.9817ZM118.323 24.2062C118.36 24.5798 118.398 25.1027 118.472 25.5883C118.958 28.8009 121.685 30.7434 124.859 30.2204C126.839 29.8842 128.296 28.7635 129.304 27.0452C130.163 25.6257 130.611 24.0568 130.873 22.4132C131.134 20.7322 131.06 19.0512 130.35 17.4823C129.341 15.3157 127.586 14.1576 125.233 13.9709C122.917 13.7841 121.348 14.9795 120.191 16.9219C120.078 17.1461 119.966 17.3328 119.854 17.557C118.883 19.6489 118.472 21.8155 118.323 24.2062Z" fill="black"/>
<path d="M62.1474 32.9473C62.8944 34.4789 63.6414 35.8984 64.3884 37.4299C62.9318 38.6253 61.3257 39.3724 59.4955 39.6713C57.5906 39.9701 55.9845 39.2977 54.4904 37.9903C54.4531 38.5506 54.4531 38.9615 54.3784 39.3351C54.1169 40.9787 53.3325 42.3235 52.1373 43.4068C50.4939 44.901 48.589 45.8349 46.3479 45.9469C45.4515 45.9843 44.4804 45.8349 43.6213 45.5734C40.2971 44.5648 37.0849 39.6339 40.0356 35.1886C40.8573 33.9185 41.9031 32.8352 43.0984 31.9761C44.6671 30.8928 46.3106 29.8842 47.9167 28.8382C48.2155 28.6515 48.5516 28.502 48.9625 28.2405C48.3275 27.1199 47.954 25.9245 47.1323 24.9906C46.3479 24.1315 45.3394 23.8326 44.2189 24.0941C43.4345 24.2809 42.6875 24.6544 42.0525 25.1774C41.0067 26.0366 40.5959 27.1199 40.9694 28.4647C41.0814 28.8009 41.1935 29.1371 41.3055 29.548C39.438 30.4819 37.5704 31.4157 35.6282 32.387C34.9185 31.0422 34.6571 29.6974 34.7691 28.2779C34.8812 26.4475 35.5535 24.8412 36.8234 23.5338C39.5127 20.7321 42.8369 19.1259 46.7588 19.0512C49.7095 19.0138 51.9132 20.3959 53.3326 22.9735C54.0422 24.2809 54.6772 25.6257 55.3495 26.9705C56.2086 28.6515 57.0303 30.3324 57.8894 32.0134C58.1135 32.4617 58.3749 32.91 58.6737 33.3209C59.1593 33.9559 59.6822 34.068 60.4292 33.8065C60.728 33.6944 60.9895 33.5824 61.251 33.4329C61.5498 33.2835 61.8112 33.1341 62.1474 32.9473ZM50.6433 31.6025C49.0745 32.499 47.5805 33.3209 46.4226 34.5909C46.0865 34.9645 45.7876 35.3754 45.5262 35.7863C44.8539 36.9443 44.9286 38.1023 45.5635 39.2604C46.0865 40.2316 47.0202 40.6425 48.1408 40.4557C50.0083 40.0822 51.3156 38.7747 51.6891 36.8696C51.9879 35.0019 51.5024 33.3209 50.6433 31.6025Z" fill="black"/>
<path d="M146.299 169.817C144.506 167.501 143.983 165.073 144.768 162.383C144.917 161.935 145.066 161.487 145.29 161.076C147.158 157.714 149.922 155.398 153.62 154.314C156.72 153.418 159.409 154.277 161.501 156.78C162.845 158.386 164.19 159.955 165.572 161.561C166.394 162.533 167.215 163.541 168.075 164.512C169.419 166.044 170.092 166.081 171.548 164.737C171.735 164.55 171.959 164.4 172.183 164.176C173.266 165.446 174.312 166.716 175.358 167.949C173.976 170.34 170.726 172.058 168.224 171.685C167.477 171.573 166.73 171.274 165.946 171.012C165.946 171.162 165.946 171.274 165.983 171.423C166.394 173.179 166.058 174.823 165.161 176.317C163.854 178.483 161.986 180.052 159.484 180.687C154.815 181.845 151.005 177.923 150.818 174.337C150.744 173.104 151.08 171.909 151.565 170.788C152.126 169.481 152.91 168.323 153.844 167.277C155.002 166.007 156.234 164.774 157.467 163.541C157.691 163.317 157.952 163.093 158.177 162.869C157.766 162.01 156.272 160.291 155.525 159.88C154.778 159.47 153.993 159.357 153.209 159.656C152.014 160.067 151.08 160.852 150.482 162.01C150.034 162.906 150.071 163.803 150.52 164.699C150.706 165.073 150.93 165.409 151.192 165.82C149.548 167.053 147.942 168.397 146.299 169.817ZM160.642 165.521C159.297 166.754 158.065 167.949 157.168 169.481C156.944 169.854 156.757 170.265 156.645 170.713C156.234 171.946 156.496 173.067 157.317 174.038C158.102 174.972 159.073 175.233 160.194 174.71C161.688 174.038 162.584 172.88 162.771 171.199C163.032 168.995 162.098 167.239 160.642 165.521Z" fill="black"/>
<path d="M155.375 30.7808C155.861 29.7722 156.346 28.8383 156.72 27.8671C157.205 26.5597 156.869 25.4016 155.786 24.4678C155.076 23.8701 154.292 23.4965 153.396 23.3097C152.163 23.0856 151.155 23.5339 150.407 24.5051C150.183 24.7666 149.997 25.0654 149.773 25.4016C147.868 24.4678 146.037 23.5339 144.095 22.5626C144.282 22.2264 144.431 21.9276 144.618 21.6661C146.635 18.7524 149.474 17.7065 152.91 18.3041C155.823 18.8271 158.401 20.1719 160.492 22.2638C162.21 23.9448 163.182 25.962 162.995 28.4648C162.92 29.6228 162.509 30.6687 161.986 31.6773C160.567 34.5163 159.148 37.3553 157.766 40.1943C157.542 40.6426 157.355 41.1282 157.205 41.6138C156.981 42.2862 157.243 42.8465 157.84 43.2201C158.363 43.5563 158.924 43.8178 159.558 44.1166C158.811 45.6108 158.102 47.0677 157.392 48.4498C157.243 48.4872 157.168 48.5245 157.131 48.5245C155.039 47.9269 153.209 46.9556 151.864 45.1626C151.267 44.3408 150.93 43.3695 150.93 42.3236C150.93 41.95 150.93 41.5391 150.93 41.0908C150.781 41.1282 150.669 41.1282 150.594 41.2029C148.764 42.6224 146.71 42.7718 144.543 42.2489C142.863 41.838 141.369 41.0535 140.136 39.8208C138.194 37.9157 137.596 35.5996 138.306 32.9848C138.978 30.482 140.509 28.6889 143.087 28.0165C144.917 27.5309 146.747 27.7924 148.577 28.2033C150.632 28.6889 152.536 29.5107 154.441 30.3325C154.703 30.5193 154.964 30.6314 155.375 30.7808ZM153.694 34.1054C152.35 33.433 151.005 32.91 149.623 32.6112C148.951 32.4618 148.278 32.4244 147.569 32.4244C146.149 32.4618 145.178 33.2089 144.543 34.4416C144.058 35.4128 144.17 36.3841 144.917 37.1685C145.963 38.2518 147.233 38.7375 148.727 38.4386C151.192 37.953 152.611 36.272 153.694 34.1054Z" fill="black"/>
<path d="M116.979 173.739C118.995 172.992 120.975 172.245 123.029 171.461C123.141 171.76 123.291 172.021 123.366 172.283C124.785 176.093 126.204 179.903 127.661 183.676C128.072 184.722 128.52 185.805 129.118 186.739C130.537 189.055 132.591 189.503 134.944 188.159C136.849 187.075 137.82 184.983 137.447 182.667C137.297 181.771 137.036 180.874 136.737 179.978C135.393 176.28 133.973 172.581 132.591 168.921C132.479 168.659 132.404 168.36 132.292 167.987C134.347 167.24 136.326 166.492 138.418 165.708C141.331 173.441 144.207 181.136 147.083 188.906C145.029 189.69 143.05 190.437 140.958 191.222C140.584 190.25 140.211 189.317 139.8 188.308C139.501 188.98 139.314 189.578 139.016 190.138C137.746 192.566 135.654 193.986 133.114 194.733C129.865 195.667 127.175 194.845 124.972 192.305C123.702 190.848 122.768 189.167 122.058 187.374C120.34 182.929 118.697 178.484 117.016 174.038C117.016 173.964 116.979 173.926 116.979 173.739Z" fill="black"/>
<path d="M75.2577 171.946C77.3867 172.282 79.4783 172.619 81.6821 172.955C81.4953 174.188 81.3085 175.383 81.1218 176.541C80.5615 180.015 80.0013 183.489 79.4783 186.963C79.2916 188.158 79.2542 189.354 79.5904 190.512C79.9266 191.782 80.7483 192.641 81.9809 193.089C84.446 193.911 86.9112 192.977 88.2185 190.736C88.8908 189.578 89.1896 188.308 89.3764 187C89.974 183.153 90.6089 179.268 91.2066 175.42C91.2439 175.121 91.3186 174.86 91.3933 174.524C93.5597 174.86 95.6513 175.196 97.8177 175.532C96.5104 183.713 95.2405 191.819 93.9332 200C91.7295 199.664 89.6378 199.328 87.4715 198.954C87.6209 197.946 87.7703 196.974 87.9197 195.891C87.6582 196.078 87.5088 196.153 87.3594 196.265C84.0725 199.29 78.9554 198.879 76.0421 196.862C74.0625 195.517 73.2407 193.5 72.9046 191.259C72.5684 189.055 72.7925 186.851 73.1287 184.647C73.7636 180.613 74.3986 176.578 75.0709 172.544C75.1456 172.395 75.183 172.208 75.2577 171.946Z" fill="black"/>
<path d="M90.7207 7.35891C90.7581 8.96519 90.8328 10.4594 90.8702 11.9536C90.9822 15.3529 91.0569 18.7523 91.2437 22.1516C91.281 23.0855 91.5425 24.0567 91.8786 24.9159C92.4015 26.2607 93.4474 26.9704 94.9041 27.0825C97.8548 27.3813 100.171 25.5883 100.693 22.5625C100.843 21.7407 100.918 20.8815 100.88 20.0597C100.806 16.1374 100.656 12.2524 100.544 8.33015C100.544 7.9566 100.544 7.54569 100.544 7.06007C102.71 6.87329 104.839 6.948 107.08 6.83594C107.305 15.0914 107.566 23.2723 107.79 31.5278C105.624 31.7145 103.495 31.6025 101.291 31.7892C101.216 30.7433 101.179 29.7347 101.104 28.5767C100.88 28.8755 100.806 28.9876 100.693 29.0997C99.0127 31.2663 96.7716 32.3496 94.0823 32.5364C93.2233 32.5737 92.3642 32.5364 91.5051 32.3869C89.0773 32.0134 87.3592 30.6686 86.2013 28.5393C85.3422 26.9331 84.894 25.1774 84.7446 23.3843C84.5578 20.9936 84.4831 18.6028 84.3711 16.2121C84.259 13.6346 84.2217 11.0944 84.147 8.51692C84.147 8.18073 84.147 7.88188 84.147 7.47098C86.388 7.50833 88.4797 7.43362 90.7207 7.35891Z" fill="black"/>
<path d="M65.2474 48.2256C64.7992 46.4326 64.3509 44.7516 63.9027 42.9959C64.6124 42.8838 65.2474 42.8465 65.845 42.697C66.6294 42.5476 67.4137 42.3235 68.1981 42.0994C69.3186 41.7632 69.9536 40.9413 70.0656 39.8207C70.1777 38.7374 70.1404 37.6914 70.1404 36.6081C70.1404 36.2719 69.9162 35.9357 69.6921 35.6742C65.8076 29.9215 61.9231 24.2062 58.0386 18.4535C57.1422 17.1087 56.2458 15.8013 55.2373 14.3444C57.441 13.7841 59.57 13.2237 61.7737 12.6261C64.9859 18.1546 68.1607 23.6459 71.3356 29.0997C71.4103 29.0624 71.485 29.0624 71.5223 29.025C71.6344 22.6746 71.7464 16.3616 71.8585 9.97383C73.9875 9.4135 76.0418 8.89053 78.1708 8.3302C78.1708 8.6664 78.1708 8.92788 78.1708 9.18937C77.9094 12.3646 77.6479 15.5771 77.3864 18.7523C77.1623 21.3298 76.9756 23.87 76.7515 26.4475C76.5274 29.025 76.3033 31.6399 76.1165 34.2174C76.0045 35.6743 75.9671 37.1311 75.8551 38.588C75.743 40.1195 75.5189 41.6137 74.9213 43.0332C74.0996 45.0504 72.6802 46.4699 70.6259 47.1797C68.9078 47.8147 67.1523 48.1136 65.2474 48.2256Z" fill="black"/>
<path d="M116.792 193.313C116.978 195.107 117.128 196.788 117.315 198.581C116.978 198.655 116.754 198.73 116.493 198.767C114.663 199.104 112.832 199.402 110.965 199.29C107.79 199.066 105.773 197.198 105.437 193.986C105.026 190.325 104.69 186.664 104.316 183.003C104.204 181.883 104.092 180.762 103.943 179.567C102.748 179.679 101.627 179.754 100.432 179.866C100.282 178.259 100.133 176.69 99.9463 175.084C101.142 174.935 102.225 174.823 103.457 174.711C103.196 172.133 102.972 169.593 102.71 166.941C104.877 166.717 106.968 166.53 109.172 166.306C109.583 168.883 109.658 171.461 110.031 174.076C111.488 173.926 112.832 173.814 114.289 173.665C114.625 175.196 114.625 176.765 114.849 178.446C113.393 178.596 111.973 178.782 110.479 178.932C110.591 180.164 110.703 181.36 110.815 182.555C111.077 185.319 111.376 188.084 111.637 190.848C111.674 191.222 111.712 191.633 111.787 192.006C111.973 193.164 112.571 193.687 113.729 193.65C114.438 193.65 115.148 193.5 115.858 193.426C116.157 193.388 116.418 193.351 116.792 193.313Z" fill="black"/>
</svg>
