<svg width="1775" height="1320" viewBox="0 0 1775 1320" fill="none" xmlns="http://www.w3.org/2000/svg">
<path d="M889.556 1319.81C959.478 1320.41 1020.96 1301.12 1078.83 1269.17C1143.93 1233.6 1198.78 1185.37 1249.41 1132.32C1292.81 1086.51 1330.78 1037.07 1358.51 980.408C1386.24 924.344 1401.91 864.663 1399.5 801.967C1397.69 751.932 1385.03 703.705 1363.94 658.492C1344.05 616.293 1319.33 577.108 1287.38 543.349C1251.22 504.165 1213.85 466.789 1176.48 428.81C1163.21 414.944 1149.35 401.682 1135.49 387.817C1052.3 305.228 969.725 222.036 886.542 139.447C872.076 124.979 854.595 114.127 833.499 112.922C803.963 111.113 781.057 124.376 765.988 149.092C750.919 173.809 751.522 200.333 766.591 224.447C775.632 238.312 787.688 250.972 799.141 263.029C832.896 297.391 867.856 331.15 901.612 364.909C928.736 392.036 955.258 419.164 981.78 446.292C985.999 451.115 990.219 457.143 992.027 463.172C995.041 473.42 989.616 484.874 980.575 490.902C970.93 496.93 958.875 496.328 949.23 489.094C945.614 486.079 941.997 482.462 938.983 478.845C887.748 427.604 835.91 375.76 784.674 324.518C693.656 234.092 603.24 143.064 512.222 53.2406C501.974 42.9923 489.919 32.7441 477.261 25.51C454.356 12.8504 430.245 11.6447 407.339 26.7157C382.626 42.9924 373.584 74.34 384.434 103.879C390.462 120.156 400.709 133.418 412.764 145.475C485.7 218.419 558.635 291.362 631.57 364.306C674.367 407.107 717.164 450.512 759.96 493.314C763.577 496.931 767.194 499.945 769.605 504.165C777.441 515.016 775.632 528.881 766.591 538.527C757.549 547.569 744.288 549.378 733.439 542.143C728.014 538.526 723.191 533.704 718.369 528.881C551.402 361.895 383.831 194.908 216.864 27.9214C208.425 19.4816 198.781 11.6446 188.534 6.21909C154.176 -10.6604 117.407 9.23332 99.9264 36.9639C84.2543 61.6804 86.6655 92.4252 104.749 115.333C110.174 121.964 115.598 127.39 121.626 133.418C245.194 257 368.762 380.582 491.727 503.562C535.73 547.569 579.732 591.576 623.734 635.584C627.351 639.201 630.967 642.215 633.379 646.435C641.215 657.889 638.804 672.96 628.556 682.002C618.912 690.442 604.446 691.045 594.198 682.605C589.979 679.591 586.362 675.371 582.746 671.754C436.875 526.47 291.608 380.582 145.737 235.298C142.723 232.284 140.312 229.873 137.298 226.858C119.818 208.773 99.9265 206.362 77.6239 215.404C51.1021 226.256 31.8132 245.546 21.5662 272.674C13.1273 296.185 16.1412 318.49 34.2244 337.178C37.8411 340.795 40.855 343.809 44.4716 347.426C161.409 464.377 278.347 581.328 395.284 698.279C425.423 728.421 454.958 758.563 485.097 788.705C487.508 791.116 489.919 793.528 491.727 795.939C500.769 807.393 500.166 821.861 490.522 831.506C480.275 841.755 465.808 842.961 453.753 833.918C449.534 830.904 445.917 826.684 442.3 823.067C334.404 715.158 226.508 607.853 118.612 499.945C114.996 496.328 111.982 493.314 108.365 489.697C89.6792 472.214 68.5823 469.803 45.677 481.257C8.90796 499.945 -20.6278 556.009 18.5522 606.044C22.7717 611.47 28.1967 616.896 33.0188 621.718C216.261 804.982 400.106 988.848 583.349 1172.11C629.762 1218.53 680.395 1258.92 740.069 1286.65C789.496 1308.35 839.526 1320.41 889.556 1319.81Z" fill="#AECEE6"/>
<path d="M885.02 1319.81C815.099 1320.41 753.616 1301.12 695.75 1269.17C630.651 1233.6 575.799 1185.37 525.166 1132.32C481.766 1086.51 443.792 1037.07 416.064 980.408C388.337 924.344 372.665 864.663 375.076 801.967C376.884 751.932 389.542 703.705 410.639 658.492C430.531 616.293 455.244 577.108 487.191 543.349C523.358 504.165 560.729 466.789 598.101 428.81C611.362 414.944 625.226 401.682 639.09 387.817C722.272 305.228 804.852 222.036 888.034 139.447C902.5 124.979 919.981 114.127 941.078 112.922C970.613 111.113 993.519 124.376 1008.59 149.092C1023.66 173.809 1023.05 200.333 1007.99 224.447C998.944 238.312 986.888 250.972 975.436 263.029C941.68 297.391 906.72 331.15 872.965 364.909C845.84 392.036 819.318 419.164 792.796 446.292C788.577 451.115 784.357 457.143 782.549 463.172C779.535 473.42 784.96 484.874 794.002 490.902C803.646 496.93 815.701 496.328 825.346 489.094C828.962 486.079 832.579 482.462 835.593 478.845C886.828 427.604 938.667 375.76 989.902 324.518C1080.92 234.092 1171.34 143.064 1262.35 53.2406C1272.6 42.9923 1284.66 32.7441 1297.32 25.51C1320.22 12.8504 1344.33 11.6447 1367.24 26.7157C1391.95 42.9924 1400.99 74.34 1390.14 103.879C1384.11 120.156 1373.87 133.418 1361.81 145.475C1288.88 218.419 1215.94 291.362 1143.01 364.306C1100.21 407.107 1057.41 450.512 1014.62 493.314C1011 496.931 1007.38 499.945 1004.97 504.165C997.135 515.016 998.944 528.881 1007.99 538.527C1017.03 547.569 1030.29 549.378 1041.14 542.143C1046.56 538.526 1051.38 533.704 1056.21 528.881C1223.17 361.895 1390.74 194.908 1557.71 27.9214C1566.15 19.4816 1575.8 11.6446 1586.04 6.21909C1620.4 -10.6604 1657.17 9.23332 1674.65 36.9639C1690.32 61.6804 1687.91 92.4252 1669.83 115.333C1664.4 121.964 1658.98 127.39 1652.95 133.418C1529.38 257 1405.81 380.582 1282.85 503.562C1238.85 547.569 1194.84 591.576 1150.84 635.584C1147.23 639.201 1143.61 642.215 1141.2 646.435C1133.36 657.889 1135.77 672.96 1146.02 682.002C1155.66 690.442 1170.13 691.045 1180.38 682.605C1184.6 679.591 1188.21 675.371 1191.83 671.754C1337.7 526.47 1482.97 380.582 1628.84 235.298C1631.85 232.284 1634.26 229.873 1637.28 226.858C1654.76 208.773 1674.65 206.362 1696.95 215.404C1723.47 226.256 1742.76 245.546 1753.01 272.674C1761.45 296.185 1758.43 318.49 1740.35 337.178C1736.74 340.795 1733.72 343.809 1730.1 347.426C1613.17 464.377 1496.23 581.328 1379.29 698.279C1349.15 728.421 1319.62 758.563 1289.48 788.705C1287.07 791.116 1284.66 793.528 1282.85 795.939C1273.81 807.393 1274.41 821.861 1284.05 831.506C1294.3 841.755 1308.77 842.961 1320.82 833.918C1325.04 830.904 1328.66 826.684 1332.28 823.067C1440.17 715.158 1548.07 607.853 1655.96 499.945C1659.58 496.328 1662.59 493.314 1666.21 489.697C1684.9 472.214 1705.99 469.803 1728.9 481.257C1765.67 499.945 1795.2 556.009 1756.02 606.044C1751.8 611.47 1746.38 616.896 1741.56 621.718C1558.32 804.982 1374.47 988.848 1191.23 1172.11C1144.81 1218.53 1094.18 1258.92 1034.51 1286.65C985.08 1308.35 935.05 1320.41 885.02 1319.81Z" fill="#FF6E2E"/>
</svg>
