<svg width="122" height="163" viewBox="0 0 122 163" fill="none" xmlns="http://www.w3.org/2000/svg">
<path d="M61.0599 120.789C64.5729 120.819 67.6619 119.85 70.5693 118.244C73.84 116.457 76.5959 114.034 79.1398 111.369C81.3203 109.067 83.2282 106.584 84.6213 103.736C86.0144 100.92 86.8018 97.9212 86.6807 94.7712C86.5898 92.2573 85.9538 89.8343 84.8939 87.5627C83.8945 85.4425 82.6528 83.4738 81.0477 81.7776C79.2307 79.8089 77.353 77.931 75.4754 76.0229C74.8091 75.3263 74.1126 74.6599 73.416 73.9633C69.2367 69.8139 65.0878 65.6341 60.9085 61.4846C60.1816 60.7577 59.3034 60.2125 58.2434 60.152C56.7595 60.0611 55.6087 60.7274 54.8516 61.9692C54.0944 63.2111 54.1247 64.5437 54.8818 65.7553C55.3361 66.4519 55.9418 67.0879 56.5172 67.6937C58.2131 69.4201 59.9697 71.1162 61.6656 72.8124C63.0284 74.1753 64.3609 75.5383 65.6934 76.9013C65.9054 77.1436 66.1174 77.4464 66.2083 77.7493C66.3597 78.2642 66.0871 78.8397 65.6329 79.1426C65.1483 79.4454 64.5426 79.4152 64.0581 79.0517C63.8764 78.9003 63.6947 78.7185 63.5432 78.5368C60.969 75.9623 58.3646 73.3576 55.7904 70.7831C51.2174 66.2399 46.6747 61.6664 42.1017 57.1534C41.5869 56.6385 40.9812 56.1237 40.3452 55.7602C39.1944 55.1241 37.983 55.0636 36.8322 55.8208C35.5906 56.6386 35.1363 58.2135 35.6814 59.6976C35.9843 60.5154 36.4991 61.1818 37.1048 61.7875C40.7692 65.4524 44.4337 69.1172 48.0981 72.7821C50.2483 74.9325 52.3985 77.1133 54.5487 79.2637C54.7304 79.4455 54.9121 79.5969 55.0333 79.8089C55.427 80.3541 55.3361 81.0507 54.8818 81.5353C54.4276 81.9897 53.7613 82.0805 53.2162 81.7171C52.9436 81.5353 52.7014 81.293 52.4591 81.0507C44.0702 72.6609 35.6511 64.2711 27.2623 55.8813C26.8383 55.4573 26.3538 55.0636 25.8389 54.791C24.1127 53.9429 22.2653 54.9424 21.3871 56.3357C20.5997 57.5775 20.7208 59.1222 21.6294 60.2731C21.9019 60.6063 22.1745 60.8789 22.4773 61.1818C28.6857 67.3908 34.894 73.5999 41.0721 79.7786C43.2828 81.9896 45.4936 84.2007 47.7044 86.4117C47.8861 86.5934 48.0678 86.7449 48.1889 86.9569C48.5826 87.5324 48.4615 88.2896 47.9467 88.7439C47.4621 89.1679 46.7353 89.1982 46.2204 88.7742C46.0085 88.6227 45.8268 88.4107 45.645 88.229C38.3162 80.9296 31.0176 73.5999 23.6887 66.3004C23.5373 66.149 23.4162 66.0278 23.2647 65.8764C22.3865 64.9678 21.3871 64.8466 20.2666 65.3009C18.934 65.8461 17.9649 66.8153 17.4501 68.1783C17.0261 69.3595 17.1775 70.4802 18.0861 71.4191C18.2678 71.6008 18.4192 71.7523 18.6009 71.934C24.4761 77.8099 30.3513 83.6858 36.2265 89.5617C37.7408 91.0761 39.2247 92.5905 40.7389 94.1049C40.8601 94.226 40.9812 94.3472 41.0721 94.4683C41.5263 95.0438 41.4961 95.7707 41.0115 96.2553C40.4967 96.7702 39.7698 96.8308 39.1641 96.3765C38.9522 96.225 38.7704 96.013 38.5887 95.8313C33.1678 90.4097 27.7468 85.0184 22.3259 79.5969C22.1442 79.4152 21.9928 79.2637 21.8111 79.082C20.8722 78.2036 19.8123 78.0825 18.6615 78.658C16.8141 79.5969 15.3302 82.4137 17.2987 84.9276C17.5107 85.2002 17.7832 85.4728 18.0255 85.7151C27.232 94.9226 36.4688 104.16 45.6753 113.368C48.0072 115.7 50.5511 117.73 53.5493 119.123C56.0327 120.213 58.5463 120.819 61.0599 120.789Z" fill="#AECEE6"/>
<path d="M60.8322 120.789C57.3192 120.819 54.2301 119.85 51.3228 118.244C48.0521 116.457 45.2962 114.034 42.7523 111.369C40.5718 109.067 38.6639 106.584 37.2708 103.736C35.8777 100.92 35.0903 97.9212 35.2114 94.7712C35.3023 92.2573 35.9383 89.8343 36.9982 87.5627C37.9976 85.4425 39.2393 83.4738 40.8444 81.7776C42.6614 79.8089 44.5391 77.931 46.4167 76.0229C47.083 75.3263 47.7795 74.6599 48.4761 73.9633C52.6553 69.8139 56.8043 65.6341 60.9836 61.4846C61.7104 60.7577 62.5887 60.2125 63.6487 60.152C65.1326 60.0611 66.2834 60.7274 67.0405 61.9692C67.7976 63.2111 67.7674 64.5437 67.0102 65.7553C66.556 66.4519 65.9503 67.0879 65.3749 67.6937C63.6789 69.4201 61.9224 71.1162 60.2265 72.8124C58.8637 74.1753 57.5312 75.5383 56.1986 76.9013C55.9867 77.1436 55.7747 77.4464 55.6838 77.7493C55.5324 78.2642 55.8049 78.8397 56.2592 79.1426C56.7438 79.4454 57.3495 79.4152 57.834 79.0517C58.0157 78.9003 58.1974 78.7185 58.3488 78.5368C60.923 75.9623 63.5275 73.3576 66.1017 70.7831C70.6747 66.2399 75.2174 61.6664 79.7903 57.1534C80.3052 56.6385 80.9109 56.1237 81.5468 55.7602C82.6977 55.1241 83.909 55.0636 85.0599 55.8208C86.3015 56.6386 86.7558 58.2135 86.2107 59.6976C85.9078 60.5154 85.393 61.1818 84.7873 61.7875C81.1229 65.4524 77.4584 69.1172 73.794 72.7821C71.6438 74.9325 69.4936 77.1133 67.3434 79.2637C67.1617 79.4455 66.98 79.5969 66.8588 79.8089C66.4651 80.3541 66.556 81.0507 67.0102 81.5353C67.4645 81.9897 68.1308 82.0805 68.6759 81.7171C68.9485 81.5353 69.1907 81.293 69.433 81.0507C77.8218 72.6609 86.241 64.2711 94.6298 55.8813C95.0538 55.4573 95.5383 55.0636 96.0532 54.791C97.7794 53.9429 99.6267 54.9424 100.505 56.3357C101.292 57.5775 101.171 59.1222 100.263 60.2731C99.9902 60.6063 99.7176 60.8789 99.4148 61.1818C93.2064 67.3908 86.9981 73.5999 80.82 79.7786C78.6092 81.9896 76.3985 84.2007 74.1877 86.4117C74.006 86.5934 73.8243 86.7449 73.7031 86.9569C73.3094 87.5324 73.4306 88.2896 73.9454 88.7439C74.43 89.1679 75.1568 89.1982 75.6716 88.7742C75.8836 88.6227 76.0653 88.4107 76.247 88.229C83.5759 80.9296 90.8745 73.5999 98.2034 66.3004C98.3548 66.149 98.4759 66.0278 98.6274 65.8764C99.5056 64.9678 100.505 64.8466 101.626 65.3009C102.958 65.8461 103.927 66.8153 104.442 68.1783C104.866 69.3595 104.715 70.4802 103.806 71.4191C103.624 71.6008 103.473 71.7523 103.291 71.934C97.416 77.8099 91.5408 83.6858 85.6656 89.5617C84.1513 91.0761 82.6674 92.5905 81.1531 94.1049C81.032 94.226 80.9109 94.3472 80.82 94.4683C80.3657 95.0438 80.396 95.7707 80.8806 96.2553C81.3954 96.7702 82.1223 96.8308 82.7279 96.3765C82.9399 96.225 83.1216 96.013 83.3033 95.8313C88.7243 90.4097 94.1452 85.0184 99.5662 79.5969C99.7479 79.4152 99.8993 79.2637 100.081 79.082C101.02 78.2036 102.08 78.0825 103.231 78.658C105.078 79.5969 106.562 82.4137 104.593 84.9276C104.381 85.2002 104.109 85.4728 103.867 85.7151C94.6601 94.9226 85.4233 104.16 76.2168 113.368C73.8848 115.7 71.3409 117.73 68.3428 119.123C65.8594 120.213 63.3458 120.819 60.8322 120.789Z" fill="#FF6E2E"/>
<path d="M89.6464 29.9852C87.8899 29.5914 86.2243 29.228 84.4678 28.8342C84.6495 28.0164 84.8009 27.229 84.9523 26.4415C84.8312 26.4718 84.7706 26.4718 84.71 26.502C82.893 28.077 80.7428 28.4708 78.4411 27.9559C74.807 27.1381 72.6568 24.8059 71.8694 21.2622C71.0517 17.5974 71.8391 14.1748 73.9287 11.0854C75.3218 9.05612 77.1995 7.72345 79.6525 7.32971C81.7422 6.99654 83.7106 7.39028 85.5277 8.48065C86.4968 9.08641 87.2237 9.93448 87.7385 10.934C87.8596 11.146 87.9505 11.358 88.223 11.57C89.071 7.75374 89.919 3.90716 90.7972 0C92.5235 0.393745 94.2194 0.757201 95.9759 1.15095C93.9166 10.7825 91.7966 20.3536 89.6464 29.9852ZM76.836 19.6267C76.8663 19.9295 76.8966 20.3536 76.9572 20.7473C77.3509 23.3521 79.5617 24.9271 82.1358 24.503C83.7409 24.2304 84.922 23.3218 85.7397 21.9285C86.4363 20.7776 86.7997 19.5055 87.0117 18.1728C87.2237 16.8099 87.1631 15.4469 86.5877 14.1748C85.77 12.4181 84.3466 11.4792 82.4387 11.3277C80.561 11.1763 79.2891 12.1455 78.3503 13.7205C78.2594 13.9022 78.1686 14.0537 78.0777 14.2354C77.2903 15.9315 76.9572 17.6882 76.836 19.6267Z" fill="black"/>
<path d="M31.2882 26.714C31.8939 27.9559 32.4996 29.1068 33.1053 30.3486C31.9242 31.3178 30.6219 31.9236 29.138 32.1659C27.5935 32.4082 26.2912 31.863 25.0798 30.8029C25.0496 31.2572 25.0496 31.5904 24.989 31.8933C24.777 33.226 24.141 34.3163 23.1719 35.1947C21.8394 36.4062 20.2949 37.1634 18.4778 37.2543C17.751 37.2846 16.9636 37.1634 16.267 36.9514C13.5717 36.1336 10.9672 32.1356 13.3597 28.5313C14.026 27.5015 14.8739 26.6232 15.843 25.9266C17.115 25.0482 18.4475 24.2304 19.7498 23.3824C19.992 23.2309 20.2646 23.1098 20.5977 22.8977C20.0829 21.9891 19.78 21.0199 19.1138 20.2627C18.4778 19.5661 17.6601 19.3238 16.7516 19.5358C16.1156 19.6872 15.5099 19.9901 14.9951 20.4141C14.1471 21.1108 13.814 21.9891 14.1168 23.0795C14.2077 23.3521 14.2985 23.6247 14.3894 23.9578C12.8752 24.715 11.3609 25.4722 9.78612 26.2597C9.21072 25.1694 8.99872 24.079 9.08958 22.928C9.18043 21.4439 9.72555 20.1415 10.7552 19.0815C12.9357 16.8098 15.631 15.5075 18.8109 15.4469C21.2034 15.4166 22.9902 16.5373 24.141 18.6271C24.7164 19.6872 25.2313 20.7776 25.7764 21.868C26.4729 23.2309 27.1392 24.5939 27.8357 25.9568C28.0174 26.3203 28.2294 26.6838 28.4717 27.0169C28.8654 27.5318 29.2894 27.6227 29.8951 27.4107C30.1374 27.3198 30.3494 27.2289 30.5614 27.1078C30.8036 26.9866 31.0156 26.8655 31.2882 26.714ZM21.9605 25.6237C20.6886 26.3506 19.4772 27.0169 18.5384 28.0467C18.2658 28.3496 18.0235 28.6828 17.8115 29.0159C17.2664 29.9549 17.327 30.8938 17.8418 31.8327C18.2658 32.6202 19.0229 32.9534 19.9315 32.8019C21.4457 32.4991 22.5057 31.439 22.8085 29.8943C23.0508 28.3799 22.6571 27.0169 21.9605 25.6237Z" fill="black"/>
<path d="M106.878 24.9574C107.272 24.1396 107.666 23.3824 107.969 22.5949C108.362 21.5348 108.09 20.5959 107.212 19.8387C106.636 19.3541 106 19.0512 105.273 18.8998C104.274 18.718 103.456 19.0815 102.851 19.869C102.669 20.081 102.517 20.3233 102.336 20.5959C100.791 19.8387 99.3073 19.0815 97.7325 18.294C97.8839 18.0214 98.005 17.7791 98.1565 17.5671C99.7918 15.2046 102.093 14.3566 104.88 14.8412C107.242 15.2652 109.331 16.3556 111.027 18.0517C112.42 19.4147 113.208 21.0502 113.056 23.0795C112.996 24.0185 112.663 24.8665 112.239 25.6843C111.088 27.9862 109.937 30.2881 108.817 32.59C108.635 32.9534 108.483 33.3472 108.362 33.7409C108.181 34.2861 108.393 34.7404 108.877 35.0433C109.301 35.3159 109.755 35.5279 110.27 35.7702C109.665 36.9817 109.089 38.163 108.514 39.2836C108.393 39.3139 108.332 39.3442 108.302 39.3442C106.606 38.8596 105.122 38.0721 104.032 36.6183C103.547 35.9519 103.275 35.1645 103.275 34.3164C103.275 34.0135 103.275 33.6803 103.275 33.3169C103.153 33.3472 103.063 33.3472 103.002 33.4078C101.518 34.5587 99.8524 34.6798 98.0959 34.2558C96.7331 33.9226 95.5217 33.2866 94.5223 32.2871C92.9475 30.7424 92.463 28.8645 93.0384 26.7444C93.5835 24.7151 94.8252 23.2613 96.9148 22.7161C98.3987 22.3223 99.8827 22.5343 101.367 22.8675C103.032 23.2613 104.577 23.9276 106.121 24.5939C106.333 24.7454 106.545 24.8362 106.878 24.9574ZM105.516 27.653C104.425 27.1078 103.335 26.6838 102.215 26.4415C101.669 26.3203 101.124 26.2901 100.549 26.2901C99.3981 26.3203 98.6107 26.9261 98.0959 27.9256C97.7022 28.7131 97.793 29.5006 98.3987 30.1366C99.2467 31.015 100.276 31.4087 101.488 31.1664C103.487 30.7727 104.637 29.4097 105.516 27.653Z" fill="black"/>
<path d="M54.4556 5.96664C54.4859 7.26902 54.5464 8.48054 54.5767 9.69207C54.6676 12.4483 54.7281 15.2045 54.8796 17.9607C54.9098 18.7179 55.1218 19.5054 55.3944 20.202C55.8184 21.2924 56.6664 21.8679 57.8475 21.9587C60.2399 22.201 62.1176 20.7472 62.5416 18.2939C62.6627 17.6275 62.7233 16.9309 62.693 16.2646C62.6324 13.0843 62.5113 9.93437 62.4204 6.75412C62.4204 6.45124 62.4204 6.11808 62.4204 5.72433C64.1769 5.57289 65.9031 5.63347 67.7202 5.5426C67.9019 12.2363 68.1139 18.8693 68.2956 25.563C66.5391 25.7144 64.8129 25.6236 63.0261 25.775C62.9655 24.927 62.9353 24.1092 62.8747 23.1702C62.693 23.4126 62.6324 23.5034 62.5416 23.5943C61.1788 25.351 59.3617 26.2293 57.1812 26.3808C56.4846 26.4111 55.7881 26.3808 55.0916 26.2596C53.1231 25.9567 51.73 24.8664 50.7911 23.14C50.0946 21.8376 49.7312 20.414 49.61 18.9602C49.4586 17.0218 49.398 15.0833 49.3072 13.1449C49.2163 11.055 49.1861 8.99544 49.1255 6.90556C49.1255 6.63297 49.1255 6.39067 49.1255 6.0575C50.9426 6.08779 52.6385 6.02721 54.4556 5.96664Z" fill="black"/>
<path d="M33.8018 39.1019C33.4384 37.6481 33.075 36.2851 32.7116 34.8616C33.287 34.7707 33.8018 34.7404 34.2864 34.6193C34.9223 34.4981 35.5583 34.3164 36.1943 34.1347C37.1028 33.8621 37.6177 33.1957 37.7085 32.2871C37.7994 31.4087 37.7691 30.5607 37.7691 29.6823C37.7691 29.4097 37.5874 29.1371 37.4057 28.9251C34.2561 24.2608 31.1065 19.6267 27.9569 14.9623C27.2301 13.872 26.5032 12.8119 25.6855 11.6306C27.4723 11.1763 29.1986 10.722 30.9853 10.2374C33.5898 14.72 36.164 19.1724 38.7382 23.5944C38.7988 23.5641 38.8593 23.5641 38.8896 23.5338C38.9805 18.3849 39.0713 13.2662 39.1622 8.08695C40.8884 7.63263 42.5541 7.20859 44.2803 6.75427C44.2803 7.02686 44.2803 7.23888 44.2803 7.4509C44.0683 10.0254 43.8563 12.6302 43.6443 15.2046C43.4626 17.2945 43.3112 19.3541 43.1295 21.444C42.9478 23.5339 42.7661 25.654 42.6146 27.7439C42.5238 28.9251 42.4935 30.1064 42.4026 31.2876C42.3118 32.5294 42.1301 33.7409 41.6455 34.8919C40.9793 36.5274 39.8284 37.6784 38.1628 38.2538C36.7697 38.7687 35.3463 39.011 33.8018 39.1019Z" fill="black"/>
<path d="M16.6186 150.077C15.1346 149.108 13.681 148.169 12.1667 147.2C12.3181 146.958 12.4393 146.745 12.5907 146.533C14.3775 143.777 16.1946 141.021 17.9511 138.235C18.3751 137.599 18.7385 136.902 19.0716 136.205C19.2836 135.751 19.4047 135.236 19.4956 134.751C19.6773 133.873 19.4047 133.086 18.7688 132.419C17.3151 130.844 15.074 130.572 13.2873 131.783C12.409 132.389 11.7427 133.176 11.1673 134.055C9.41083 136.781 7.62404 139.507 5.86753 142.233C5.74639 142.445 5.59497 142.626 5.41326 142.869C3.92932 141.899 2.47566 140.96 0.961426 139.991C4.62586 134.358 8.22973 128.785 11.8942 123.151C13.4084 124.12 14.8621 125.059 16.346 126.059C15.8614 126.816 15.4072 127.513 14.9226 128.27C15.6797 128.118 16.2854 127.906 16.9214 127.846C19.7682 127.573 22.0092 128.724 23.7657 130.875C24.5531 131.814 24.8863 132.964 24.8863 134.176C24.8863 134.57 24.8863 134.933 24.8863 135.387C25.068 135.327 25.2497 135.266 25.4011 135.206C27.3696 134.237 29.3381 134.297 31.2763 135.297C32.094 135.721 32.9117 136.266 33.6385 136.841C35.6979 138.568 36.3641 140.779 35.7281 143.384C35.3647 144.898 34.6985 146.321 33.8808 147.624C31.882 150.744 29.8529 153.863 27.8541 156.953C27.7936 157.043 27.7027 157.134 27.5816 157.255C26.0976 156.286 24.644 155.347 23.16 154.408C23.3417 154.136 23.4629 153.893 23.6143 153.681C25.4314 150.865 27.2787 148.048 29.0958 145.201C29.5804 144.444 30.0044 143.656 30.3072 142.808C30.9432 141.112 30.4586 139.87 28.9141 138.901C27.1879 137.811 25.5828 137.932 24.0383 139.234C23.2206 139.9 22.5846 140.748 22.0395 141.627C20.3436 144.232 18.6779 146.836 16.982 149.441C16.9214 149.623 16.77 149.835 16.6186 150.077Z" fill="black"/>
<path d="M97.6903 137.689C96.2366 135.811 95.8127 133.843 96.4486 131.662C96.5698 131.299 96.6909 130.935 96.8726 130.602C98.3868 127.876 100.628 125.998 103.626 125.12C106.14 124.393 108.32 125.089 110.016 127.119C111.106 128.421 112.197 129.693 113.317 130.996C113.983 131.783 114.65 132.601 115.346 133.388C116.436 134.63 116.982 134.66 118.163 133.57C118.314 133.419 118.496 133.298 118.678 133.116C119.556 134.146 120.404 135.175 121.252 136.175C120.131 138.113 117.496 139.507 115.467 139.204C114.862 139.113 114.256 138.871 113.62 138.659C113.62 138.78 113.62 138.871 113.65 138.992C113.983 140.415 113.711 141.748 112.984 142.959C111.924 144.716 110.41 145.988 108.381 146.503C104.595 147.442 101.506 144.262 101.355 141.354C101.294 140.355 101.567 139.385 101.96 138.477C102.415 137.417 103.051 136.478 103.808 135.63C104.747 134.6 105.746 133.6 106.745 132.601C106.927 132.419 107.139 132.237 107.321 132.056C106.988 131.359 105.776 129.966 105.171 129.633C104.565 129.3 103.929 129.209 103.293 129.451C102.324 129.784 101.567 130.42 101.082 131.359C100.719 132.086 100.749 132.813 101.112 133.54C101.264 133.843 101.446 134.115 101.658 134.448C100.325 135.448 99.0228 136.538 97.6903 137.689ZM109.32 134.206C108.229 135.206 107.23 136.175 106.503 137.417C106.321 137.72 106.17 138.053 106.079 138.416C105.746 139.416 105.958 140.324 106.624 141.112C107.26 141.869 108.048 142.081 108.956 141.657C110.168 141.112 110.894 140.173 111.046 138.81C111.258 137.023 110.501 135.599 109.32 134.206Z" fill="black"/>
<path d="M73.917 140.87C75.5524 140.264 77.1574 139.658 78.8231 139.022C78.9139 139.264 79.0351 139.476 79.0957 139.688C80.2465 142.778 81.3973 145.867 82.5784 148.926C82.9115 149.774 83.2749 150.653 83.7595 151.41C84.9103 153.288 86.5759 153.651 88.4839 152.561C90.0284 151.682 90.8158 149.986 90.5129 148.108C90.3918 147.382 90.1798 146.655 89.9375 145.928C88.8473 142.929 87.6965 139.931 86.5759 136.962C86.4851 136.75 86.4245 136.508 86.3337 136.205C87.9993 135.599 89.6044 134.994 91.3003 134.358C93.6625 140.627 95.9945 146.867 98.3264 153.167C96.6607 153.803 95.0556 154.408 93.3597 155.044C93.0568 154.257 92.754 153.5 92.4209 152.682C92.1786 153.227 92.0272 153.712 91.7849 154.166C90.7552 156.135 89.0593 157.286 86.9999 157.891C84.3652 158.649 82.1847 157.982 80.3979 155.923C79.3682 154.742 78.6111 153.379 78.0357 151.925C76.6426 148.32 75.3101 144.716 73.9473 141.112C73.9473 141.051 73.917 141.021 73.917 140.87Z" fill="black"/>
<path d="M40.0891 139.416C41.8154 139.688 43.5113 139.961 45.2981 140.234C45.1467 141.233 44.9952 142.202 44.8438 143.141C44.3896 145.958 43.9353 148.775 43.5113 151.592C43.3599 152.561 43.3296 153.53 43.6022 154.469C43.8747 155.499 44.541 156.195 45.5404 156.559C47.5392 157.225 49.5379 156.468 50.5979 154.651C51.143 153.712 51.3853 152.682 51.5367 151.622C52.0213 148.502 52.5361 145.352 53.0207 142.233C53.0509 141.99 53.1115 141.778 53.1721 141.506C54.9286 141.778 56.6245 142.051 58.381 142.323C57.3211 148.957 56.2914 155.529 55.2314 162.162C53.4446 161.89 51.7487 161.617 49.9922 161.314C50.1133 160.496 50.2345 159.709 50.3556 158.83C50.1436 158.982 50.0225 159.042 49.9014 159.133C47.2363 161.587 43.0873 161.253 40.7251 159.618C39.12 158.528 38.4538 156.892 38.1812 155.075C37.9087 153.288 38.0904 151.501 38.3629 149.714C38.8778 146.443 39.3926 143.171 39.9377 139.9C39.9983 139.779 40.0286 139.628 40.0891 139.416Z" fill="black"/>
<path d="M73.7653 156.741C73.9167 158.194 74.0378 159.557 74.1893 161.011C73.9167 161.072 73.735 161.132 73.523 161.163C72.0391 161.435 70.5551 161.677 69.0409 161.587C66.4667 161.405 64.8313 159.89 64.5588 157.286C64.2256 154.317 63.9531 151.349 63.6502 148.381C63.5594 147.472 63.4685 146.564 63.3474 145.595C62.3783 145.685 61.4697 145.746 60.5006 145.837C60.3795 144.534 60.2584 143.262 60.1069 141.96C61.076 141.839 61.9543 141.748 62.9537 141.657C62.7417 139.567 62.56 137.508 62.348 135.357C64.1045 135.175 65.8004 135.024 67.5872 134.842C67.9204 136.932 67.9809 139.022 68.2838 141.142C69.4649 141.021 70.5551 140.93 71.7362 140.809C72.0088 142.051 72.0088 143.323 72.1905 144.686C71.0094 144.807 69.8586 144.958 68.6472 145.08C68.738 146.079 68.8289 147.048 68.9197 148.018C69.1317 150.259 69.374 152.5 69.586 154.742C69.6163 155.044 69.6466 155.378 69.7071 155.68C69.8586 156.619 70.3431 157.043 71.2819 157.013C71.8574 157.013 72.4328 156.892 73.0082 156.831C73.2504 156.801 73.4624 156.771 73.7653 156.741Z" fill="black"/>
</svg>
