<svg width="161" height="162" viewBox="0 0 161 162" fill="none" xmlns="http://www.w3.org/2000/svg">
<path d="M79.3784 119.789C82.9453 119.819 86.0816 118.835 89.0335 117.206C92.3544 115.391 95.1525 112.931 97.7355 110.225C99.9494 107.888 101.887 105.366 103.301 102.475C104.715 99.6152 105.515 96.5707 105.392 93.3725C105.3 90.82 104.654 88.3599 103.578 86.0534C102.563 83.9008 101.302 81.9019 99.6726 80.1797C97.8277 78.1808 95.9213 76.2742 94.0148 74.3368C93.3384 73.6295 92.6311 72.9529 91.9239 72.2456C87.6806 68.0326 83.468 63.7887 79.2247 59.5757C78.4867 58.8376 77.595 58.2841 76.5188 58.2226C75.0121 58.1303 73.8436 58.8069 73.0749 60.0677C72.3062 61.3286 72.3369 62.6817 73.1056 63.9118C73.5669 64.6191 74.1819 65.2649 74.7661 65.8799C76.488 67.6328 78.2714 69.3549 79.9934 71.077C81.3771 72.4609 82.73 73.8448 84.083 75.2286C84.2982 75.4746 84.5135 75.7822 84.6057 76.0897C84.7594 76.6125 84.4827 77.1968 84.0215 77.5043C83.5295 77.8118 82.9145 77.7811 82.4225 77.412C82.238 77.2583 82.0536 77.0737 81.8998 76.8892C79.2862 74.2753 76.6418 71.6306 74.0281 69.0166C69.385 64.4038 64.7727 59.7602 60.1296 55.1781C59.6069 54.6553 58.9919 54.1325 58.3462 53.7635C57.1778 53.1177 55.9478 53.0562 54.7793 53.825C53.5186 54.6553 53.0574 56.2544 53.6109 57.7613C53.9184 58.5916 54.4411 59.2682 55.0561 59.8832C58.7767 63.6042 62.4973 67.3253 66.2179 71.0463C68.4011 73.2297 70.5842 75.4439 72.7674 77.6273C72.9519 77.8118 73.1364 77.9656 73.2594 78.1808C73.6591 78.7344 73.5669 79.4417 73.1056 79.9337C72.6444 80.395 71.9679 80.4873 71.4145 80.1182C71.1377 79.9337 70.8917 79.6877 70.6457 79.4417C62.1283 70.9233 53.5801 62.4049 45.0627 53.8865C44.6322 53.456 44.1403 53.0562 43.6175 52.7794C41.8648 51.9183 39.9892 52.9332 39.0974 54.3478C38.298 55.6086 38.421 57.177 39.3434 58.3456C39.6202 58.6839 39.8969 58.9606 40.2044 59.2682C46.5079 65.5724 52.8114 71.8766 59.0842 78.1501C61.3288 80.395 63.5735 82.6399 65.8182 84.8848C66.0027 85.0694 66.1872 85.2231 66.3102 85.4384C66.7099 86.0227 66.5869 86.7915 66.0642 87.2528C65.5722 87.6833 64.8342 87.7141 64.3115 87.2835C64.0962 87.1298 63.9117 86.9145 63.7273 86.73C56.286 79.3187 48.8756 71.8766 41.4344 64.4653C41.2806 64.3115 41.1576 64.1885 41.0039 64.0348C40.1122 63.1122 39.0975 62.9892 37.9597 63.4505C36.6068 64.004 35.6228 64.9881 35.1001 66.3719C34.6696 67.5713 34.8234 68.7091 35.7458 69.6624C35.9303 69.847 36.0841 70.0007 36.2686 70.1852C42.2338 76.1512 48.1991 82.1171 54.1644 88.0831C55.7018 89.6207 57.2085 91.1583 58.7459 92.6959C58.8689 92.8189 58.9919 92.9419 59.0842 93.065C59.5454 93.6493 59.5147 94.3873 59.0227 94.8793C58.5 95.4021 57.762 95.4636 57.147 95.0024C56.9318 94.8486 56.7473 94.6333 56.5628 94.4488C51.0587 88.9441 45.5547 83.4702 40.0507 77.9656C39.8662 77.781 39.7124 77.6273 39.5279 77.4428C38.5747 76.551 37.4985 76.428 36.3301 77.0122C34.4544 77.9656 32.9477 80.8255 34.9464 83.378C35.1616 83.6547 35.4383 83.9315 35.6843 84.1775C45.032 93.5262 54.4104 102.906 63.758 112.254C66.1257 114.622 68.7086 116.683 71.7527 118.097C74.2741 119.204 76.8262 119.819 79.3784 119.789Z" fill="#AECEE6"/>
<path d="M79.1475 119.789C75.5806 119.819 72.4442 118.835 69.4923 117.206C66.1715 115.391 63.3733 112.931 60.7904 110.225C58.5765 107.888 56.6393 105.366 55.2249 102.475C53.8104 99.6152 53.011 96.5707 53.134 93.3725C53.2262 90.82 53.8719 88.3599 54.9482 86.0534C55.9629 83.9008 57.2236 81.9019 58.8533 80.1797C60.6982 78.1808 62.6046 76.2742 64.511 74.3368C65.1875 73.6295 65.8947 72.9529 66.602 72.2456C70.8453 68.0326 75.0579 63.7887 79.3012 59.5757C80.0392 58.8376 80.9309 58.2841 82.0071 58.2226C83.5138 58.1303 84.6823 58.8069 85.451 60.0677C86.2197 61.3286 86.189 62.6817 85.4202 63.9118C84.959 64.6191 84.344 65.2649 83.7598 65.8799C82.0379 67.6328 80.2544 69.3549 78.5325 71.077C77.1488 72.4609 75.7959 73.8448 74.4429 75.2286C74.2277 75.4746 74.0124 75.7822 73.9202 76.0897C73.7664 76.6125 74.0432 77.1968 74.5044 77.5043C74.9964 77.8118 75.6114 77.7811 76.1033 77.412C76.2878 77.2583 76.4723 77.0737 76.6261 76.8892C79.2397 74.2753 81.8841 71.6306 84.4978 69.0166C89.1408 64.4038 93.7532 59.7602 98.3962 55.1781C98.919 54.6553 99.5339 54.1325 100.18 53.7635C101.348 53.1177 102.578 53.0562 103.747 53.825C105.007 54.6553 105.468 56.2544 104.915 57.7613C104.607 58.5916 104.085 59.2682 103.47 59.8832C99.7492 63.6042 96.0286 67.3253 92.308 71.0463C90.1248 73.2297 87.9416 75.4439 85.7585 77.6273C85.574 77.8118 85.3895 77.9656 85.2665 78.1808C84.8668 78.7344 84.959 79.4417 85.4202 79.9337C85.8815 80.395 86.5579 80.4873 87.1114 80.1182C87.3882 79.9337 87.6341 79.6877 87.8801 79.4417C96.3976 70.9233 104.946 62.4049 113.463 53.8865C113.894 53.456 114.386 53.0562 114.908 52.7794C116.661 51.9183 118.537 52.9332 119.428 54.3478C120.228 55.6086 120.105 57.177 119.182 58.3456C118.906 58.6839 118.629 58.9606 118.321 59.2682C112.018 65.5724 105.714 71.8766 99.4417 78.1501C97.197 80.395 94.9524 82.6399 92.7077 84.8848C92.5232 85.0694 92.3387 85.2231 92.2157 85.4384C91.816 86.0227 91.939 86.7915 92.4617 87.2528C92.9537 87.6833 93.6917 87.7141 94.2144 87.2835C94.4296 87.1298 94.6141 86.9145 94.7986 86.73C102.24 79.3187 109.65 71.8766 117.092 64.4653C117.245 64.3115 117.368 64.1885 117.522 64.0348C118.414 63.1122 119.428 62.9892 120.566 63.4505C121.919 64.004 122.903 64.9881 123.426 66.3719C123.856 67.5713 123.703 68.7091 122.78 69.6624C122.596 69.847 122.442 70.0007 122.257 70.1852C116.292 76.1512 110.327 82.1171 104.362 88.0831C102.824 89.6207 101.317 91.1583 99.7799 92.6959C99.6569 92.8189 99.5339 92.9419 99.4417 93.065C98.9805 93.6493 99.0112 94.3873 99.5032 94.8793C100.026 95.4021 100.764 95.4636 101.379 95.0024C101.594 94.8486 101.779 94.6333 101.963 94.4488C107.467 88.9441 112.971 83.4702 118.475 77.9656C118.66 77.781 118.813 77.6273 118.998 77.4428C119.951 76.551 121.027 76.428 122.196 77.0122C124.071 77.9656 125.578 80.8255 123.58 83.378C123.364 83.6547 123.088 83.9315 122.842 84.1775C113.494 93.5262 104.116 102.906 94.7679 112.254C92.4002 114.622 89.8173 116.683 86.7732 118.097C84.2518 119.204 81.6996 119.819 79.1475 119.789Z" fill="#FF6E2E"/>
<path d="M51.5248 140.302C53.1139 137.277 54.6114 134.404 56.1699 131.44C57.484 132.143 58.7676 132.784 60.1122 133.487C56.2922 140.761 52.5333 148.003 48.6827 155.338C47.3686 154.635 46.0851 153.963 44.7404 153.29C45.046 152.679 45.321 152.129 45.6878 151.426C45.3822 151.548 45.1988 151.609 45.046 151.671C44.0681 152.068 43.0596 152.129 42.0205 151.946C38.8117 151.334 36.5502 148.798 36.2752 145.497C35.939 141.739 38.4144 137.338 41.7455 135.657C44.3431 134.373 47.338 134.74 49.5689 136.635C50.4857 137.43 51.0664 138.407 51.3414 139.599C51.372 139.783 51.4331 139.966 51.5248 140.302ZM40.4008 145.314C40.3703 146.964 40.9204 148.003 42.1122 148.706C43.6708 149.654 45.5044 149.531 46.9407 148.309C48.3771 147.087 49.2022 145.497 49.5995 143.694C49.7523 143.022 49.7523 142.35 49.5689 141.647C49.1716 140.149 48.1937 139.202 46.7574 138.713C45.3822 138.255 44.2209 138.744 43.2124 139.691C42.9679 139.935 42.7234 140.18 42.5401 140.455C41.7149 141.494 41.1037 142.655 40.7064 143.939C40.5536 144.458 40.462 145.039 40.4008 145.314Z" fill="black"/>
<path d="M13.2325 101.796C13.9965 101.613 14.7299 101.521 15.4328 101.307C16.3191 101.032 16.7775 100.329 16.808 99.443C16.8386 98.7707 16.6858 98.1289 16.319 97.5482C15.9523 96.937 15.4022 96.6314 14.6994 96.6009C14.4243 96.5703 14.1798 96.6009 13.8131 96.6009C13.5381 95.2257 13.2936 93.8504 12.988 92.4141C14.4243 92.1696 15.6773 92.3836 16.8386 93.0864C17.4803 93.4837 17.9999 93.9727 18.3971 94.6145C19.8335 96.9065 20.2919 99.4124 19.6501 102.071C19.1306 104.088 17.7859 105.28 15.769 105.708C13.5381 106.166 11.3072 106.564 9.07627 107.022C7.54825 107.328 7.30377 107.664 7.6705 109.192C7.70106 109.283 7.70106 109.375 7.73162 109.467C7.27321 109.742 5.37847 110.139 4.40054 110.139C3.91158 109.039 3.69766 107.847 3.85046 106.625C4.00326 105.372 4.70615 104.424 5.898 103.691C5.62296 103.599 5.50072 103.538 5.34791 103.507C4.46167 103.202 3.75878 102.652 3.23926 101.888C2.16965 100.329 1.80292 98.6179 2.23077 96.7842C2.65861 95.0117 3.8199 93.9116 5.56184 93.4226C7.30377 92.9336 8.86234 93.2392 10.1459 94.5533C11.0321 95.4396 11.6128 96.5092 12.0101 97.6705C12.4073 98.8012 12.7129 99.9625 13.0491 101.093C13.1102 101.246 13.1408 101.46 13.2325 101.796ZM10.7571 102.255C10.482 100.91 10.1459 99.6875 9.38187 98.5873C9.01515 98.0678 8.55674 97.701 7.94554 97.5177C6.38696 97.0898 5.25623 98.0983 5.50072 99.6875C5.68408 100.788 6.32584 101.552 7.30377 102.01C8.37338 102.499 9.50411 102.56 10.7571 102.255Z" fill="black"/>
<path d="M61.8539 147.209C60.4176 146.903 59.0729 146.598 57.6672 146.261C58.1867 144.275 59.3174 142.869 61.2121 142.35C64.2682 141.525 67.0797 142.197 69.494 144.275C70.9914 145.559 71.3582 147.301 70.9303 149.226C70.4414 151.426 69.9524 153.627 69.4634 155.796C69.4329 155.857 69.4329 155.949 69.4023 156.01C69.2189 157.08 69.494 157.508 70.5636 157.722C70.7775 157.752 70.9914 157.813 71.3276 157.874C71.0831 158.975 70.8692 160.014 70.6247 161.144C69.3412 161.236 68.1799 160.9 67.1103 160.319C65.949 159.677 65.3989 158.638 65.1544 157.324C64.7877 157.66 64.5127 157.966 64.1765 158.211C62.9235 159.158 61.4566 159.28 59.9897 159.005C59.3785 158.913 58.7368 158.7 58.1867 158.424C54.9473 156.805 55.1001 153.229 56.3836 151.365C57.2088 150.143 58.4617 149.623 59.8675 149.409C61.6705 149.104 63.4736 149.348 65.2767 149.623C65.6434 149.684 65.9795 149.745 66.438 149.806C66.5908 149.042 66.7741 148.309 66.8658 147.576C66.8964 147.27 66.8047 146.873 66.6824 146.598C66.1629 145.559 65.2155 145.314 64.1765 145.284C63.2291 145.253 62.5568 145.711 62.1595 146.598C62.0373 146.75 61.9456 146.964 61.8539 147.209ZM65.8573 152.251C64.4821 151.976 63.1374 151.762 61.7622 152.099C60.8454 152.343 60.2037 152.893 59.9592 153.81C59.7147 154.666 59.9897 155.338 60.7537 155.796C61.7928 156.377 63.0458 156.255 64.0543 155.491C65.0627 154.666 65.5823 153.565 65.8573 152.251Z" fill="black"/>
<path d="M28.9099 120.407C29.949 121.477 30.9575 122.486 31.9659 123.555C31.6909 123.861 31.3853 124.166 31.0797 124.472C29.2766 126.275 27.5041 128.078 25.7011 129.881C25.2427 130.34 24.8148 130.859 24.4176 131.379C23.8064 132.234 23.4091 133.212 23.9592 134.251C24.5704 135.382 25.5177 136.054 26.8013 136.177C27.5347 136.238 28.2376 136.085 28.8488 135.688C29.4294 135.321 30.0101 134.893 30.5296 134.404C32.4243 132.54 34.258 130.676 36.1221 128.781C36.3055 128.598 36.4277 128.353 36.5805 128.109C37.7113 129.301 38.6892 130.34 39.7588 131.44C35.9693 135.26 32.0576 139.233 28.1154 143.205C27.0763 142.136 26.0984 141.097 25.0593 139.997C25.4566 139.599 25.8845 139.11 26.4651 138.53C25.7011 138.53 25.0899 138.591 24.5092 138.53C22.1255 138.224 19.803 136.085 19.3446 133.732C19.1612 132.754 19.314 131.837 19.6502 130.92C20.078 129.789 20.7198 128.781 21.5449 127.895C22.6451 126.703 23.8064 125.511 24.9371 124.35C26.0984 123.158 27.2902 121.997 28.4515 120.805C28.5432 120.713 28.696 120.591 28.9099 120.407Z" fill="black"/>
<path d="M20.7199 105.433C21.4839 106.839 22.1562 108.122 22.8896 109.497C19.8031 112.431 16.6859 115.396 13.5993 118.329C13.6299 118.39 13.6299 118.421 13.6604 118.482C17.8166 117.565 22.0034 116.648 26.2207 115.732C26.9236 117.046 27.5959 118.329 28.2988 119.643C27.8404 119.735 27.4737 119.796 27.1375 119.857C22.798 120.53 18.4584 121.171 14.0883 121.844C11.8574 122.18 9.65705 122.577 7.42615 122.913C6.47878 123.066 5.53141 123.066 4.58404 122.883C3.39219 122.638 2.41426 122.027 1.68081 121.049C0.916808 119.98 0.427844 118.757 0 117.412C1.06961 116.832 2.10866 116.282 3.23939 115.671C3.33107 115.915 3.42275 116.129 3.51443 116.343C3.85059 117.015 4.1562 117.718 4.52292 118.36C4.85908 118.971 5.40917 119.277 6.11205 119.185C6.87606 119.093 7.64007 118.941 8.40407 118.727C8.64856 118.665 8.89304 118.39 9.0764 118.207C12.7742 114.173 16.472 110.139 20.1698 106.105C20.292 105.922 20.4754 105.708 20.7199 105.433Z" fill="black"/>
<path d="M102.468 158.577C101.002 158.913 99.6263 159.219 98.1594 159.555C97.8844 158.394 97.6399 157.294 97.3954 156.224C96.9676 154.299 96.5397 152.374 96.0813 150.448C95.8979 149.715 95.6229 148.981 95.2867 148.34C94.7061 147.209 93.7587 146.842 92.5058 147.056C90.5805 147.392 89.3886 148.951 89.572 151.059C89.6636 152.099 89.9081 153.138 90.1526 154.146C90.6416 156.408 91.1611 158.669 91.7112 161.022C90.2749 161.358 88.8691 161.664 87.3716 162C86.1492 156.53 84.9268 151.121 83.6738 145.65C85.1407 145.314 86.5159 145.009 87.9828 144.672C88.1662 145.375 88.319 146.017 88.5329 146.842C89.5108 144.733 91.0389 143.542 93.1475 143.114C95.2867 142.686 97.1204 143.236 98.5567 145.07C98.6789 144.795 98.7706 144.611 98.8317 144.428C99.3512 142.961 100.329 141.922 101.766 141.341C103.171 140.761 104.608 140.455 106.136 140.7C107.572 140.944 108.642 141.739 109.467 142.9C110.322 144.122 110.811 145.498 111.148 146.934C111.85 149.929 112.523 152.924 113.195 155.949C113.195 155.98 113.195 156.041 113.195 156.194C111.82 156.499 110.384 156.835 108.947 157.172C108.672 155.919 108.397 154.757 108.122 153.596C107.694 151.671 107.266 149.745 106.777 147.82C106.594 147.117 106.319 146.414 105.952 145.803C105.463 144.917 104.638 144.55 103.599 144.611C101.643 144.764 100.36 146.048 100.36 148.065C100.36 148.89 100.482 149.715 100.665 150.54C101.185 152.985 101.766 155.399 102.316 157.844C102.377 157.997 102.407 158.272 102.468 158.577Z" fill="black"/>
<path d="M157.6 93.2087C158.73 93.4532 159.8 93.6671 160.9 93.8811C160.9 95.1952 160.656 96.3564 160.044 97.4566C159.403 98.5873 158.394 99.1374 157.172 99.3819C157.202 99.4736 157.202 99.5347 157.233 99.5653C158.944 101.002 159.25 102.866 158.853 104.944C158.761 105.372 158.608 105.8 158.455 106.197C157.019 109.497 153.504 109.62 151.426 108.367C150.571 107.847 149.99 107.053 149.654 106.105C149.226 105.005 149.104 103.874 149.165 102.713C149.226 101.368 149.409 100.054 149.562 98.7096C149.562 98.6179 149.593 98.5262 149.593 98.4345C149.012 98.0984 147.484 97.8233 146.903 97.9456C146.751 97.9761 146.567 98.0373 146.414 98.0984C145.375 98.6485 145.1 99.6264 145.1 100.696C145.1 101.674 145.589 102.316 146.476 102.652C146.659 102.713 146.842 102.774 147.117 102.896C146.842 104.272 146.567 105.647 146.292 107.114C144.856 106.839 143.786 106.105 142.961 104.974C142.35 104.119 142.014 103.141 141.953 102.102C141.83 99.9626 142.258 97.915 143.45 96.0814C144.275 94.7979 145.406 93.9727 146.903 93.6977C147.698 93.5755 148.462 93.6671 149.226 93.8199C151.274 94.2478 153.291 94.6451 155.338 95.0729C155.613 95.134 155.919 95.1952 156.194 95.1952C156.836 95.2257 157.202 94.9812 157.386 94.37C157.447 94.0339 157.477 93.6671 157.6 93.2087ZM152.038 98.8013C151.976 99.168 151.885 99.4736 151.854 99.7792C151.763 100.818 151.64 101.857 151.946 102.896C152.221 103.813 152.771 104.424 153.718 104.669C154.574 104.883 155.246 104.608 155.674 103.813C156.224 102.774 156.133 101.735 155.46 100.788C154.635 99.5958 153.443 99.0763 152.038 98.8013Z" fill="black"/>
<path d="M119.307 132.937C120.56 132.173 121.783 131.409 122.975 130.676C123.372 131.012 131.226 143.694 131.776 144.947C130.554 145.681 129.362 146.445 128.048 147.239C127.681 146.659 127.345 146.109 126.917 145.467C126.825 145.864 126.795 146.139 126.734 146.384C126.122 149.226 123.036 151.487 120.194 151.151C119.185 151.029 118.329 150.601 117.565 149.99C116.343 149.042 115.426 147.82 114.632 146.537C113.104 144.061 111.576 141.586 110.078 139.11C110.017 139.019 109.956 138.896 109.864 138.713C111.117 137.949 112.34 137.185 113.623 136.421C113.807 136.696 113.959 136.91 114.082 137.155C115.487 139.477 116.893 141.769 118.329 144.092C118.666 144.642 119.063 145.192 119.491 145.681C120.285 146.598 121.233 147.178 122.455 146.689C123.769 146.2 124.655 145.253 124.839 143.786C124.961 142.717 124.625 141.769 124.105 140.852C123.647 140.058 123.158 139.294 122.7 138.53C121.722 136.91 120.744 135.321 119.766 133.732C119.613 133.487 119.491 133.273 119.307 132.937Z" fill="black"/>
<path d="M132.326 121.538C133.09 120.255 133.824 119.032 134.557 117.779C134.832 117.932 135.046 118.054 135.26 118.176C137.613 119.582 139.966 120.988 142.319 122.363C143.175 122.852 144.031 123.311 145.009 123.494C145.895 123.647 146.659 123.372 147.24 122.699C148.401 121.385 148.493 119.613 147.423 118.176C146.903 117.474 146.201 116.985 145.467 116.526C143.175 115.151 140.883 113.806 138.591 112.431C138.377 112.309 138.194 112.187 137.949 112.034C138.713 110.75 139.447 109.528 140.211 108.244C145.039 111.117 149.776 113.959 154.605 116.832C153.841 118.115 153.107 119.368 152.343 120.652C151.732 120.285 151.182 119.98 150.571 119.613C150.601 119.827 150.632 119.98 150.662 120.071C151.701 123.066 150.082 125.908 148.401 127.131C147.056 128.139 145.559 128.231 144 127.864C142.686 127.558 141.494 127.039 140.364 126.367C137.766 124.839 135.199 123.311 132.601 121.752C132.54 121.721 132.479 121.66 132.326 121.538Z" fill="black"/>
<path d="M130.798 122.669C131.684 123.525 132.418 124.258 133.212 125.053C132.57 125.694 131.898 126.367 131.195 127.1C131.715 127.62 132.173 128.109 132.632 128.598C134.16 130.126 135.657 131.654 137.185 133.151C137.246 133.212 137.277 133.243 137.338 133.304C138.041 133.946 138.53 133.946 139.263 133.334C139.722 132.937 140.21 132.54 140.608 132.204C141.311 132.907 142.136 133.762 143.022 134.618C142.136 135.657 141.188 136.818 139.935 137.674C138.316 138.774 136.665 138.682 135.137 137.399C134.557 136.91 134.037 136.36 133.518 135.81C131.776 134.098 130.064 132.356 128.323 130.615C128.2 130.492 128.078 130.401 127.834 130.217C127.314 130.798 126.825 131.348 126.367 131.867C125.572 131.073 124.839 130.339 124.044 129.514C124.502 129.025 125.053 128.475 125.633 127.864C124.38 126.642 123.158 125.48 121.844 124.197C122.944 123.097 123.983 122.058 125.053 120.988C126.306 122.241 127.528 123.463 128.842 124.778C129.545 124.044 130.187 123.341 130.798 122.669Z" fill="black"/>
<path d="M95.0224 8.34297C95.3585 8.37353 95.6336 8.40409 95.8781 8.43465C96.6726 8.55689 97.4672 8.67913 98.3229 8.83193C98.873 12.927 99.4536 17.0221 100.004 21.0866C100.065 21.0866 100.126 21.1172 100.187 21.1172C101.776 17.3888 103.396 13.6605 105.016 9.87098C106.452 10.0849 107.858 10.2988 109.294 10.5127C109.202 11.124 102.907 23.8065 101.471 26.2513C100.126 26.0374 98.7813 25.854 97.345 25.6095C96.8254 22.034 96.3059 18.489 95.7864 14.9745C95.7253 14.9745 95.6947 14.944 95.6947 14.9745C95.6641 14.9745 95.6336 14.9745 95.6336 15.0051C95.603 15.0662 95.5419 15.1273 95.5113 15.1885C93.9833 18.3056 92.4859 21.4228 90.9579 24.5399C90.9579 24.5705 90.9273 24.5705 90.8356 24.6316C89.5215 24.4177 88.1463 24.2037 86.7405 23.9898C85.7932 18.2139 84.8458 12.4686 83.8984 6.63159C85.3959 6.75383 86.8322 7.05944 88.2991 7.27336C88.6964 11.3684 89.1242 15.4024 89.5215 19.4669C89.5521 19.4669 89.5827 19.4975 89.6132 19.4975C89.6438 19.4975 89.6743 19.4975 89.6743 19.4669C91.4468 15.7997 93.2193 12.1019 95.0224 8.34297Z" fill="black"/>
<path d="M6 28.5432C7.16129 27.5959 8.26146 26.6791 9.45331 25.7317C11.562 28.2988 13.6401 30.8353 15.8098 33.494C15.8404 33.1273 15.8404 32.9134 15.871 32.6994C15.871 31.4465 16.2988 30.3463 17.0628 29.3989C18.927 27.1069 21.7997 26.1901 24.6418 27.0152C28.584 28.1765 31.9151 32.5772 31.854 36.5806C31.8234 39.7283 29.562 42.5398 26.5365 43.2122C25.6808 43.3955 24.7946 43.3344 23.7861 43.1205C24.275 43.7317 24.6418 44.2207 25.1002 44.7707C23.9694 45.7181 22.8693 46.6044 21.6774 47.5823C16.4516 41.2869 11.2564 34.9609 6 28.5432ZM21.708 30.4685C19.5993 30.5602 17.674 32.73 17.9796 34.8692C18.3769 37.5585 19.9355 39.4838 22.3803 40.584C24.0917 41.3785 26.017 40.7673 27.1477 39.2699C27.7284 38.5059 28.0034 37.6502 27.7589 36.7334C27.0866 34.0746 25.4669 32.1493 23.0832 30.8658C22.6859 30.6213 22.1969 30.5908 21.708 30.4685Z" fill="black"/>
<path d="M81.5756 23.7453C80.1087 23.8676 78.703 23.9593 77.2361 24.0815C77.175 23.5314 77.1138 23.0424 77.0833 22.584C76.8694 19.9864 76.686 17.3582 76.4415 14.7606C76.3804 13.9966 76.197 13.202 75.922 12.4992C75.5247 11.399 74.669 10.8795 73.4772 10.8795C71.8575 10.91 70.6351 11.7963 70.1155 13.3548C69.8405 14.2105 69.8099 15.0968 69.9016 15.9525C70.1155 18.6418 70.3295 21.3005 70.5739 23.9898C70.6045 24.1732 70.5739 24.3565 70.5739 24.601C69.107 24.7233 67.7318 24.8455 66.3261 24.9372C66.1121 24.326 64.248 1.58913 64.3091 0.366723C65.7149 0.244482 67.1206 0.122241 68.6486 0C68.9237 3.36163 69.1987 6.6927 69.4738 10.1766C69.6877 9.87097 69.8405 9.71817 69.9322 9.5348C71.5213 7.33447 74.6079 6.41766 77.1444 7.42615C78.2446 7.85399 79.0086 8.64856 79.5892 9.65704C80.3532 10.9711 80.6894 12.438 80.8116 13.9355C81.0867 16.9304 81.3312 19.9253 81.5451 22.9202C81.5756 23.1952 81.5756 23.4397 81.5756 23.7453Z" fill="black"/>
<path d="M147.83 22.1868C145.019 25.579 142.268 28.8795 139.457 32.3023C139.854 32.3023 140.098 32.3328 140.343 32.3023C142.421 32.1495 144.469 31.9661 146.547 31.8133C146.761 31.7828 147.066 31.8439 147.219 31.9967C148.503 33.0357 149.756 34.0748 151.008 35.1444C151.039 35.1749 151.039 35.2361 151.1 35.3583C148.289 35.5722 145.508 35.7556 142.666 35.9695C142.207 40.2479 141.779 44.4653 141.321 48.7743C141.138 48.6826 141.015 48.6215 140.924 48.5298C139.823 47.613 138.723 46.6962 137.593 45.7794C137.317 45.5654 137.226 45.3515 137.287 44.9542C137.623 42.2038 137.959 39.4228 138.265 36.6724C138.265 36.5807 138.265 36.489 138.295 36.2751C137.593 36.2751 136.89 36.2751 136.187 36.4279C136.003 36.4585 135.82 36.6724 135.698 36.8252C134.659 38.0476 133.62 39.3006 132.611 40.5536C132.458 40.7369 132.306 40.9203 132.092 41.1648C130.961 40.2174 129.83 39.3006 128.669 38.3227C133.925 31.9661 139.151 25.7013 144.438 19.3447C145.569 20.2921 146.669 21.2089 147.83 22.1868Z" fill="black"/>
<path d="M28.4009 21.3922C29.715 20.7199 30.9985 20.0781 32.3432 19.4364C32.496 19.742 32.6182 19.9559 32.7404 20.2004C33.9628 22.6757 35.1853 25.1511 36.4382 27.596C36.7744 28.2683 37.1717 28.91 37.6606 29.4907C38.6386 30.652 39.7999 30.8353 41.1445 30.1019C42.642 29.2768 43.2837 27.6876 42.7948 25.8846C42.642 25.2734 42.3669 24.6927 42.0919 24.1121C40.9612 21.7895 39.7999 19.4669 38.6386 17.1443C38.5469 16.9304 38.4246 16.7165 38.3024 16.4415C39.6165 15.7997 40.9 15.1579 42.2752 14.4856C44.7506 19.4975 47.226 24.4482 49.7319 29.4907C48.4179 30.163 47.1038 30.8048 45.7591 31.4771C45.4535 30.8659 45.1479 30.3158 44.8117 29.6435C44.7201 29.8574 44.6589 30.0102 44.5978 30.1325C43.8949 32.8829 41.0528 34.961 38.2413 34.7776C37.0189 34.7165 36.0104 34.1359 35.1241 33.3413C34.2685 32.5467 33.5656 31.6299 33.0155 30.6214C32.4043 29.5212 31.8542 28.4211 31.3041 27.2903C30.4179 25.5179 29.5316 23.7454 28.6759 21.9729C28.5842 21.8201 28.5231 21.6061 28.4009 21.3922Z" fill="black"/>
<path d="M49.6403 23.9287C51.0155 23.562 52.299 23.1953 53.6742 22.8286C53.7965 23.0425 53.8881 23.2258 53.9798 23.4092C54.4077 24.2649 55.1106 24.6622 56.0274 24.6927C56.9136 24.6927 57.7693 24.4788 58.5639 24.051C59.1445 23.7454 59.6029 23.2564 59.5112 22.523C59.4501 21.7589 59.0834 21.1477 58.3499 20.9033C57.861 20.7199 57.3109 20.6282 56.7608 20.6282C55.7218 20.6282 54.6521 20.7199 53.6131 20.7505C53.1241 20.7505 52.6352 20.7505 52.1462 20.6893C50.007 20.3837 48.6623 19.0696 48.2651 16.8999C47.9595 15.2496 48.4484 13.8438 49.5792 12.6825C50.8321 11.399 52.3907 10.7878 54.1326 10.4822C55.1411 10.2988 56.119 10.2683 57.1275 10.4822C59.0223 10.9101 60.2447 12.0713 60.9781 13.9661C59.5418 14.3634 58.1666 14.7301 56.7608 15.1274C56.6691 14.9746 56.6386 14.8829 56.5775 14.7912C55.8134 13.2632 53.6437 13.1104 52.6657 14.5162C52.1462 15.2802 52.3907 16.2887 53.2158 16.6859C53.5214 16.8387 53.9187 16.9304 54.2549 16.9304C55.0494 16.961 55.8134 16.8999 56.608 16.8693C57.6471 16.8082 58.7167 16.7471 59.7557 16.9304C61.1309 17.2055 62.17 17.9389 62.8423 19.1613C64.2175 21.6367 63.7286 24.1426 61.4977 25.8846C60.153 26.9542 58.5944 27.4737 56.9442 27.7793C55.7523 27.9932 54.5605 28.0544 53.3686 27.7793C51.3822 27.2598 50.2209 25.9457 49.6403 23.9287Z" fill="black"/>
<path d="M126.835 30.0102C128.088 30.6825 129.341 31.3243 130.655 32.0272C130.503 32.2411 130.411 32.3939 130.289 32.5467C128.363 34.7165 125.98 35.6638 123.138 35.1138C120.081 34.5331 117.728 32.944 116.475 29.9796C115.864 28.5433 115.803 27.0459 116.109 25.5178C116.567 23.1953 117.637 21.1783 119.44 19.6503C121.61 17.7861 124.085 17.236 126.835 18C128.333 18.4279 129.677 19.1613 130.808 20.2615C132.947 22.3701 133.436 24.8761 132.795 27.8404C131.48 27.1375 130.228 26.4958 128.944 25.8234C129.005 25.5484 129.036 25.2734 129.097 25.0289C129.372 23.562 128.913 22.4924 127.63 21.7284C127.233 21.4839 126.805 21.3005 126.377 21.1477C125.399 20.8116 124.452 20.9644 123.596 21.545C123.29 21.7589 122.954 22.0034 122.71 22.309C121.365 23.8676 120.387 25.6401 119.99 27.6876C119.684 29.2462 120.234 30.4686 121.579 31.3243C121.701 31.416 121.823 31.4771 121.946 31.5382C123.657 32.455 124.971 32.2105 126.255 30.7742C126.438 30.4686 126.621 30.2547 126.835 30.0102Z" fill="black"/>
<path d="M112.931 12.438C114.336 12.927 115.681 13.4159 117.117 13.9049C115.253 19.1918 113.42 24.4176 111.555 29.7045C110.15 29.2156 108.805 28.7266 107.369 28.2376C109.202 22.9507 111.066 17.7249 112.931 12.438Z" fill="black"/>
<path d="M113.939 9.32092C114.458 7.85403 114.947 6.44826 115.467 4.95081C116.934 5.47033 118.34 5.95929 119.837 6.47882C119.318 7.94571 118.829 9.35148 118.309 10.8489C116.842 10.36 115.436 9.87101 113.939 9.32092Z" fill="black"/>
</svg>
