<?xml version="1.0" encoding="UTF-8"?>
<svg width="212px" height="155px" viewBox="0 0 212 155" version="1.1" xmlns="http://www.w3.org/2000/svg" xmlns:xlink="http://www.w3.org/1999/xlink">
    <title>Hands</title>
    <defs>
        <polygon id="path-1" points="0 0.191 111.5008 0.191 111.5008 187.9993 0 187.9993"></polygon>
        <polygon id="path-3" points="0.0004 0.4988 187.809 0.4988 187.809 111.9998 0.0004 111.9998"></polygon>
    </defs>
    <g id="Hands" stroke="none" stroke-width="1" fill="none" fill-rule="evenodd">
        <g id="Group-3" transform="translate(79.348438, 68.588554) rotate(-45.000000) translate(-79.348438, -68.588554) translate(23.348438, -25.411446)">
            <mask id="mask-2" fill="white">
                <use xlink:href="#path-1"></use>
            </mask>
            <g id="Clip-2"></g>
            <path d="M64.2138,8.6433 L64.2138,94.4343 C64.2138,96.2713 65.7028,97.7603 67.5398,97.7603 C69.3768,97.7603 70.8658,96.2713 70.8658,94.4343 L70.8658,33.6753 C70.8658,29.3223 74.1508,25.5223 78.4948,25.2413 C83.2548,24.9333 87.2108,28.7023 87.2108,33.3953 L87.2108,108.2703 C87.2108,110.1073 88.6998,111.5973 90.5368,111.5973 C92.3738,111.5973 93.8628,110.1073 93.8628,108.2703 L93.8628,74.5453 C93.8628,69.8483 97.4078,65.7473 102.0958,65.4433 C107.2318,65.1113 111.5008,69.1783 111.5008,74.2433 L111.5008,111.5973 L111.5008,130.0963 L111.5008,139.2833 C111.5008,166.1893 89.6898,187.9993 62.7838,187.9993 L48.7168,187.9993 C21.8118,187.9993 -0.0002,166.1883 -0.0002,139.2833 L-0.0002,129.5703 L-0.0002,111.5973 L-0.0002,41.5933 C-0.0002,36.9903 3.4728,32.9723 8.0658,32.6743 C13.0988,32.3493 17.2818,36.3343 17.2818,41.2973 L17.2818,95.8533 C17.2818,97.6903 18.7708,99.1803 20.6088,99.1803 C22.4448,99.1803 23.9348,97.6903 23.9348,95.8533 L23.9348,21.5553 C23.9348,16.9523 27.4078,12.9343 32.0008,12.6363 C37.0328,12.3103 41.2158,16.2963 41.2158,21.2593 L41.2158,94.4343 C41.2158,96.2713 42.7058,97.7603 44.5428,97.7603 C46.3798,97.7603 47.8688,96.2713 47.8688,94.4343 L47.8688,8.3633 C47.8688,3.6693 51.8258,-0.0997 56.5858,0.2083 C60.9288,0.4903 64.2138,4.2903 64.2138,8.6433" id="Fill-1" fill="#AECEE6" mask="url(#mask-2)"></path>
        </g>
        <g id="Group-6" transform="translate(133.088554, 68.588554) rotate(-45.000000) translate(-133.088554, -68.588554) translate(39.088554, 12.588554)">
            <mask id="mask-4" fill="white">
                <use xlink:href="#path-3"></use>
            </mask>
            <g id="Clip-5"></g>
            <path d="M179.3564,47.7858 L93.5664,47.7858 C91.7284,47.7858 90.2404,46.2978 90.2404,44.4598 C90.2404,42.6228 91.7284,41.1338 93.5664,41.1338 L154.3244,41.1338 C158.6774,41.1338 162.4774,37.8488 162.7584,33.5058 C163.0674,28.7458 159.2974,24.7888 154.6044,24.7888 L79.7294,24.7888 C77.8924,24.7888 76.4034,23.2998 76.4034,21.4628 C76.4034,19.6258 77.8924,18.1368 79.7294,18.1368 L113.4554,18.1368 C118.1514,18.1368 122.2524,14.5918 122.5564,9.9048 C122.8884,4.7678 118.8214,0.4988 113.7564,0.4988 L76.4034,0.4988 L57.9034,0.4988 L48.7164,0.4988 C21.8114,0.4988 0.0004,22.3098 0.0004,49.2158 L0.0004,63.2828 C0.0004,90.1878 21.8114,111.9998 48.7164,111.9998 L58.4304,111.9998 L76.4034,111.9998 L146.4074,111.9998 C151.0094,111.9998 155.0284,108.5268 155.3254,103.9338 C155.6514,98.9008 151.6654,94.7188 146.7034,94.7188 L92.1464,94.7188 C90.3094,94.7188 88.8204,93.2288 88.8204,91.3908 C88.8204,89.5548 90.3094,88.0648 92.1464,88.0648 L166.4454,88.0648 C171.0474,88.0648 175.0664,84.5928 175.3634,79.9998 C175.6894,74.9668 171.7044,70.7838 166.7414,70.7838 L93.5664,70.7838 C91.7284,70.7838 90.2404,69.2948 90.2404,67.4578 C90.2404,65.6198 91.7284,64.1308 93.5664,64.1308 L179.6364,64.1308 C184.3304,64.1308 188.0994,60.1748 187.7914,55.4148 C187.5104,51.0708 183.7104,47.7858 179.3564,47.7858" id="Fill-4" fill="#FF6E2E" mask="url(#mask-4)"></path>
        </g>
    </g>
</svg>